M48
; DRILL file {KiCad 9.0.5} date 2026-02-06T23:15:01+0900
; FORMAT={-:-/ absolute / metric / decimal}
; #@! TF.CreationDate,2026-02-06T23:15:01+09:00
; #@! TF.GenerationSoftware,Kicad,Pcbnew,9.0.5
; #@! TF.FileFunction,Plated,1,2,PTH
FMAT,2
METRIC
; #@! TA.AperFunction,Plated,PTH,ViaDrill
T1C0.400
; #@! TA.AperFunction,Plated,PTH,ComponentDrill
T2C0.600
; #@! TA.AperFunction,Plated,PTH,ComponentDrill
T3C0.900
; #@! TA.AperFunction,Plated,PTH,ComponentDrill
T4C1.000
; #@! TA.AperFunction,Plated,PTH,ComponentDrill
T5C1.500
%
G90
G05
T1
X63.2Y-146.5
X63.2Y-149.6
X64.2Y-146.5
X64.2Y-173.1
X65.1Y-146.5
X65.1Y-173.1
X66.0Y-146.5
X66.0Y-173.1
X75.1Y-157.0
X158.346Y-176.054
X215.9Y-176.054
X306.4Y-157.004
X318.3Y-137.954
X342.4Y-129.8
X342.4Y-130.6
X342.4Y-131.4
X345.3Y-145.4
X345.327Y-137.7
X345.5Y-134.5
X345.8Y-106.4
X345.8Y-109.5
X345.8Y-111.2
X347.9Y-97.7
X348.0Y-131.9
X348.1Y-111.9
X348.173Y-135.4
X348.7Y-125.1
X350.1Y-96.3
X350.2Y-108.5
X350.493Y-131.893
X350.6Y-97.8
X350.927Y-135.4
X351.118Y-111.9
X352.427Y-145.8
X352.427Y-147.2
X353.2Y-97.8
X353.3Y-108.5
X353.368Y-96.321
X353.6Y-110.6
X353.6Y-111.9
X353.9Y-134.6
X354.473Y-136.09
X355.4Y-97.8
X355.727Y-135.4
X355.9Y-125.1
X357.415Y-138.215
X357.431Y-136.873
X357.9Y-143.7
X360.4Y-170.4
X361.35Y-164.25
X369.8Y-153.2
X369.8Y-154.1
T3
X47.942Y-165.894
X47.942Y-172.244
X47.942Y-178.594
X50.482Y-165.894
X50.482Y-172.244
X50.482Y-178.594
T4
X370.562Y-143.019
X370.562Y-157.519
X373.062Y-157.519
X375.562Y-143.019
X375.562Y-157.519
T5
X45.402Y-99.854
X45.402Y-123.666
X45.402Y-142.716
X51.752Y-97.314
X51.752Y-121.126
X51.752Y-140.176
X69.215Y-99.854
X71.596Y-176.054
X73.977Y-118.904
X75.565Y-97.314
X76.359Y-137.954
X77.946Y-173.514
X80.328Y-116.364
X82.709Y-135.414
X88.265Y-99.854
X94.615Y-97.314
X95.409Y-176.054
X97.79Y-118.904
X101.759Y-173.514
X102.552Y-137.954
X104.14Y-116.364
X107.315Y-99.854
X108.902Y-135.414
X112.078Y-157.004
X113.665Y-97.314
X116.84Y-118.904
X118.427Y-154.464
X121.602Y-137.954
X121.602Y-176.054
X123.19Y-116.364
X126.365Y-99.854
X127.953Y-135.414
X127.953Y-173.514
X131.127Y-157.004
X132.715Y-97.314
X135.89Y-118.904
X137.477Y-154.464
X140.653Y-137.954
X142.24Y-116.364
X145.415Y-99.854
X147.002Y-135.414
X150.177Y-157.004
X151.765Y-97.314
X154.94Y-118.904
X156.528Y-154.464
X159.702Y-137.954
X161.29Y-116.364
X164.465Y-99.854
X166.052Y-135.414
X169.227Y-157.004
X170.815Y-97.314
X173.99Y-118.904
X175.577Y-154.464
X178.752Y-137.954
X180.34Y-116.364
X183.515Y-99.854
X185.102Y-135.414
X188.278Y-157.004
X189.865Y-97.314
X193.04Y-118.904
X194.627Y-154.464
X197.802Y-137.954
X199.39Y-116.364
X202.565Y-99.854
X204.153Y-135.414
X207.327Y-157.004
X208.915Y-97.314
X212.09Y-118.904
X213.677Y-154.464
X216.852Y-137.954
X218.44Y-116.364
X221.615Y-99.854
X223.202Y-135.414
X226.377Y-157.004
X227.965Y-97.314
X231.14Y-118.904
X232.727Y-154.464
X235.903Y-137.954
X237.49Y-116.364
X240.665Y-99.854
X242.252Y-135.414
X245.427Y-157.004
X247.015Y-97.314
X250.19Y-118.904
X251.777Y-154.464
X254.952Y-137.954
X256.54Y-116.364
X259.715Y-99.854
X261.303Y-135.414
X264.477Y-157.004
X264.477Y-176.054
X266.065Y-97.314
X269.24Y-118.904
X270.827Y-154.464
X270.827Y-173.514
X274.002Y-137.954
X275.59Y-116.364
X278.765Y-99.854
X280.352Y-135.414
X283.527Y-157.004
X285.115Y-97.314
X288.29Y-118.904
X289.877Y-154.464
X290.671Y-176.054
X293.053Y-137.954
X294.64Y-116.364
X297.021Y-173.514
X297.815Y-99.854
X299.402Y-135.414
X304.165Y-97.314
X307.34Y-118.904
X313.69Y-116.364
X316.865Y-99.854
X321.627Y-176.054
X323.215Y-97.314
X327.977Y-173.514
X331.152Y-118.904
X335.915Y-99.854
X337.502Y-116.364
X340.678Y-157.004
X340.678Y-176.054
X342.265Y-97.314
X347.027Y-154.464
X347.027Y-173.514
X359.727Y-99.854
X359.727Y-118.904
X359.727Y-176.054
X366.077Y-97.314
X366.077Y-116.364
X366.077Y-173.514
T2
G00X347.289Y-89.419
M15
G01X347.289Y-90.019
M16
G05
G00X347.289Y-93.349
M15
G01X347.289Y-94.449
M16
G05
G00X355.929Y-89.419
M15
G01X355.929Y-90.019
M16
G05
G00X355.929Y-93.349
M15
G01X355.929Y-94.449
M16
G05
T5
G00X367.462Y-150.669
M15
G01X367.462Y-149.369
M16
G05
G00X378.662Y-150.669
M15
G01X378.662Y-149.369
M16
G05
M30
