M48
; DRILL file {KiCad 9.0.5} date 2026-02-06T23:15:01+0900
; FORMAT={-:-/ absolute / metric / decimal}
; #@! TF.CreationDate,2026-02-06T23:15:01+09:00
; #@! TF.GenerationSoftware,Kicad,Pcbnew,9.0.5
; #@! TF.FileFunction,NonPlated,1,2,NPTH
FMAT,2
METRIC
; #@! TA.AperFunction,NonPlated,NPTH,ComponentDrill
T1C0.650
; #@! TA.AperFunction,NonPlated,NPTH,ComponentDrill
T2C1.750
; #@! TA.AperFunction,NonPlated,NPTH,ComponentDrill
T3C3.050
; #@! TA.AperFunction,NonPlated,NPTH,ComponentDrill
T4C4.000
%
G90
G05
T1
X348.719Y-93.369
X354.499Y-93.369
T2
X44.133Y-102.394
X44.133Y-126.206
X44.133Y-145.256
X54.292Y-102.394
X54.292Y-126.206
X54.292Y-145.256
X67.945Y-102.394
X70.326Y-178.594
X72.707Y-121.444
X75.089Y-140.494
X78.105Y-102.394
X79.851Y-159.544
X80.486Y-178.594
X82.867Y-121.444
X85.249Y-140.494
X86.995Y-102.394
X90.011Y-159.544
X94.139Y-178.594
X96.52Y-121.444
X97.155Y-102.394
X101.282Y-140.494
X104.299Y-178.594
X106.045Y-102.394
X106.68Y-121.444
X110.807Y-159.544
X111.442Y-140.494
X115.57Y-121.444
X116.205Y-102.394
X120.332Y-140.494
X120.332Y-178.594
X120.968Y-159.544
X125.095Y-102.394
X125.73Y-121.444
X129.857Y-159.544
X130.493Y-140.494
X130.493Y-178.594
X134.62Y-121.444
X135.255Y-102.394
X139.382Y-140.494
X140.017Y-159.544
X144.145Y-102.394
X144.78Y-121.444
X148.907Y-159.544
X149.542Y-140.494
X153.67Y-121.444
X154.305Y-102.394
X158.433Y-140.494
X159.067Y-159.544
X163.195Y-102.394
X163.195Y-178.594
X163.83Y-121.444
X167.957Y-159.544
X168.593Y-140.494
X172.72Y-121.444
X173.355Y-102.394
X173.355Y-178.594
X177.482Y-140.494
X178.117Y-159.544
X182.245Y-102.394
X182.88Y-121.444
X187.007Y-159.544
X187.642Y-140.494
X191.77Y-121.444
X192.405Y-102.394
X196.532Y-140.494
X197.167Y-159.544
X201.295Y-102.394
X201.93Y-121.444
X206.058Y-159.544
X206.692Y-140.494
X210.82Y-121.444
X211.455Y-102.394
X215.582Y-140.494
X216.218Y-159.544
X220.345Y-102.394
X220.345Y-178.594
X220.98Y-121.444
X225.107Y-159.544
X225.742Y-140.494
X229.87Y-121.444
X230.505Y-102.394
X230.505Y-178.594
X234.632Y-140.494
X235.267Y-159.544
X239.395Y-102.394
X240.03Y-121.444
X244.157Y-159.544
X244.792Y-140.494
X248.92Y-121.444
X249.555Y-102.394
X253.682Y-140.494
X254.317Y-159.544
X258.445Y-102.394
X259.08Y-121.444
X263.207Y-159.544
X263.207Y-178.594
X263.842Y-140.494
X267.97Y-121.444
X268.605Y-102.394
X272.733Y-140.494
X273.368Y-159.544
X273.368Y-178.594
X277.495Y-102.394
X278.13Y-121.444
X282.257Y-159.544
X282.892Y-140.494
X287.02Y-121.444
X287.655Y-102.394
X289.401Y-178.594
X291.782Y-140.494
X292.417Y-159.544
X296.545Y-102.394
X297.18Y-121.444
X299.561Y-178.594
X301.942Y-140.494
X306.07Y-121.444
X306.705Y-102.394
X310.832Y-159.544
X315.595Y-102.394
X316.23Y-121.444
X320.357Y-178.594
X320.993Y-159.544
X322.739Y-140.494
X325.755Y-102.394
X329.882Y-121.444
X330.517Y-178.594
X332.899Y-140.494
X334.645Y-102.394
X339.407Y-159.544
X339.407Y-178.594
X340.042Y-121.444
X344.805Y-102.394
X349.567Y-159.544
X349.567Y-178.594
X358.457Y-102.394
X358.457Y-121.444
X358.457Y-178.594
X368.618Y-102.394
X368.618Y-121.444
X368.618Y-178.594
T3
X81.121Y-157.004
X87.471Y-154.464
X164.465Y-176.054
X170.815Y-173.514
X221.615Y-176.054
X227.965Y-173.514
X312.102Y-157.004
X318.452Y-154.464
X324.009Y-137.954
X330.359Y-135.414
T4
X49.212Y-102.394
X49.212Y-126.206
X49.212Y-145.256
X73.025Y-102.394
X75.406Y-178.594
X77.787Y-121.444
X80.169Y-140.494
X84.931Y-159.544
X92.075Y-102.394
X99.219Y-178.594
X101.6Y-121.444
X106.362Y-140.494
X111.125Y-102.394
X115.887Y-159.544
X120.65Y-121.444
X125.412Y-140.494
X125.412Y-178.594
X130.175Y-102.394
X134.938Y-159.544
X139.7Y-121.444
X144.463Y-140.494
X149.225Y-102.394
X153.987Y-159.544
X158.75Y-121.444
X163.512Y-140.494
X168.275Y-102.394
X168.275Y-178.594
X173.037Y-159.544
X177.8Y-121.444
X182.562Y-140.494
X187.325Y-102.394
X192.087Y-159.544
X196.85Y-121.444
X201.612Y-140.494
X206.375Y-102.394
X211.137Y-159.544
X215.9Y-121.444
X220.662Y-140.494
X225.425Y-102.394
X225.425Y-178.594
X230.188Y-159.544
X234.95Y-121.444
X239.712Y-140.494
X244.475Y-102.394
X249.237Y-159.544
X254.0Y-121.444
X258.762Y-140.494
X263.525Y-102.394
X268.287Y-159.544
X268.287Y-178.594
X273.05Y-121.444
X277.812Y-140.494
X282.575Y-102.394
X287.337Y-159.544
X292.1Y-121.444
X294.481Y-178.594
X296.863Y-140.494
X301.625Y-102.394
X311.15Y-121.444
X315.912Y-159.544
X320.675Y-102.394
X325.438Y-178.594
X327.819Y-140.494
X334.962Y-121.444
X339.725Y-102.394
X344.488Y-159.544
X344.488Y-178.594
X363.537Y-102.394
X363.537Y-121.444
X363.537Y-178.594
M30
