%TF.GenerationSoftware,KiCad,Pcbnew,9.0.5*%
%TF.CreationDate,2026-02-06T23:13:31+09:00*%
%TF.ProjectId,CL70_PCB,434c3730-5f50-4434-922e-6b696361645f,rev?*%
%TF.SameCoordinates,Original*%
%TF.FileFunction,Profile,NP*%
%FSLAX46Y46*%
G04 Gerber Fmt 4.6, Leading zero omitted, Abs format (unit mm)*
G04 Created by KiCad (PCBNEW 9.0.5) date 2026-02-06 23:13:31*
%MOMM*%
%LPD*%
G01*
G04 APERTURE LIST*
%TA.AperFunction,Profile*%
%ADD10C,0.100000*%
%TD*%
G04 APERTURE END LIST*
D10*
X347253200Y-88479450D02*
X355964448Y-88479450D01*
X43656250Y-94456250D02*
X344871950Y-94456250D01*
X371475000Y-163606250D02*
X371475000Y-184150000D01*
X356758138Y-89263415D02*
X356802829Y-92888321D01*
X346459450Y-89273200D02*
G75*
G02*
X347253200Y-88479450I793750J0D01*
G01*
X41275000Y-96837500D02*
G75*
G02*
X43656250Y-94456300I2381200J0D01*
G01*
X346459450Y-92868750D02*
G75*
G02*
X344871950Y-94456250I-1587450J-50D01*
G01*
X371475000Y-163606250D02*
G75*
G02*
X373062500Y-162018800I1587500J-50D01*
G01*
X369093750Y-186531250D02*
X43656250Y-186531250D01*
X355964448Y-88479450D02*
G75*
G02*
X356758190Y-89263414I52J-793750D01*
G01*
X369093750Y-94456250D02*
G75*
G02*
X371475050Y-96837500I50J-2381250D01*
G01*
X373062500Y-138018750D02*
G75*
G02*
X373062500Y-162018750I0J-12000000D01*
G01*
X41275000Y-184150000D02*
X41275000Y-96837500D01*
X358390208Y-94456250D02*
X369093750Y-94456250D01*
X371475000Y-96837500D02*
X371475000Y-136431250D01*
X43656250Y-186531250D02*
G75*
G02*
X41275050Y-184150000I50J2381250D01*
G01*
X371475000Y-184150000D02*
G75*
G02*
X369093750Y-186531200I-2381300J100D01*
G01*
X346459450Y-92868750D02*
X346459450Y-89273200D01*
X373062500Y-138018750D02*
G75*
G02*
X371475050Y-136431250I0J1587450D01*
G01*
X358390208Y-94456250D02*
G75*
G02*
X356802870Y-92888320I-8J1587450D01*
G01*
M02*
