%TF.GenerationSoftware,KiCad,Pcbnew,9.0.5*%
%TF.CreationDate,2026-02-06T23:13:31+09:00*%
%TF.ProjectId,CL70_PCB,434c3730-5f50-4434-922e-6b696361645f,rev?*%
%TF.SameCoordinates,Original*%
%TF.FileFunction,Paste,Bot*%
%TF.FilePolarity,Positive*%
%FSLAX46Y46*%
G04 Gerber Fmt 4.6, Leading zero omitted, Abs format (unit mm)*
G04 Created by KiCad (PCBNEW 9.0.5) date 2026-02-06 23:13:31*
%MOMM*%
%LPD*%
G01*
G04 APERTURE LIST*
G04 Aperture macros list*
%AMRoundRect*
0 Rectangle with rounded corners*
0 $1 Rounding radius*
0 $2 $3 $4 $5 $6 $7 $8 $9 X,Y pos of 4 corners*
0 Add a 4 corners polygon primitive as box body*
4,1,4,$2,$3,$4,$5,$6,$7,$8,$9,$2,$3,0*
0 Add four circle primitives for the rounded corners*
1,1,$1+$1,$2,$3*
1,1,$1+$1,$4,$5*
1,1,$1+$1,$6,$7*
1,1,$1+$1,$8,$9*
0 Add four rect primitives between the rounded corners*
20,1,$1+$1,$2,$3,$4,$5,0*
20,1,$1+$1,$4,$5,$6,$7,0*
20,1,$1+$1,$6,$7,$8,$9,0*
20,1,$1+$1,$8,$9,$2,$3,0*%
G04 Aperture macros list end*
%ADD10RoundRect,0.250000X-1.025000X-1.000000X1.025000X-1.000000X1.025000X1.000000X-1.025000X1.000000X0*%
%ADD11RoundRect,0.225000X0.375000X-0.225000X0.375000X0.225000X-0.375000X0.225000X-0.375000X-0.225000X0*%
%ADD12R,0.900000X0.800000*%
%ADD13R,1.000000X0.750000*%
%ADD14R,0.750000X1.000000*%
%ADD15R,1.800000X1.000000*%
%ADD16R,1.500000X1.700000*%
%ADD17R,0.800000X0.900000*%
%ADD18RoundRect,0.250000X0.625000X-0.375000X0.625000X0.375000X-0.625000X0.375000X-0.625000X-0.375000X0*%
%ADD19C,5.000000*%
%ADD20O,0.250000X1.000000*%
%ADD21O,1.000000X0.250000*%
%ADD22R,0.600000X1.450000*%
%ADD23R,0.300000X1.450000*%
%ADD24R,1.000000X1.200000*%
%ADD25R,1.000000X0.900000*%
%ADD26R,1.000000X1.800000*%
%ADD27R,1.800000X1.100000*%
G04 APERTURE END LIST*
D10*
%TO.C,S65*%
X218340000Y-176053750D03*
X231267000Y-173513750D03*
%TD*%
%TO.C,S47*%
X320733750Y-137953750D03*
X333660750Y-135413750D03*
%TD*%
%TO.C,S64*%
X161190000Y-176053750D03*
X174117000Y-173513750D03*
%TD*%
%TO.C,S48*%
X77846250Y-157003750D03*
X90773250Y-154463750D03*
%TD*%
%TO.C,S59*%
X308827500Y-157003750D03*
X321754500Y-154463750D03*
%TD*%
D11*
%TO.C,D40*%
X190500000Y-142875000D03*
X190500000Y-139575000D03*
%TD*%
D12*
%TO.C,RC6*%
X347900000Y-100800000D03*
X347900000Y-99000000D03*
%TD*%
D11*
%TO.C,D56*%
X257175000Y-161925000D03*
X257175000Y-158625000D03*
%TD*%
D13*
%TO.C,C3*%
X362100000Y-141850000D03*
X363800000Y-141850000D03*
%TD*%
D11*
%TO.C,D27*%
X242887500Y-123825000D03*
X242887500Y-120525000D03*
%TD*%
%TO.C,D23*%
X166687500Y-123825000D03*
X166687500Y-120525000D03*
%TD*%
D14*
%TO.C,CRGB17*%
X291881250Y-169056250D03*
X291881250Y-170756250D03*
%TD*%
D11*
%TO.C,D54*%
X219075000Y-161925000D03*
X219075000Y-158625000D03*
%TD*%
D15*
%TO.C,RGB16*%
X252412500Y-169043750D03*
X252412500Y-172243750D03*
X247212500Y-172243750D03*
X247212500Y-169043750D03*
%TD*%
D11*
%TO.C,D48*%
X92868750Y-161925000D03*
X92868750Y-158625000D03*
%TD*%
%TO.C,D29*%
X280987500Y-123825000D03*
X280987500Y-120525000D03*
%TD*%
D14*
%TO.C,CRGB7*%
X128943750Y-110718750D03*
X128943750Y-109018750D03*
%TD*%
D11*
%TO.C,D1*%
X57150000Y-104775000D03*
X57150000Y-101475000D03*
%TD*%
%TO.C,D19*%
X85725000Y-123825000D03*
X85725000Y-120525000D03*
%TD*%
D13*
%TO.C,C10*%
X366600000Y-164306250D03*
X368300000Y-164306250D03*
%TD*%
D15*
%TO.C,RGB13*%
X124043750Y-169056250D03*
X124043750Y-172256250D03*
X118843750Y-172256250D03*
X118843750Y-169056250D03*
%TD*%
D14*
%TO.C,CRGB14*%
X160337500Y-168250000D03*
X160337500Y-169950000D03*
%TD*%
D16*
%TO.C,Y1*%
X357400000Y-142000000D03*
X357400000Y-139500000D03*
X359400000Y-139500000D03*
X359400000Y-142000000D03*
%TD*%
D15*
%TO.C,RGB17*%
X289718750Y-169043750D03*
X289718750Y-172243750D03*
X284518750Y-172243750D03*
X284518750Y-169043750D03*
%TD*%
D11*
%TO.C,D17*%
X367506250Y-107950000D03*
X367506250Y-104650000D03*
%TD*%
D17*
%TO.C,RC4*%
X346400000Y-146600000D03*
X344600000Y-146600000D03*
%TD*%
D11*
%TO.C,D70*%
X367506250Y-184150000D03*
X367506250Y-180850000D03*
%TD*%
%TO.C,D12*%
X271462500Y-104775000D03*
X271462500Y-101475000D03*
%TD*%
D15*
%TO.C,RGB5*%
X203775000Y-111137500D03*
X203775000Y-107937500D03*
X208975000Y-107937500D03*
X208975000Y-111137500D03*
%TD*%
D11*
%TO.C,D5*%
X138112500Y-104775000D03*
X138112500Y-101475000D03*
%TD*%
%TO.C,D44*%
X266700000Y-142875000D03*
X266700000Y-139575000D03*
%TD*%
%TO.C,D39*%
X171450000Y-142875000D03*
X171450000Y-139575000D03*
%TD*%
%TO.C,D3*%
X100012500Y-104775000D03*
X100012500Y-101475000D03*
%TD*%
%TO.C,D20*%
X109537500Y-123825000D03*
X109537500Y-120525000D03*
%TD*%
%TO.C,D59*%
X323850000Y-161925000D03*
X323850000Y-158625000D03*
%TD*%
D14*
%TO.C,CRGB13*%
X126206250Y-169068750D03*
X126206250Y-170768750D03*
%TD*%
D15*
%TO.C,RGB6*%
X159106250Y-111125000D03*
X159106250Y-107925000D03*
X164306250Y-107925000D03*
X164306250Y-111125000D03*
%TD*%
D11*
%TO.C,D61*%
X83343750Y-180975000D03*
X83343750Y-177675000D03*
%TD*%
D14*
%TO.C,CRGB16*%
X254356250Y-169750000D03*
X254356250Y-171450000D03*
%TD*%
D11*
%TO.C,D14*%
X309562500Y-104775000D03*
X309562500Y-101475000D03*
%TD*%
%TO.C,D16*%
X343693750Y-107950000D03*
X343693750Y-104650000D03*
%TD*%
D17*
%TO.C,RC8*%
X366500000Y-165893750D03*
X368300000Y-165893750D03*
%TD*%
D11*
%TO.C,D31*%
X319087500Y-123825000D03*
X319087500Y-120525000D03*
%TD*%
D15*
%TO.C,RGB9*%
X51950000Y-111125000D03*
X51950000Y-107925000D03*
X57150000Y-107925000D03*
X57150000Y-111125000D03*
%TD*%
D11*
%TO.C,D4*%
X119062500Y-104775000D03*
X119062500Y-101475000D03*
%TD*%
D15*
%TO.C,RGB10*%
X51593750Y-133325000D03*
X51593750Y-136525000D03*
X46393750Y-136525000D03*
X46393750Y-133325000D03*
%TD*%
D11*
%TO.C,D71*%
X367506250Y-146843750D03*
X367506250Y-143543750D03*
%TD*%
D15*
%TO.C,RGB12*%
X91281250Y-169068750D03*
X91281250Y-172268750D03*
X86081250Y-172268750D03*
X86081250Y-169068750D03*
%TD*%
D14*
%TO.C,CRGB8*%
X92431250Y-110325000D03*
X92431250Y-108625000D03*
%TD*%
D11*
%TO.C,D15*%
X328612500Y-104775000D03*
X328612500Y-101475000D03*
%TD*%
D18*
%TO.C,F1*%
X349300000Y-106200000D03*
X349300000Y-103400000D03*
%TD*%
D11*
%TO.C,D33*%
X367506250Y-127000000D03*
X367506250Y-123700000D03*
%TD*%
%TO.C,D63*%
X133350000Y-180975000D03*
X133350000Y-177675000D03*
%TD*%
%TO.C,D13*%
X290512500Y-104775000D03*
X290512500Y-101475000D03*
%TD*%
%TO.C,D62*%
X107156250Y-180975000D03*
X107156250Y-177675000D03*
%TD*%
%TO.C,D43*%
X247650000Y-142875000D03*
X247650000Y-139575000D03*
%TD*%
%TO.C,D64*%
X176212500Y-180975000D03*
X176212500Y-177675000D03*
%TD*%
%TO.C,D2*%
X80168750Y-104775000D03*
X80168750Y-101475000D03*
%TD*%
%TO.C,D58*%
X295275000Y-161925000D03*
X295275000Y-158625000D03*
%TD*%
%TO.C,D65*%
X233362500Y-180975000D03*
X233362500Y-177675000D03*
%TD*%
D19*
%TO.C,U1*%
X350300000Y-140200000D03*
D20*
X347800000Y-136800000D03*
X348300000Y-136800000D03*
X348800000Y-136800000D03*
X349300000Y-136800000D03*
X349800000Y-136800000D03*
X350300000Y-136800000D03*
X350800000Y-136800000D03*
X351300000Y-136800000D03*
X351800000Y-136800000D03*
X352300000Y-136800000D03*
X352800000Y-136800000D03*
D21*
X353700000Y-137700000D03*
X353700000Y-138200000D03*
X353700000Y-138700000D03*
X353700000Y-139200000D03*
X353700000Y-139700000D03*
X353700000Y-140200000D03*
X353700000Y-140700000D03*
X353700000Y-141200000D03*
X353700000Y-141700000D03*
X353700000Y-142200000D03*
X353700000Y-142700000D03*
D20*
X352800000Y-143600000D03*
X352300000Y-143600000D03*
X351800000Y-143600000D03*
X351300000Y-143600000D03*
X350800000Y-143600000D03*
X350300000Y-143600000D03*
X349800000Y-143600000D03*
X349300000Y-143600000D03*
X348800000Y-143600000D03*
X348300000Y-143600000D03*
X347800000Y-143600000D03*
D21*
X346900000Y-142700000D03*
X346900000Y-142200000D03*
X346900000Y-141700000D03*
X346900000Y-141200000D03*
X346900000Y-140700000D03*
X346900000Y-140200000D03*
X346900000Y-139700000D03*
X346900000Y-139200000D03*
X346900000Y-138700000D03*
X346900000Y-138200000D03*
X346900000Y-137700000D03*
%TD*%
D11*
%TO.C,D22*%
X147637500Y-123825000D03*
X147637500Y-120525000D03*
%TD*%
%TO.C,D6*%
X157162500Y-104775000D03*
X157162500Y-101475000D03*
%TD*%
D22*
%TO.C,USB1*%
X348383824Y-94813750D03*
X349158824Y-94813750D03*
D23*
X349858824Y-94813750D03*
X350358824Y-94813750D03*
X350858824Y-94813750D03*
X351358824Y-94813750D03*
X351858824Y-94813750D03*
X352358824Y-94813750D03*
X352858824Y-94813750D03*
X353358824Y-94813750D03*
D22*
X354058824Y-94813750D03*
X354833824Y-94813750D03*
%TD*%
D11*
%TO.C,D37*%
X133350000Y-142875000D03*
X133350000Y-139575000D03*
%TD*%
%TO.C,D49*%
X123825000Y-161925000D03*
X123825000Y-158625000D03*
%TD*%
%TO.C,D9*%
X214312500Y-104775000D03*
X214312500Y-101475000D03*
%TD*%
D15*
%TO.C,RGB4*%
X248006250Y-111125000D03*
X248006250Y-107925000D03*
X253206250Y-107925000D03*
X253206250Y-111125000D03*
%TD*%
D11*
%TO.C,D42*%
X228600000Y-142875000D03*
X228600000Y-139575000D03*
%TD*%
D24*
%TO.C,U2*%
X352900000Y-99100000D03*
D25*
X352900000Y-100800000D03*
X350600000Y-100800000D03*
X350600000Y-98900000D03*
%TD*%
D14*
%TO.C,CRGB11*%
X61912500Y-167481250D03*
X61912500Y-169181250D03*
%TD*%
D11*
%TO.C,D46*%
X304800000Y-142875000D03*
X304800000Y-139575000D03*
%TD*%
D15*
%TO.C,RGB1*%
X355956250Y-111918750D03*
X355956250Y-108718750D03*
X361156250Y-108718750D03*
X361156250Y-111918750D03*
%TD*%
D26*
%TO.C,RGB20*%
X371462500Y-147418750D03*
X374662500Y-147418750D03*
X374662500Y-152618750D03*
X371462500Y-152618750D03*
%TD*%
D14*
%TO.C,CRGB12*%
X93662500Y-169750000D03*
X93662500Y-171450000D03*
%TD*%
D12*
%TO.C,RC1*%
X348620000Y-130900000D03*
X348620000Y-129100000D03*
%TD*%
D11*
%TO.C,D11*%
X252412500Y-104775000D03*
X252412500Y-101475000D03*
%TD*%
D15*
%TO.C,RGB14*%
X157956250Y-169043750D03*
X157956250Y-172243750D03*
X152756250Y-172243750D03*
X152756250Y-169043750D03*
%TD*%
D11*
%TO.C,D21*%
X128587500Y-123825000D03*
X128587500Y-120525000D03*
%TD*%
D13*
%TO.C,C2*%
X352600000Y-132900000D03*
X350900000Y-132900000D03*
%TD*%
D17*
%TO.C,RLED1*%
X57731250Y-174625000D03*
X59531250Y-174625000D03*
%TD*%
D13*
%TO.C,C9*%
X366600000Y-162718750D03*
X368300000Y-162718750D03*
%TD*%
D11*
%TO.C,D57*%
X276225000Y-161925000D03*
X276225000Y-158625000D03*
%TD*%
%TO.C,D34*%
X57150000Y-147637500D03*
X57150000Y-144337500D03*
%TD*%
D15*
%TO.C,RGB7*%
X121006250Y-111125000D03*
X121006250Y-107925000D03*
X126206250Y-107925000D03*
X126206250Y-111125000D03*
%TD*%
D11*
%TO.C,D67*%
X302418750Y-180975000D03*
X302418750Y-177675000D03*
%TD*%
D15*
%TO.C,RGB2*%
X323412500Y-111125000D03*
X323412500Y-107925000D03*
X328612500Y-107925000D03*
X328612500Y-111125000D03*
%TD*%
D11*
%TO.C,D18*%
X57150000Y-128587500D03*
X57150000Y-125287500D03*
%TD*%
%TO.C,D32*%
X342900000Y-123825000D03*
X342900000Y-120525000D03*
%TD*%
%TO.C,D50*%
X142875000Y-161925000D03*
X142875000Y-158625000D03*
%TD*%
D14*
%TO.C,CRGB18*%
X325218750Y-169056250D03*
X325218750Y-170756250D03*
%TD*%
D15*
%TO.C,RGB8*%
X84493750Y-111125000D03*
X84493750Y-107925000D03*
X89693750Y-107925000D03*
X89693750Y-111125000D03*
%TD*%
D11*
%TO.C,D52*%
X180975000Y-161925000D03*
X180975000Y-158625000D03*
%TD*%
D17*
%TO.C,RLED2*%
X57731250Y-177800000D03*
X59531250Y-177800000D03*
%TD*%
D14*
%TO.C,CRGB15*%
X207931250Y-169781250D03*
X207931250Y-171481250D03*
%TD*%
D12*
%TO.C,RC7*%
X355400000Y-100800000D03*
X355400000Y-99000000D03*
%TD*%
D11*
%TO.C,D24*%
X185737500Y-123825000D03*
X185737500Y-120525000D03*
%TD*%
%TO.C,D51*%
X161925000Y-161925000D03*
X161925000Y-158625000D03*
%TD*%
D14*
%TO.C,CRGB3*%
X294262500Y-110318750D03*
X294262500Y-108618750D03*
%TD*%
%TO.C,CRGB2*%
X330775000Y-110318750D03*
X330775000Y-108618750D03*
%TD*%
D11*
%TO.C,D26*%
X223837500Y-123825000D03*
X223837500Y-120525000D03*
%TD*%
D27*
%TO.C,SW1*%
X366600000Y-130200000D03*
X360400000Y-133900000D03*
X366600000Y-133900000D03*
X360400000Y-130200000D03*
%TD*%
D11*
%TO.C,D45*%
X285750000Y-142875000D03*
X285750000Y-139575000D03*
%TD*%
%TO.C,D28*%
X261937500Y-123825000D03*
X261937500Y-120525000D03*
%TD*%
%TO.C,D35*%
X88106250Y-142875000D03*
X88106250Y-139575000D03*
%TD*%
%TO.C,D68*%
X329406250Y-184150000D03*
X329406250Y-180850000D03*
%TD*%
D17*
%TO.C,RC3*%
X356600000Y-133500000D03*
X358400000Y-133500000D03*
%TD*%
D15*
%TO.C,RGB3*%
X286900000Y-111125000D03*
X286900000Y-107925000D03*
X292100000Y-107925000D03*
X292100000Y-111125000D03*
%TD*%
%TO.C,RGB19*%
X359568750Y-169043750D03*
X359568750Y-172243750D03*
X354368750Y-172243750D03*
X354368750Y-169043750D03*
%TD*%
D14*
%TO.C,CRGB10*%
X53756250Y-134018750D03*
X53756250Y-135718750D03*
%TD*%
D15*
%TO.C,RGB11*%
X59750000Y-166787500D03*
X59750000Y-169987500D03*
X54550000Y-169987500D03*
X54550000Y-166787500D03*
%TD*%
D11*
%TO.C,D8*%
X195262500Y-104775000D03*
X195262500Y-101475000D03*
%TD*%
D14*
%TO.C,CRGB1*%
X363537500Y-111125000D03*
X363537500Y-109425000D03*
%TD*%
D13*
%TO.C,C4*%
X362100000Y-139500000D03*
X363800000Y-139500000D03*
%TD*%
D14*
%TO.C,CRGB19*%
X362306250Y-169068750D03*
X362306250Y-170768750D03*
%TD*%
D11*
%TO.C,D69*%
X348456250Y-184150000D03*
X348456250Y-180850000D03*
%TD*%
D13*
%TO.C,C7*%
X355000000Y-145800000D03*
X353300000Y-145800000D03*
%TD*%
D11*
%TO.C,D66*%
X276225000Y-180975000D03*
X276225000Y-177675000D03*
%TD*%
D13*
%TO.C,CRGB20*%
X372156250Y-154781250D03*
X373856250Y-154781250D03*
%TD*%
%TO.C,C8*%
X358500000Y-135600000D03*
X356800000Y-135600000D03*
%TD*%
D14*
%TO.C,CRGB4*%
X255368750Y-110318750D03*
X255368750Y-108618750D03*
%TD*%
D17*
%TO.C,RC9*%
X366500000Y-161131250D03*
X368300000Y-161131250D03*
%TD*%
D14*
%TO.C,CRGB6*%
X166687500Y-110318750D03*
X166687500Y-108618750D03*
%TD*%
%TO.C,C5*%
X346900000Y-132800000D03*
X346900000Y-134500000D03*
%TD*%
%TO.C,CRGB5*%
X211931250Y-110331250D03*
X211931250Y-108631250D03*
%TD*%
D15*
%TO.C,RGB15*%
X205581250Y-169043750D03*
X205581250Y-172243750D03*
X200381250Y-172243750D03*
X200381250Y-169043750D03*
%TD*%
D14*
%TO.C,C6*%
X344700000Y-142700000D03*
X344700000Y-144400000D03*
%TD*%
D12*
%TO.C,RC2*%
X350600000Y-129100000D03*
X350600000Y-130900000D03*
%TD*%
D11*
%TO.C,D7*%
X176212500Y-104775000D03*
X176212500Y-101475000D03*
%TD*%
D17*
%TO.C,RLED3*%
X57731250Y-180975000D03*
X59531250Y-180975000D03*
%TD*%
D11*
%TO.C,D38*%
X152400000Y-142875000D03*
X152400000Y-139575000D03*
%TD*%
%TO.C,D55*%
X238125000Y-161925000D03*
X238125000Y-158625000D03*
%TD*%
%TO.C,D53*%
X200025000Y-161925000D03*
X200025000Y-158625000D03*
%TD*%
%TO.C,D30*%
X300037500Y-123825000D03*
X300037500Y-120525000D03*
%TD*%
%TO.C,D47*%
X335756250Y-142875000D03*
X335756250Y-139575000D03*
%TD*%
D14*
%TO.C,CRGB9*%
X59531250Y-110331250D03*
X59531250Y-108631250D03*
%TD*%
D11*
%TO.C,D41*%
X209550000Y-142875000D03*
X209550000Y-139575000D03*
%TD*%
%TO.C,D36*%
X114300000Y-142875000D03*
X114300000Y-139575000D03*
%TD*%
%TO.C,D10*%
X233362500Y-104775000D03*
X233362500Y-101475000D03*
%TD*%
%TO.C,D25*%
X204787500Y-123825000D03*
X204787500Y-120525000D03*
%TD*%
D15*
%TO.C,RGB18*%
X323056250Y-169043750D03*
X323056250Y-172243750D03*
X317856250Y-172243750D03*
X317856250Y-169043750D03*
%TD*%
D11*
%TO.C,D60*%
X348456250Y-165100000D03*
X348456250Y-161800000D03*
%TD*%
M02*
