%TF.GenerationSoftware,KiCad,Pcbnew,9.0.5*%
%TF.CreationDate,2026-02-06T23:13:31+09:00*%
%TF.ProjectId,CL70_PCB,434c3730-5f50-4434-922e-6b696361645f,rev?*%
%TF.SameCoordinates,Original*%
%TF.FileFunction,Soldermask,Bot*%
%TF.FilePolarity,Negative*%
%FSLAX46Y46*%
G04 Gerber Fmt 4.6, Leading zero omitted, Abs format (unit mm)*
G04 Created by KiCad (PCBNEW 9.0.5) date 2026-02-06 23:13:31*
%MOMM*%
%LPD*%
G01*
G04 APERTURE LIST*
G04 Aperture macros list*
%AMRoundRect*
0 Rectangle with rounded corners*
0 $1 Rounding radius*
0 $2 $3 $4 $5 $6 $7 $8 $9 X,Y pos of 4 corners*
0 Add a 4 corners polygon primitive as box body*
4,1,4,$2,$3,$4,$5,$6,$7,$8,$9,$2,$3,0*
0 Add four circle primitives for the rounded corners*
1,1,$1+$1,$2,$3*
1,1,$1+$1,$4,$5*
1,1,$1+$1,$6,$7*
1,1,$1+$1,$8,$9*
0 Add four rect primitives between the rounded corners*
20,1,$1+$1,$2,$3,$4,$5,0*
20,1,$1+$1,$4,$5,$6,$7,0*
20,1,$1+$1,$6,$7,$8,$9,0*
20,1,$1+$1,$8,$9,$2,$3,0*%
G04 Aperture macros list end*
%ADD10C,0.000000*%
%ADD11C,1.750000*%
%ADD12C,4.000000*%
%ADD13C,2.500000*%
%ADD14R,1.800000X1.800000*%
%ADD15C,1.800000*%
%ADD16R,2.000000X2.000000*%
%ADD17C,2.000000*%
%ADD18R,2.000000X3.200000*%
%ADD19C,3.050000*%
%ADD20RoundRect,0.250000X-1.025000X-1.000000X1.025000X-1.000000X1.025000X1.000000X-1.025000X1.000000X0*%
%ADD21RoundRect,0.225000X0.375000X-0.225000X0.375000X0.225000X-0.375000X0.225000X-0.375000X-0.225000X0*%
%ADD22R,0.900000X0.800000*%
%ADD23R,1.000000X0.750000*%
%ADD24R,0.750000X1.000000*%
%ADD25R,1.800000X1.000000*%
%ADD26R,1.500000X1.700000*%
%ADD27R,0.800000X0.900000*%
%ADD28RoundRect,0.250000X0.625000X-0.375000X0.625000X0.375000X-0.625000X0.375000X-0.625000X-0.375000X0*%
%ADD29C,5.000000*%
%ADD30O,0.250000X1.000000*%
%ADD31O,1.000000X0.250000*%
%ADD32C,0.650000*%
%ADD33R,0.600000X1.450000*%
%ADD34R,0.300000X1.450000*%
%ADD35O,1.000000X1.600000*%
%ADD36O,1.000000X2.100000*%
%ADD37R,1.000000X1.200000*%
%ADD38R,1.000000X0.900000*%
%ADD39R,1.000000X1.800000*%
%ADD40R,1.800000X1.100000*%
G04 APERTURE END LIST*
D10*
%TO.C,G\u002A\u002A\u002A*%
G36*
X315521191Y-146405861D02*
G01*
X315521191Y-146967245D01*
X315388703Y-146967245D01*
X315256214Y-146967245D01*
X315259497Y-146409453D01*
X315262779Y-145851662D01*
X315391985Y-145848069D01*
X315521191Y-145844477D01*
X315521191Y-146405861D01*
G37*
G36*
X317222928Y-146223523D02*
G01*
X317222928Y-146967245D01*
X317090571Y-146967245D01*
X316958214Y-146967245D01*
X316958214Y-146223523D01*
X316958214Y-145479801D01*
X317090571Y-145479801D01*
X317222928Y-145479801D01*
X317222928Y-146223523D01*
G37*
G36*
X327609827Y-146405861D02*
G01*
X327609827Y-146967245D01*
X327477338Y-146967245D01*
X327344850Y-146967245D01*
X327348132Y-146409453D01*
X327351415Y-145851662D01*
X327480621Y-145848069D01*
X327609827Y-145844477D01*
X327609827Y-146405861D01*
G37*
G36*
X315414848Y-145411399D02*
G01*
X315462153Y-145427436D01*
X315501919Y-145457812D01*
X315529320Y-145501838D01*
X315539527Y-145558824D01*
X315536285Y-145592045D01*
X315522462Y-145620083D01*
X315492728Y-145651205D01*
X315466140Y-145673237D01*
X315433028Y-145689725D01*
X315394115Y-145694093D01*
X315339646Y-145686082D01*
X315289591Y-145660405D01*
X315254487Y-145620922D01*
X315237732Y-145571619D01*
X315242723Y-145516480D01*
X315246814Y-145504413D01*
X315275989Y-145456208D01*
X315316938Y-145425096D01*
X315364834Y-145410389D01*
X315414848Y-145411399D01*
G37*
G36*
X327503483Y-145411399D02*
G01*
X327550788Y-145427436D01*
X327590555Y-145457812D01*
X327617955Y-145501838D01*
X327628162Y-145558824D01*
X327624921Y-145592045D01*
X327611098Y-145620083D01*
X327581363Y-145651205D01*
X327554775Y-145673237D01*
X327521663Y-145689725D01*
X327482751Y-145694093D01*
X327428281Y-145686082D01*
X327378226Y-145660405D01*
X327343122Y-145620922D01*
X327326367Y-145571619D01*
X327331358Y-145516480D01*
X327335449Y-145504413D01*
X327364624Y-145456208D01*
X327405573Y-145425096D01*
X327453469Y-145410389D01*
X327503483Y-145411399D01*
G37*
G36*
X314421682Y-145840491D02*
G01*
X314520526Y-145853246D01*
X314605012Y-145885068D01*
X314673668Y-145935211D01*
X314725021Y-146002927D01*
X314745956Y-146040744D01*
X314752258Y-145946203D01*
X314758561Y-145851662D01*
X314881464Y-145848054D01*
X315004368Y-145844446D01*
X315004368Y-146405845D01*
X315004368Y-146967245D01*
X314872010Y-146967245D01*
X314739653Y-146967245D01*
X314739583Y-146617443D01*
X314739478Y-146568686D01*
X314738494Y-146462202D01*
X314736541Y-146371523D01*
X314733699Y-146298999D01*
X314730051Y-146246978D01*
X314725678Y-146217811D01*
X314711690Y-146182370D01*
X314672808Y-146130721D01*
X314619807Y-146092376D01*
X314558042Y-146069034D01*
X314492866Y-146062396D01*
X314429634Y-146074163D01*
X314373702Y-146106036D01*
X314355475Y-146121726D01*
X314337100Y-146139969D01*
X314322657Y-146159843D01*
X314311627Y-146184297D01*
X314303490Y-146216277D01*
X314297728Y-146258732D01*
X314293820Y-146314607D01*
X314291248Y-146386851D01*
X314289492Y-146478410D01*
X314288033Y-146592232D01*
X314283615Y-146967245D01*
X314152378Y-146967245D01*
X314021142Y-146967245D01*
X314021237Y-146604838D01*
X314021733Y-146479620D01*
X314023397Y-146370460D01*
X314026469Y-146281097D01*
X314031193Y-146208770D01*
X314037814Y-146150718D01*
X314046573Y-146104180D01*
X314057715Y-146066395D01*
X314071482Y-146034602D01*
X314091247Y-145999632D01*
X314148392Y-145929149D01*
X314218906Y-145879518D01*
X314303876Y-145850103D01*
X314404390Y-145840270D01*
X314421682Y-145840491D01*
G37*
G36*
X325262377Y-145840491D02*
G01*
X325361221Y-145853246D01*
X325445707Y-145885068D01*
X325514362Y-145935211D01*
X325565716Y-146002927D01*
X325586650Y-146040744D01*
X325592953Y-145946203D01*
X325599256Y-145851662D01*
X325722159Y-145848054D01*
X325845062Y-145844446D01*
X325845062Y-146405845D01*
X325845062Y-146967245D01*
X325712705Y-146967245D01*
X325580348Y-146967245D01*
X325580277Y-146617443D01*
X325580173Y-146568686D01*
X325579189Y-146462202D01*
X325577235Y-146371523D01*
X325574394Y-146298999D01*
X325570745Y-146246978D01*
X325566373Y-146217811D01*
X325552384Y-146182370D01*
X325513503Y-146130721D01*
X325460502Y-146092376D01*
X325398737Y-146069034D01*
X325333561Y-146062396D01*
X325270329Y-146074163D01*
X325214397Y-146106036D01*
X325196170Y-146121726D01*
X325177795Y-146139969D01*
X325163352Y-146159843D01*
X325152322Y-146184297D01*
X325144185Y-146216277D01*
X325138423Y-146258732D01*
X325134515Y-146314607D01*
X325131943Y-146386851D01*
X325130187Y-146478410D01*
X325128728Y-146592232D01*
X325124310Y-146967245D01*
X324993073Y-146967245D01*
X324861837Y-146967245D01*
X324861932Y-146604838D01*
X324862428Y-146479620D01*
X324864091Y-146370460D01*
X324867164Y-146281097D01*
X324871888Y-146208770D01*
X324878509Y-146150718D01*
X324887268Y-146104180D01*
X324898409Y-146066395D01*
X324912176Y-146034602D01*
X324931941Y-145999632D01*
X324989087Y-145929149D01*
X325059601Y-145879518D01*
X325144571Y-145850103D01*
X325245085Y-145840270D01*
X325262377Y-145840491D01*
G37*
G36*
X331353648Y-146967245D02*
G01*
X331047966Y-146967026D01*
X331030398Y-146967002D01*
X330917008Y-146966139D01*
X330825542Y-146963963D01*
X330753135Y-146960340D01*
X330696924Y-146955130D01*
X330654045Y-146948199D01*
X330579053Y-146928314D01*
X330464254Y-146878964D01*
X330365336Y-146810668D01*
X330282931Y-146724315D01*
X330217675Y-146620792D01*
X330170201Y-146500988D01*
X330141144Y-146365789D01*
X330131634Y-146223523D01*
X330402728Y-146223523D01*
X330403345Y-146260086D01*
X330416356Y-146383430D01*
X330446284Y-146488130D01*
X330493163Y-146574254D01*
X330557030Y-146641871D01*
X330637917Y-146691051D01*
X330658996Y-146699906D01*
X330687765Y-146709260D01*
X330720645Y-146715787D01*
X330762911Y-146720187D01*
X330819837Y-146723160D01*
X330896700Y-146725408D01*
X331088933Y-146730004D01*
X331088933Y-146223523D01*
X331088933Y-145717042D01*
X330896700Y-145721638D01*
X330839241Y-145723209D01*
X330777233Y-145725907D01*
X330731371Y-145729835D01*
X330696382Y-145735692D01*
X330666989Y-145744178D01*
X330637917Y-145755995D01*
X330614364Y-145767478D01*
X330538083Y-145821636D01*
X330478813Y-145894251D01*
X330436520Y-145985391D01*
X330411170Y-146095125D01*
X330402728Y-146223523D01*
X330131634Y-146223523D01*
X330131137Y-146216085D01*
X330134030Y-146135750D01*
X330154844Y-145997706D01*
X330194972Y-145873304D01*
X330253521Y-145763771D01*
X330329596Y-145670333D01*
X330422305Y-145594216D01*
X330530752Y-145536645D01*
X330654045Y-145498846D01*
X330659286Y-145497780D01*
X330703839Y-145491095D01*
X330762119Y-145486113D01*
X330836990Y-145482698D01*
X330931318Y-145480712D01*
X331047966Y-145480019D01*
X331353648Y-145479801D01*
X331353648Y-146223523D01*
X331353648Y-146967245D01*
G37*
G36*
X323467044Y-146509973D02*
G01*
X323445028Y-146624892D01*
X323406648Y-146730696D01*
X323351986Y-146822282D01*
X323319670Y-146858860D01*
X323256636Y-146911329D01*
X323186071Y-146953116D01*
X323117111Y-146978158D01*
X323043762Y-146989445D01*
X322947042Y-146985793D01*
X322860090Y-146959010D01*
X322783292Y-146909234D01*
X322717032Y-146836599D01*
X322681092Y-146786986D01*
X322681092Y-146877115D01*
X322681092Y-146967245D01*
X322548735Y-146967245D01*
X322416377Y-146967245D01*
X322416377Y-146412320D01*
X322681092Y-146412320D01*
X322684926Y-146484264D01*
X322703461Y-146576360D01*
X322736399Y-146652598D01*
X322782672Y-146710734D01*
X322841210Y-146748527D01*
X322867128Y-146756715D01*
X322926705Y-146764192D01*
X322989062Y-146761161D01*
X323041327Y-146747678D01*
X323071156Y-146729789D01*
X323115352Y-146686875D01*
X323153375Y-146631460D01*
X323179370Y-146571036D01*
X323184713Y-146550143D01*
X323194748Y-146478365D01*
X323197032Y-146397300D01*
X323191594Y-146317832D01*
X323178467Y-146250844D01*
X323173318Y-146235316D01*
X323140939Y-146171123D01*
X323096226Y-146115960D01*
X323045405Y-146077916D01*
X323027540Y-146071243D01*
X322985558Y-146062909D01*
X322938695Y-146059652D01*
X322868627Y-146068275D01*
X322802631Y-146097915D01*
X322750311Y-146147919D01*
X322712235Y-146217506D01*
X322688973Y-146305900D01*
X322681092Y-146412320D01*
X322416377Y-146412320D01*
X322416377Y-146223523D01*
X322416377Y-145479801D01*
X322548735Y-145479801D01*
X322681092Y-145479801D01*
X322681092Y-145759012D01*
X322681092Y-146038223D01*
X322717032Y-145988610D01*
X322720881Y-145983351D01*
X322780071Y-145916539D01*
X322844378Y-145872160D01*
X322918924Y-145847607D01*
X323008834Y-145840277D01*
X323018120Y-145840387D01*
X323123731Y-145853247D01*
X323216343Y-145887627D01*
X323296620Y-145943865D01*
X323365222Y-146022300D01*
X323389760Y-146061189D01*
X323434051Y-146161546D01*
X323461639Y-146273198D01*
X323472609Y-146391040D01*
X323472316Y-146397300D01*
X323467044Y-146509973D01*
G37*
G36*
X320354087Y-145845371D02*
G01*
X320409956Y-145845896D01*
X320445607Y-145847688D01*
X320465124Y-145851423D01*
X320472589Y-145857775D01*
X320472084Y-145867418D01*
X320467710Y-145880619D01*
X320455523Y-145915735D01*
X320436478Y-145969948D01*
X320411444Y-146040802D01*
X320381292Y-146125841D01*
X320346890Y-146222610D01*
X320309108Y-146328655D01*
X320268814Y-146441520D01*
X320071537Y-146993562D01*
X320098612Y-147056499D01*
X320105162Y-147071197D01*
X320133335Y-147119978D01*
X320166855Y-147149851D01*
X320212025Y-147164831D01*
X320275149Y-147168932D01*
X320361688Y-147168932D01*
X320361688Y-147276079D01*
X320361688Y-147383225D01*
X320251390Y-147383155D01*
X320226149Y-147382959D01*
X320152778Y-147379070D01*
X320095077Y-147368903D01*
X320045908Y-147350762D01*
X319998136Y-147322950D01*
X319978097Y-147308961D01*
X319957719Y-147292620D01*
X319938717Y-147273739D01*
X319920202Y-147250389D01*
X319901286Y-147220639D01*
X319881081Y-147182559D01*
X319858698Y-147134218D01*
X319833249Y-147073687D01*
X319803847Y-146999034D01*
X319769602Y-146908331D01*
X319729627Y-146799646D01*
X319683033Y-146671049D01*
X319628933Y-146520611D01*
X319600889Y-146442227D01*
X319558905Y-146323858D01*
X319520364Y-146213964D01*
X319486004Y-146114721D01*
X319456563Y-146028301D01*
X319432779Y-145956880D01*
X319415391Y-145902632D01*
X319405136Y-145867730D01*
X319402752Y-145854349D01*
X319411477Y-145851557D01*
X319441449Y-145848706D01*
X319486803Y-145847448D01*
X319541762Y-145848047D01*
X319671361Y-145851662D01*
X319797088Y-146261339D01*
X319819867Y-146335248D01*
X319848403Y-146426899D01*
X319874198Y-146508705D01*
X319896337Y-146577812D01*
X319913901Y-146631362D01*
X319925975Y-146666500D01*
X319931641Y-146680371D01*
X319935857Y-146675007D01*
X319946718Y-146648975D01*
X319962794Y-146604385D01*
X319983009Y-146544355D01*
X320006290Y-146472002D01*
X320031561Y-146390446D01*
X320045830Y-146343596D01*
X320073786Y-146251956D01*
X320100879Y-146163325D01*
X320125493Y-146082979D01*
X320146012Y-146016199D01*
X320160820Y-145968262D01*
X320198985Y-145845359D01*
X320338531Y-145845359D01*
X320354087Y-145845371D01*
G37*
G36*
X316758145Y-146289537D02*
G01*
X316768727Y-146412605D01*
X316766229Y-146477857D01*
X316746240Y-146600434D01*
X316706928Y-146708694D01*
X316649101Y-146801493D01*
X316573564Y-146877685D01*
X316481122Y-146936124D01*
X316372582Y-146975666D01*
X316324406Y-146984232D01*
X316244502Y-146988632D01*
X316158590Y-146984856D01*
X316076796Y-146973479D01*
X316009246Y-146955072D01*
X315956340Y-146931250D01*
X315882489Y-146884312D01*
X315821204Y-146828379D01*
X315776634Y-146767489D01*
X315752931Y-146705682D01*
X315744938Y-146664714D01*
X315871119Y-146664714D01*
X315888842Y-146664726D01*
X315940637Y-146665318D01*
X315974096Y-146667674D01*
X315994637Y-146672989D01*
X316007678Y-146682460D01*
X316018640Y-146697284D01*
X316036489Y-146718165D01*
X316084770Y-146749641D01*
X316148154Y-146770230D01*
X316220794Y-146777609D01*
X316293171Y-146770376D01*
X316369406Y-146742560D01*
X316431446Y-146694487D01*
X316448761Y-146672457D01*
X316476457Y-146622117D01*
X316496621Y-146566856D01*
X316504417Y-146518348D01*
X316504417Y-146488602D01*
X316116799Y-146485268D01*
X315729181Y-146481935D01*
X315732117Y-146381091D01*
X315734820Y-146326469D01*
X315738332Y-146299155D01*
X315984274Y-146299155D01*
X316244346Y-146299155D01*
X316266695Y-146299115D01*
X316342367Y-146298338D01*
X316407691Y-146296694D01*
X316458951Y-146294341D01*
X316492431Y-146291435D01*
X316504417Y-146288135D01*
X316503579Y-146282561D01*
X316496656Y-146257336D01*
X316485019Y-146222135D01*
X316454926Y-146162044D01*
X316408094Y-146110191D01*
X316351026Y-146074155D01*
X316287607Y-146053735D01*
X316221719Y-146048729D01*
X316157245Y-146058934D01*
X316098069Y-146084150D01*
X316048073Y-146124172D01*
X316011142Y-146178801D01*
X315991158Y-146247832D01*
X315984274Y-146299155D01*
X315738332Y-146299155D01*
X315746434Y-146236155D01*
X315768151Y-146157280D01*
X315801920Y-146081480D01*
X315809877Y-146066967D01*
X315871326Y-145984176D01*
X315950461Y-145918868D01*
X316046203Y-145871763D01*
X316157473Y-145843584D01*
X316231334Y-145836818D01*
X316341722Y-145845244D01*
X316443586Y-145875384D01*
X316535014Y-145925460D01*
X316614095Y-145993693D01*
X316678918Y-146078302D01*
X316727571Y-146177510D01*
X316757762Y-146288135D01*
X316758145Y-146289537D01*
G37*
G36*
X318199080Y-145472242D02*
G01*
X318283677Y-145491068D01*
X318379924Y-145530893D01*
X318484248Y-145598211D01*
X318574152Y-145684855D01*
X318646962Y-145788634D01*
X318680260Y-145856692D01*
X318719389Y-145976589D01*
X318741881Y-146106934D01*
X318747635Y-146242432D01*
X318736545Y-146377788D01*
X318708509Y-146507708D01*
X318663421Y-146626897D01*
X318659134Y-146635654D01*
X318596538Y-146734715D01*
X318515617Y-146821909D01*
X318420696Y-146893904D01*
X318316100Y-146947370D01*
X318206154Y-146978976D01*
X318199517Y-146980046D01*
X318149698Y-146984797D01*
X318088523Y-146986841D01*
X318027710Y-146985735D01*
X317948470Y-146977576D01*
X317826893Y-146946687D01*
X317718234Y-146895244D01*
X317624106Y-146824567D01*
X317546123Y-146735972D01*
X317485902Y-146630776D01*
X317445054Y-146510297D01*
X317436741Y-146475632D01*
X317573321Y-146475632D01*
X317709902Y-146475632D01*
X317738669Y-146545038D01*
X317760754Y-146589079D01*
X317814242Y-146654773D01*
X317884655Y-146702098D01*
X317971436Y-146730730D01*
X318074029Y-146740347D01*
X318098549Y-146740059D01*
X318148642Y-146735786D01*
X318191929Y-146724034D01*
X318241452Y-146701799D01*
X318269832Y-146686658D01*
X318327813Y-146645779D01*
X318373675Y-146594394D01*
X318414578Y-146525197D01*
X318415543Y-146523285D01*
X318442424Y-146459848D01*
X318459996Y-146392231D01*
X318469536Y-146313625D01*
X318472322Y-146217220D01*
X318467376Y-146122509D01*
X318445919Y-146008503D01*
X318407992Y-145910905D01*
X318354155Y-145831051D01*
X318284970Y-145770279D01*
X318261430Y-145755560D01*
X318193816Y-145724511D01*
X318121571Y-145709911D01*
X318035980Y-145709636D01*
X317974958Y-145717779D01*
X317888155Y-145746671D01*
X317816073Y-145793697D01*
X317760956Y-145857228D01*
X317725048Y-145935631D01*
X317710551Y-145984019D01*
X317573646Y-145984019D01*
X317436741Y-145984019D01*
X317444402Y-145949354D01*
X317449509Y-145928060D01*
X317478918Y-145838800D01*
X317518784Y-145753462D01*
X317565399Y-145679139D01*
X317615055Y-145622924D01*
X317625943Y-145613534D01*
X317693534Y-145565691D01*
X317772975Y-145522629D01*
X317853201Y-145490499D01*
X317907038Y-145477004D01*
X318000948Y-145465197D01*
X318101566Y-145463614D01*
X318199080Y-145472242D01*
G37*
G36*
X324649162Y-146289537D02*
G01*
X324659744Y-146412605D01*
X324657246Y-146477857D01*
X324637257Y-146600434D01*
X324597946Y-146708694D01*
X324540118Y-146801493D01*
X324464581Y-146877685D01*
X324372140Y-146936124D01*
X324263600Y-146975666D01*
X324215423Y-146984232D01*
X324135520Y-146988632D01*
X324049608Y-146984856D01*
X323967813Y-146973479D01*
X323900263Y-146955072D01*
X323847358Y-146931250D01*
X323773506Y-146884312D01*
X323712221Y-146828379D01*
X323667652Y-146767489D01*
X323643949Y-146705682D01*
X323635956Y-146664714D01*
X323762136Y-146664714D01*
X323779859Y-146664726D01*
X323831654Y-146665318D01*
X323865113Y-146667674D01*
X323885654Y-146672989D01*
X323898696Y-146682460D01*
X323909657Y-146697284D01*
X323927506Y-146718165D01*
X323975788Y-146749641D01*
X324039172Y-146770230D01*
X324111812Y-146777609D01*
X324184188Y-146770376D01*
X324260423Y-146742560D01*
X324322463Y-146694487D01*
X324339779Y-146672457D01*
X324367474Y-146622117D01*
X324387638Y-146566856D01*
X324395435Y-146518348D01*
X324395435Y-146488602D01*
X324007817Y-146485268D01*
X323620199Y-146481935D01*
X323623134Y-146381091D01*
X323625838Y-146326469D01*
X323629350Y-146299155D01*
X323875291Y-146299155D01*
X324135363Y-146299155D01*
X324157712Y-146299115D01*
X324233385Y-146298338D01*
X324298709Y-146296694D01*
X324349969Y-146294341D01*
X324383449Y-146291435D01*
X324395435Y-146288135D01*
X324394596Y-146282561D01*
X324387674Y-146257336D01*
X324376037Y-146222135D01*
X324345943Y-146162044D01*
X324299111Y-146110191D01*
X324242044Y-146074155D01*
X324178624Y-146053735D01*
X324112736Y-146048729D01*
X324048262Y-146058934D01*
X323989086Y-146084150D01*
X323939091Y-146124172D01*
X323902159Y-146178801D01*
X323882175Y-146247832D01*
X323875291Y-146299155D01*
X323629350Y-146299155D01*
X323637451Y-146236155D01*
X323659168Y-146157280D01*
X323692937Y-146081480D01*
X323700894Y-146066967D01*
X323762344Y-145984176D01*
X323841478Y-145918868D01*
X323937220Y-145871763D01*
X324048490Y-145843584D01*
X324122351Y-145836818D01*
X324232740Y-145845244D01*
X324334603Y-145875384D01*
X324426031Y-145925460D01*
X324505112Y-145993693D01*
X324569935Y-146078302D01*
X324618589Y-146177510D01*
X324648779Y-146288135D01*
X324649162Y-146289537D01*
G37*
G36*
X329943455Y-146289537D02*
G01*
X329954037Y-146412605D01*
X329951539Y-146477857D01*
X329931550Y-146600434D01*
X329892238Y-146708694D01*
X329834411Y-146801493D01*
X329758874Y-146877685D01*
X329666433Y-146936124D01*
X329557893Y-146975666D01*
X329509716Y-146984232D01*
X329429812Y-146988632D01*
X329343900Y-146984856D01*
X329262106Y-146973479D01*
X329194556Y-146955072D01*
X329141650Y-146931250D01*
X329067799Y-146884312D01*
X329006514Y-146828379D01*
X328961944Y-146767489D01*
X328938242Y-146705682D01*
X328930248Y-146664714D01*
X329056429Y-146664714D01*
X329074152Y-146664726D01*
X329125947Y-146665318D01*
X329159406Y-146667674D01*
X329179947Y-146672989D01*
X329192989Y-146682460D01*
X329203950Y-146697284D01*
X329221799Y-146718165D01*
X329270080Y-146749641D01*
X329333464Y-146770230D01*
X329406105Y-146777609D01*
X329478481Y-146770376D01*
X329554716Y-146742560D01*
X329616756Y-146694487D01*
X329634072Y-146672457D01*
X329661767Y-146622117D01*
X329681931Y-146566856D01*
X329689727Y-146518348D01*
X329689727Y-146488602D01*
X329302109Y-146485268D01*
X328914492Y-146481935D01*
X328917427Y-146381091D01*
X328920131Y-146326469D01*
X328923643Y-146299155D01*
X329169584Y-146299155D01*
X329429656Y-146299155D01*
X329452005Y-146299115D01*
X329527678Y-146298338D01*
X329593002Y-146296694D01*
X329644261Y-146294341D01*
X329677742Y-146291435D01*
X329689727Y-146288135D01*
X329688889Y-146282561D01*
X329681967Y-146257336D01*
X329670329Y-146222135D01*
X329640236Y-146162044D01*
X329593404Y-146110191D01*
X329536337Y-146074155D01*
X329472917Y-146053735D01*
X329407029Y-146048729D01*
X329342555Y-146058934D01*
X329283379Y-146084150D01*
X329233383Y-146124172D01*
X329196452Y-146178801D01*
X329176468Y-146247832D01*
X329169584Y-146299155D01*
X328923643Y-146299155D01*
X328931744Y-146236155D01*
X328953461Y-146157280D01*
X328987230Y-146081480D01*
X328995187Y-146066967D01*
X329056637Y-145984176D01*
X329135771Y-145918868D01*
X329231513Y-145871763D01*
X329342783Y-145843584D01*
X329416644Y-145836818D01*
X329527032Y-145845244D01*
X329628896Y-145875384D01*
X329720324Y-145925460D01*
X329799405Y-145993693D01*
X329864228Y-146078302D01*
X329912882Y-146177510D01*
X329943072Y-146288135D01*
X329943455Y-146289537D01*
G37*
G36*
X321647444Y-146967245D02*
G01*
X321521390Y-146967245D01*
X321395335Y-146967245D01*
X321395335Y-146887410D01*
X321394401Y-146848943D01*
X321391541Y-146815512D01*
X321387426Y-146799667D01*
X321383007Y-146799787D01*
X321367283Y-146813591D01*
X321346459Y-146840690D01*
X321311469Y-146885174D01*
X321251974Y-146934339D01*
X321175610Y-146970363D01*
X321149794Y-146978556D01*
X321093387Y-146988025D01*
X321026116Y-146987252D01*
X320992155Y-146983690D01*
X320893158Y-146958102D01*
X320806732Y-146911685D01*
X320733846Y-146845737D01*
X320675471Y-146761557D01*
X320632574Y-146660443D01*
X320606125Y-146543693D01*
X320598611Y-146434642D01*
X320867308Y-146434642D01*
X320877965Y-146521667D01*
X320901500Y-146602128D01*
X320937586Y-146670804D01*
X320985895Y-146722474D01*
X320996240Y-146730081D01*
X321028385Y-146748280D01*
X321065084Y-146758094D01*
X321116624Y-146762689D01*
X321144285Y-146763670D01*
X321185705Y-146761791D01*
X321217849Y-146753057D01*
X321251134Y-146735350D01*
X321266563Y-146724786D01*
X321315659Y-146673010D01*
X321352879Y-146603212D01*
X321376986Y-146519301D01*
X321386744Y-146425188D01*
X321380916Y-146324786D01*
X321365428Y-146248561D01*
X321333807Y-146170874D01*
X321288535Y-146114116D01*
X321229336Y-146077965D01*
X321155935Y-146062100D01*
X321124244Y-146060809D01*
X321054390Y-146068371D01*
X320997795Y-146093171D01*
X320949193Y-146137122D01*
X320915882Y-146186395D01*
X320885939Y-146261784D01*
X320869857Y-146346274D01*
X320867308Y-146434642D01*
X320598611Y-146434642D01*
X320597093Y-146412605D01*
X320599741Y-146334227D01*
X320616713Y-146216072D01*
X320650194Y-146114191D01*
X320701119Y-146026086D01*
X320770421Y-145949258D01*
X320818851Y-145909687D01*
X320891753Y-145868800D01*
X320972436Y-145846510D01*
X321067593Y-145840364D01*
X321118449Y-145842542D01*
X321170278Y-145851067D01*
X321212556Y-145867505D01*
X321248066Y-145890214D01*
X321295465Y-145929884D01*
X321338437Y-145974473D01*
X321368103Y-146015533D01*
X321372512Y-146018136D01*
X321376216Y-146005667D01*
X321378946Y-145975531D01*
X321380808Y-145925842D01*
X321381907Y-145854717D01*
X321382347Y-145760272D01*
X321382730Y-145479801D01*
X321515087Y-145479801D01*
X321647444Y-145479801D01*
X321647444Y-146223523D01*
X321647444Y-146425188D01*
X321647444Y-146967245D01*
G37*
G36*
X328429286Y-145851254D02*
G01*
X328520726Y-145878825D01*
X328600018Y-145920189D01*
X328662333Y-145974772D01*
X328685102Y-146006229D01*
X328715128Y-146064214D01*
X328736303Y-146125523D01*
X328744318Y-146179404D01*
X328743959Y-146191130D01*
X328729534Y-146260573D01*
X328697332Y-146328247D01*
X328651889Y-146384101D01*
X328613396Y-146414889D01*
X328564517Y-146442980D01*
X328503636Y-146467543D01*
X328426371Y-146490325D01*
X328328338Y-146513075D01*
X328286666Y-146522283D01*
X328234017Y-146535016D01*
X328193243Y-146546176D01*
X328170770Y-146554091D01*
X328167661Y-146555712D01*
X328118654Y-146591497D01*
X328091995Y-146632841D01*
X328088047Y-146676275D01*
X328107173Y-146718329D01*
X328149734Y-146755532D01*
X328161948Y-146762599D01*
X328194239Y-146775608D01*
X328234110Y-146782199D01*
X328290295Y-146784150D01*
X328355611Y-146780543D01*
X328414342Y-146765445D01*
X328456700Y-146737029D01*
X328486294Y-146693630D01*
X328505997Y-146652108D01*
X328637763Y-146652108D01*
X328642055Y-146652109D01*
X328705013Y-146652791D01*
X328745402Y-146657010D01*
X328765727Y-146668050D01*
X328768489Y-146689196D01*
X328756189Y-146723733D01*
X328731331Y-146774945D01*
X328692596Y-146835885D01*
X328625602Y-146900449D01*
X328540478Y-146948480D01*
X328438387Y-146979169D01*
X328434705Y-146979880D01*
X328349234Y-146989498D01*
X328256270Y-146988999D01*
X328163753Y-146979205D01*
X328079624Y-146960938D01*
X328011823Y-146935019D01*
X327984968Y-146918979D01*
X327930422Y-146875576D01*
X327881152Y-146823866D01*
X327846210Y-146772720D01*
X327826001Y-146714341D01*
X327818188Y-146641199D01*
X327825014Y-146567873D01*
X327846470Y-146504724D01*
X327857646Y-146484981D01*
X327886499Y-146446030D01*
X327923139Y-146413492D01*
X327971025Y-146385560D01*
X328033613Y-146360428D01*
X328114361Y-146336291D01*
X328216726Y-146311344D01*
X328225514Y-146309330D01*
X328289597Y-146293559D01*
X328346869Y-146277699D01*
X328391375Y-146263494D01*
X328417158Y-146252688D01*
X328423986Y-146248402D01*
X328459358Y-146213216D01*
X328473676Y-146171350D01*
X328464986Y-146127906D01*
X328463109Y-146124222D01*
X328427078Y-146080634D01*
X328376625Y-146051676D01*
X328317462Y-146037364D01*
X328255304Y-146037714D01*
X328195863Y-146052742D01*
X328144851Y-146082465D01*
X328107983Y-146126899D01*
X328083101Y-146173101D01*
X327958911Y-146173101D01*
X327834722Y-146173101D01*
X327843632Y-146132133D01*
X327851987Y-146099829D01*
X327888527Y-146018335D01*
X327944798Y-145951894D01*
X328022139Y-145898753D01*
X328038699Y-145890369D01*
X328130406Y-145857033D01*
X328229295Y-145839784D01*
X328330532Y-145838049D01*
X328429286Y-145851254D01*
G37*
G36*
X327153732Y-146429049D02*
G01*
X327141229Y-146547562D01*
X327110969Y-146654540D01*
X327064128Y-146748102D01*
X327001877Y-146826368D01*
X326925393Y-146887455D01*
X326835848Y-146929484D01*
X326734416Y-146950571D01*
X326728036Y-146951129D01*
X326627247Y-146948759D01*
X326538086Y-146924609D01*
X326461536Y-146879082D01*
X326398583Y-146812585D01*
X326359840Y-146759255D01*
X326364015Y-146919100D01*
X326364317Y-146930162D01*
X326367803Y-147005550D01*
X326374625Y-147061077D01*
X326386824Y-147101478D01*
X326406438Y-147131488D01*
X326435508Y-147155842D01*
X326476073Y-147179275D01*
X326508260Y-147194131D01*
X326539818Y-147202449D01*
X326578787Y-147205185D01*
X326633987Y-147203703D01*
X326705991Y-147196399D01*
X326767994Y-147178877D01*
X326811956Y-147150211D01*
X326840894Y-147109021D01*
X326859802Y-147068634D01*
X326989008Y-147068361D01*
X327016831Y-147068327D01*
X327065444Y-147068822D01*
X327095346Y-147070938D01*
X327111079Y-147075686D01*
X327117187Y-147084079D01*
X327118214Y-147097127D01*
X327115763Y-147116548D01*
X327099717Y-147162118D01*
X327072722Y-147212537D01*
X327039501Y-147259569D01*
X327004776Y-147294978D01*
X326957954Y-147327119D01*
X326874092Y-147368784D01*
X326787072Y-147395959D01*
X326779252Y-147397488D01*
X326719822Y-147403895D01*
X326646728Y-147405415D01*
X326567718Y-147402503D01*
X326490539Y-147395613D01*
X326422939Y-147385196D01*
X326372666Y-147371707D01*
X326361621Y-147367372D01*
X326267940Y-147318174D01*
X326194161Y-147254706D01*
X326141111Y-147177863D01*
X326109621Y-147088537D01*
X326107577Y-147075431D01*
X326104147Y-147030984D01*
X326101561Y-146961978D01*
X326099818Y-146868286D01*
X326098915Y-146749780D01*
X326098851Y-146606332D01*
X326099603Y-146442170D01*
X326363733Y-146442170D01*
X326376028Y-146538377D01*
X326403845Y-146616681D01*
X326446806Y-146676150D01*
X326504531Y-146715848D01*
X326567747Y-146735021D01*
X326639820Y-146738420D01*
X326709336Y-146724966D01*
X326769942Y-146695950D01*
X326815287Y-146652664D01*
X326838013Y-146613821D01*
X326864540Y-146537860D01*
X326877726Y-146452353D01*
X326877752Y-146363596D01*
X326864797Y-146277883D01*
X326839042Y-146201508D01*
X326800665Y-146140766D01*
X326787707Y-146126620D01*
X326739545Y-146086813D01*
X326686185Y-146065791D01*
X326618880Y-146059652D01*
X326578253Y-146062277D01*
X326506793Y-146083302D01*
X326449319Y-146125008D01*
X326406176Y-146186974D01*
X326377711Y-146268777D01*
X326364269Y-146369995D01*
X326363733Y-146442170D01*
X326099603Y-146442170D01*
X326099623Y-146437816D01*
X326103474Y-145851662D01*
X326229529Y-145851662D01*
X326355583Y-145851662D01*
X326362767Y-145946203D01*
X326363645Y-145957447D01*
X326367249Y-145997313D01*
X326370302Y-146021931D01*
X326372221Y-146026350D01*
X326380926Y-146010777D01*
X326402294Y-145982686D01*
X326431568Y-145948474D01*
X326431851Y-145948160D01*
X326487437Y-145896421D01*
X326547341Y-145862800D01*
X326617718Y-145844857D01*
X326704722Y-145840151D01*
X326742834Y-145841222D01*
X326790834Y-145846629D01*
X326833501Y-145859034D01*
X326882993Y-145881241D01*
X326936232Y-145911969D01*
X327014692Y-145979615D01*
X327075920Y-146065502D01*
X327119755Y-146169376D01*
X327146033Y-146290985D01*
X327147304Y-146300883D01*
X327150449Y-146363596D01*
X327153732Y-146429049D01*
G37*
G36*
X322244389Y-127864846D02*
G01*
X322244389Y-128419762D01*
X322118272Y-128419762D01*
X321992155Y-128419762D01*
X321992155Y-127864846D01*
X321992155Y-127309930D01*
X322118272Y-127309930D01*
X322244389Y-127309930D01*
X322244389Y-127864846D01*
G37*
G36*
X322189391Y-126858831D02*
G01*
X322242102Y-126909755D01*
X322260417Y-126946721D01*
X322263774Y-126989775D01*
X322236002Y-127042178D01*
X322184665Y-127090544D01*
X322105385Y-127108261D01*
X322015720Y-127082032D01*
X321983476Y-127044980D01*
X321967090Y-126978985D01*
X321973219Y-126908950D01*
X322003119Y-126857276D01*
X322039711Y-126837983D01*
X322114823Y-126833347D01*
X322189391Y-126858831D01*
G37*
G36*
X340386346Y-126949608D02*
G01*
X340387542Y-126951706D01*
X340392276Y-126989753D01*
X340396516Y-127070312D01*
X340400098Y-127186987D01*
X340402858Y-127333384D01*
X340404635Y-127503110D01*
X340405263Y-127689771D01*
X340405263Y-128419762D01*
X339976465Y-128419762D01*
X339547666Y-128419762D01*
X339547666Y-128306256D01*
X339547666Y-128192751D01*
X339850348Y-128192751D01*
X340153029Y-128192751D01*
X340153029Y-127577426D01*
X340153029Y-126962101D01*
X340260228Y-126950768D01*
X340286778Y-126948325D01*
X340351468Y-126945759D01*
X340386346Y-126949608D01*
G37*
G36*
X339366247Y-127089225D02*
G01*
X339358491Y-127196425D01*
X339023090Y-127203471D01*
X338687689Y-127210517D01*
X338736131Y-127279142D01*
X338841805Y-127454630D01*
X338948382Y-127706832D01*
X339027486Y-127994404D01*
X339077538Y-128312562D01*
X339088844Y-128419762D01*
X338956237Y-128419762D01*
X338823629Y-128419762D01*
X338806803Y-128200860D01*
X338780735Y-127980296D01*
X338715884Y-127703458D01*
X338617487Y-127462479D01*
X338485028Y-127255854D01*
X338434990Y-127175291D01*
X338412612Y-127072984D01*
X338412612Y-126982026D01*
X338893307Y-126982026D01*
X339374003Y-126982026D01*
X339366247Y-127089225D01*
G37*
G36*
X310641609Y-127095531D02*
G01*
X310641609Y-127209037D01*
X310311227Y-127209037D01*
X309980846Y-127209037D01*
X310034775Y-127291013D01*
X310063642Y-127336240D01*
X310206497Y-127614212D01*
X310304350Y-127911995D01*
X310355013Y-128223223D01*
X310371404Y-128419762D01*
X310244644Y-128419762D01*
X310117883Y-128419762D01*
X310099569Y-128199057D01*
X310096882Y-128168370D01*
X310058687Y-127900200D01*
X309994697Y-127664938D01*
X309900957Y-127451037D01*
X309773514Y-127246952D01*
X309737819Y-127191898D01*
X309698214Y-127111837D01*
X309683118Y-127051471D01*
X309683118Y-126982026D01*
X310162364Y-126982026D01*
X310641609Y-126982026D01*
X310641609Y-127095531D01*
G37*
G36*
X313571819Y-126982029D02*
G01*
X313635209Y-126991523D01*
X313725291Y-127015836D01*
X313822831Y-127049791D01*
X313845721Y-127058789D01*
X313926649Y-127093208D01*
X313972042Y-127120959D01*
X313991926Y-127150057D01*
X313996326Y-127188519D01*
X313994959Y-127221495D01*
X313982160Y-127247473D01*
X313944906Y-127257699D01*
X313870209Y-127259484D01*
X313744091Y-127259484D01*
X313744091Y-127738729D01*
X313744091Y-128217974D01*
X313895432Y-128217974D01*
X314046773Y-128217974D01*
X314046773Y-128318868D01*
X314046773Y-128419762D01*
X313617974Y-128419762D01*
X313189176Y-128419762D01*
X313189176Y-128320127D01*
X313189176Y-128220492D01*
X313334211Y-128212927D01*
X313479245Y-128205362D01*
X313486000Y-127593694D01*
X313492754Y-126982026D01*
X313571045Y-126982026D01*
X313571819Y-126982029D01*
G37*
G36*
X329666358Y-127289405D02*
G01*
X329760439Y-127324789D01*
X329862503Y-127401788D01*
X329898438Y-127433668D01*
X329939812Y-127465301D01*
X329958433Y-127466656D01*
X329962761Y-127441046D01*
X329962834Y-127432063D01*
X329975030Y-127357738D01*
X330014764Y-127320264D01*
X330091577Y-127309930D01*
X330189772Y-127309930D01*
X330189772Y-127864846D01*
X330189772Y-128419762D01*
X330063655Y-128419762D01*
X329937537Y-128419762D01*
X329937537Y-128063666D01*
X329937537Y-127707570D01*
X329836830Y-127606863D01*
X329809178Y-127579834D01*
X329752965Y-127533885D01*
X329704644Y-127515544D01*
X329646886Y-127516573D01*
X329631519Y-127518253D01*
X329584132Y-127518010D01*
X329556387Y-127498515D01*
X329540439Y-127449420D01*
X329528439Y-127360377D01*
X329527610Y-127351676D01*
X329536506Y-127306611D01*
X329580669Y-127288922D01*
X329666358Y-127289405D01*
G37*
G36*
X328822325Y-126941164D02*
G01*
X328854376Y-126945085D01*
X328860732Y-126971237D01*
X328866581Y-127043285D01*
X328871407Y-127156118D01*
X328875049Y-127304779D01*
X328877351Y-127484315D01*
X328878153Y-127689771D01*
X328878153Y-128419762D01*
X328424131Y-128419762D01*
X327970109Y-128419762D01*
X327970109Y-128306256D01*
X327970109Y-128192751D01*
X328285402Y-128192751D01*
X328600695Y-128192751D01*
X328600695Y-127978351D01*
X328600695Y-127763952D01*
X328334399Y-127763952D01*
X328068102Y-127763952D01*
X328075859Y-127656753D01*
X328083615Y-127549553D01*
X328342155Y-127542365D01*
X328600695Y-127535177D01*
X328600695Y-127346883D01*
X328600695Y-127158590D01*
X328298014Y-127158590D01*
X327995333Y-127158590D01*
X327995333Y-127061607D01*
X327995333Y-126964625D01*
X328412966Y-126947507D01*
X328513102Y-126943855D01*
X328642763Y-126940598D01*
X328748812Y-126939684D01*
X328822325Y-126941164D01*
G37*
G36*
X325775670Y-127698651D02*
G01*
X325775670Y-128087373D01*
X325853276Y-128152673D01*
X325871494Y-128166574D01*
X325957403Y-128206928D01*
X326047167Y-128218582D01*
X326120915Y-128198157D01*
X326125736Y-128194846D01*
X326156502Y-128156932D01*
X326178850Y-128091592D01*
X326193688Y-127993127D01*
X326201925Y-127855838D01*
X326204469Y-127674028D01*
X326204469Y-127309930D01*
X326332629Y-127309930D01*
X326460788Y-127309930D01*
X326452413Y-127757646D01*
X326447572Y-127940923D01*
X326439382Y-128085918D01*
X326426125Y-128194458D01*
X326405986Y-128273614D01*
X326377151Y-128330458D01*
X326337803Y-128372063D01*
X326286128Y-128405501D01*
X326266339Y-128415427D01*
X326144330Y-128444983D01*
X326014439Y-128426149D01*
X325880518Y-128359364D01*
X325753286Y-128273743D01*
X325737251Y-128346752D01*
X325736892Y-128348378D01*
X325720392Y-128395280D01*
X325687905Y-128415452D01*
X325622326Y-128419762D01*
X325523436Y-128419762D01*
X325523436Y-127864846D01*
X325523436Y-127309930D01*
X325649553Y-127309930D01*
X325775670Y-127309930D01*
X325775670Y-127698651D01*
G37*
G36*
X319878894Y-127293439D02*
G01*
X320002234Y-127336336D01*
X320119105Y-127417975D01*
X320175649Y-127469671D01*
X320191623Y-127389801D01*
X320192904Y-127383509D01*
X320208952Y-127334529D01*
X320240662Y-127314054D01*
X320305338Y-127309930D01*
X320403079Y-127309930D01*
X320403079Y-127864846D01*
X320403079Y-128419762D01*
X320276961Y-128419762D01*
X320150844Y-128419762D01*
X320150844Y-128031041D01*
X320150844Y-127642319D01*
X320073239Y-127577019D01*
X320055021Y-127563119D01*
X319969112Y-127522764D01*
X319879348Y-127511110D01*
X319805600Y-127531535D01*
X319800778Y-127534846D01*
X319770012Y-127572760D01*
X319747664Y-127638100D01*
X319732826Y-127736566D01*
X319724589Y-127873854D01*
X319722046Y-128055664D01*
X319722046Y-128419762D01*
X319593886Y-128419762D01*
X319465726Y-128419762D01*
X319474101Y-127972046D01*
X319476935Y-127842809D01*
X319481723Y-127705642D01*
X319488326Y-127605044D01*
X319497544Y-127533025D01*
X319510175Y-127481600D01*
X319527018Y-127442780D01*
X319560571Y-127393415D01*
X319649010Y-127322358D01*
X319758135Y-127288907D01*
X319878894Y-127293439D01*
G37*
G36*
X331795465Y-126820009D02*
G01*
X331859188Y-126829349D01*
X331905516Y-126851003D01*
X331951376Y-126889876D01*
X331965006Y-126904110D01*
X332024789Y-126998790D01*
X332066106Y-127118737D01*
X332081529Y-127243754D01*
X332081978Y-127257533D01*
X332098913Y-127298473D01*
X332150894Y-127314561D01*
X332192865Y-127324263D01*
X332217713Y-127353471D01*
X332228087Y-127417130D01*
X332229424Y-127434076D01*
X332228806Y-127487092D01*
X332208862Y-127508032D01*
X332158722Y-127511718D01*
X332081529Y-127511718D01*
X332081529Y-127965740D01*
X332081529Y-128419762D01*
X331942800Y-128419762D01*
X331804072Y-128419762D01*
X331804072Y-127965740D01*
X331804072Y-127511718D01*
X331703178Y-127511718D01*
X331602284Y-127511718D01*
X331602284Y-127410824D01*
X331602284Y-127309930D01*
X331703178Y-127309930D01*
X331804072Y-127309930D01*
X331804072Y-127184701D01*
X331800495Y-127126598D01*
X331773407Y-127050595D01*
X331716842Y-127013723D01*
X331627378Y-127012649D01*
X331583470Y-127014354D01*
X331553381Y-126992917D01*
X331530200Y-126934393D01*
X331526308Y-126921052D01*
X331514500Y-126862798D01*
X331516923Y-126831968D01*
X331517036Y-126831860D01*
X331548086Y-126824911D01*
X331615054Y-126819960D01*
X331703624Y-126818073D01*
X331795465Y-126820009D01*
G37*
G36*
X336495631Y-127671862D02*
G01*
X336495631Y-128419762D01*
X336369513Y-128419762D01*
X336243396Y-128419762D01*
X336243396Y-128160177D01*
X336243396Y-127900592D01*
X336022691Y-127874655D01*
X335878119Y-127852606D01*
X335730924Y-127811739D01*
X335623857Y-127752846D01*
X335551678Y-127671480D01*
X335509147Y-127563195D01*
X335491025Y-127423547D01*
X335490740Y-127414827D01*
X335738928Y-127414827D01*
X335739705Y-127441434D01*
X335758879Y-127519508D01*
X335812658Y-127589328D01*
X335818520Y-127595149D01*
X335861299Y-127631973D01*
X335905804Y-127652405D01*
X335968260Y-127661185D01*
X336064892Y-127663059D01*
X336243396Y-127663059D01*
X336243396Y-127410824D01*
X336243396Y-127158590D01*
X336078191Y-127158590D01*
X336013664Y-127160742D01*
X335890056Y-127180430D01*
X335801447Y-127218723D01*
X335754596Y-127273225D01*
X335752124Y-127280928D01*
X335742731Y-127339285D01*
X335738928Y-127414827D01*
X335490740Y-127414827D01*
X335488568Y-127348415D01*
X335492824Y-127271871D01*
X335509269Y-127214616D01*
X335541331Y-127158590D01*
X335560929Y-127131198D01*
X335628496Y-127062194D01*
X335715018Y-127011165D01*
X335828245Y-126975381D01*
X335975925Y-126952112D01*
X336165808Y-126938631D01*
X336495631Y-126923962D01*
X336495631Y-127410824D01*
X336495631Y-127671862D01*
G37*
G36*
X311455042Y-126965383D02*
G01*
X311588658Y-127004226D01*
X311726921Y-127086330D01*
X311832503Y-127162813D01*
X311762364Y-127236022D01*
X311692226Y-127309231D01*
X311606551Y-127243883D01*
X311593740Y-127234705D01*
X311508746Y-127190311D01*
X311422977Y-127165405D01*
X311357935Y-127161833D01*
X311305588Y-127179732D01*
X311248189Y-127229162D01*
X311210583Y-127274323D01*
X311174900Y-127359695D01*
X311176477Y-127457586D01*
X311216460Y-127570772D01*
X311295995Y-127702031D01*
X311416224Y-127854140D01*
X311578294Y-128029876D01*
X311639077Y-128093042D01*
X311727905Y-128189910D01*
X311785937Y-128261689D01*
X311817546Y-128314056D01*
X311827110Y-128352689D01*
X311827110Y-128419762D01*
X311333803Y-128419762D01*
X310840496Y-128419762D01*
X310848252Y-128312562D01*
X310856008Y-128205362D01*
X311139772Y-128206261D01*
X311241840Y-128205928D01*
X311336070Y-128204155D01*
X311399991Y-128201209D01*
X311423535Y-128197404D01*
X311419120Y-128190323D01*
X311388382Y-128153138D01*
X311334767Y-128092316D01*
X311265889Y-128016593D01*
X311206149Y-127949809D01*
X311070343Y-127775621D01*
X310979313Y-127617119D01*
X310931900Y-127471193D01*
X310926945Y-127334731D01*
X310963288Y-127204623D01*
X310970560Y-127189021D01*
X311051402Y-127078349D01*
X311167342Y-127003571D01*
X311317430Y-126965329D01*
X311455042Y-126965383D01*
G37*
G36*
X312615320Y-126965383D02*
G01*
X312748936Y-127004226D01*
X312887199Y-127086330D01*
X312992781Y-127162813D01*
X312922642Y-127236022D01*
X312852504Y-127309231D01*
X312766829Y-127243883D01*
X312754018Y-127234705D01*
X312669024Y-127190311D01*
X312583255Y-127165405D01*
X312518213Y-127161833D01*
X312465867Y-127179732D01*
X312408467Y-127229162D01*
X312370861Y-127274323D01*
X312335178Y-127359695D01*
X312336755Y-127457586D01*
X312376739Y-127570772D01*
X312456273Y-127702031D01*
X312576502Y-127854140D01*
X312738572Y-128029876D01*
X312799355Y-128093042D01*
X312888183Y-128189910D01*
X312946215Y-128261689D01*
X312977824Y-128314056D01*
X312987388Y-128352689D01*
X312987388Y-128419762D01*
X312494081Y-128419762D01*
X312000774Y-128419762D01*
X312008530Y-128312562D01*
X312016286Y-128205362D01*
X312300050Y-128206261D01*
X312402118Y-128205928D01*
X312496348Y-128204155D01*
X312560269Y-128201209D01*
X312583813Y-128197404D01*
X312579398Y-128190323D01*
X312548660Y-128153138D01*
X312495045Y-128092316D01*
X312426167Y-128016593D01*
X312366427Y-127949809D01*
X312230621Y-127775621D01*
X312139591Y-127617119D01*
X312092178Y-127471193D01*
X312087223Y-127334731D01*
X312123567Y-127204623D01*
X312130838Y-127189021D01*
X312211680Y-127078349D01*
X312327620Y-127003571D01*
X312477708Y-126965329D01*
X312615320Y-126965383D01*
G37*
G36*
X324846233Y-127305600D02*
G01*
X324992321Y-127368679D01*
X325112864Y-127468590D01*
X325198937Y-127599784D01*
X325206325Y-127617296D01*
X325238167Y-127745612D01*
X325246399Y-127893130D01*
X325231250Y-128038469D01*
X325192949Y-128160249D01*
X325120762Y-128268175D01*
X325016855Y-128361611D01*
X324900796Y-128419336D01*
X324774134Y-128440378D01*
X324638203Y-128434369D01*
X324512795Y-128403310D01*
X324415826Y-128349769D01*
X324363564Y-128306256D01*
X324415819Y-128225016D01*
X324420803Y-128217307D01*
X324455906Y-128170484D01*
X324484497Y-128159873D01*
X324522815Y-128178399D01*
X324524887Y-128179700D01*
X324636106Y-128224142D01*
X324744349Y-128223493D01*
X324841924Y-128182782D01*
X324921141Y-128107034D01*
X324974312Y-128001278D01*
X324993744Y-127870541D01*
X324983127Y-127781865D01*
X324948376Y-127677686D01*
X324897178Y-127589425D01*
X324837552Y-127534345D01*
X324783465Y-127515379D01*
X324695681Y-127505912D01*
X324610244Y-127513932D01*
X324549774Y-127539066D01*
X324520837Y-127555944D01*
X324490993Y-127545298D01*
X324448583Y-127498364D01*
X324438518Y-127485550D01*
X324402947Y-127435508D01*
X324388507Y-127406768D01*
X324389442Y-127402633D01*
X324419228Y-127376453D01*
X324479687Y-127345477D01*
X324555581Y-127315813D01*
X324631671Y-127293567D01*
X324692720Y-127284848D01*
X324846233Y-127305600D01*
G37*
G36*
X321714143Y-127859350D02*
G01*
X321695199Y-128036325D01*
X321635983Y-128187559D01*
X321537158Y-128308227D01*
X321399404Y-128397165D01*
X321389087Y-128401797D01*
X321243886Y-128439452D01*
X321097657Y-128431679D01*
X320960197Y-128381908D01*
X320841301Y-128293567D01*
X320750767Y-128170086D01*
X320695234Y-128018772D01*
X320677712Y-127855825D01*
X320682698Y-127817039D01*
X320937809Y-127817039D01*
X320939377Y-127943251D01*
X320968496Y-128058305D01*
X321022774Y-128150536D01*
X321099820Y-128208282D01*
X321109586Y-128212305D01*
X321168545Y-128234126D01*
X321203112Y-128242826D01*
X321210198Y-128242257D01*
X321270356Y-128218571D01*
X321338969Y-128169738D01*
X321396973Y-128108925D01*
X321429720Y-128040606D01*
X321450466Y-127933053D01*
X321451955Y-127814416D01*
X321434180Y-127703914D01*
X321397136Y-127620767D01*
X321319241Y-127542125D01*
X321227031Y-127500425D01*
X321135195Y-127504389D01*
X321051764Y-127553500D01*
X320984768Y-127647243D01*
X320966183Y-127691330D01*
X320937809Y-127817039D01*
X320682698Y-127817039D01*
X320698279Y-127695847D01*
X320755418Y-127550408D01*
X320847614Y-127431080D01*
X320944740Y-127358127D01*
X321086198Y-127300746D01*
X321234842Y-127288703D01*
X321381297Y-127323880D01*
X321391448Y-127328227D01*
X321529332Y-127414178D01*
X321630320Y-127533351D01*
X321692546Y-127682742D01*
X321708648Y-127814416D01*
X321714143Y-127859350D01*
G37*
G36*
X341243514Y-126939212D02*
G01*
X341393636Y-126992221D01*
X341529566Y-127078490D01*
X341641961Y-127194105D01*
X341721479Y-127335154D01*
X341728899Y-127354671D01*
X341776038Y-127540750D01*
X341784846Y-127727813D01*
X341758009Y-127908147D01*
X341698213Y-128074041D01*
X341608144Y-128217782D01*
X341490486Y-128331657D01*
X341347926Y-128407953D01*
X341209346Y-128439927D01*
X341042512Y-128437992D01*
X340884145Y-128395174D01*
X340747271Y-128313523D01*
X340657641Y-128239643D01*
X340723140Y-128153770D01*
X340788638Y-128067898D01*
X340878751Y-128136630D01*
X340882082Y-128139157D01*
X340948104Y-128180440D01*
X341017709Y-128200257D01*
X341114012Y-128205362D01*
X341177443Y-128202569D01*
X341290771Y-128174307D01*
X341377828Y-128109855D01*
X341450305Y-128002145D01*
X341470969Y-127949941D01*
X341494203Y-127838084D01*
X341504731Y-127707005D01*
X341502347Y-127573659D01*
X341486846Y-127455001D01*
X341458020Y-127367987D01*
X341443910Y-127343949D01*
X341357917Y-127245974D01*
X341250255Y-127179926D01*
X341132033Y-127149079D01*
X341014359Y-127156705D01*
X340908343Y-127206075D01*
X340886701Y-127220986D01*
X340826596Y-127243325D01*
X340777540Y-127221525D01*
X340730040Y-127152746D01*
X340720648Y-127128764D01*
X340727792Y-127080699D01*
X340775416Y-127032162D01*
X340867843Y-126977660D01*
X340938064Y-126948619D01*
X341088543Y-126923374D01*
X341243514Y-126939212D01*
G37*
G36*
X331487460Y-127882804D02*
G01*
X331465912Y-128061627D01*
X331407100Y-128207239D01*
X331309930Y-128321528D01*
X331173306Y-128406379D01*
X331073474Y-128434303D01*
X330937751Y-128437065D01*
X330801841Y-128408971D01*
X330685414Y-128352205D01*
X330648765Y-128323710D01*
X330550064Y-128209174D01*
X330485863Y-128071111D01*
X330456186Y-127919554D01*
X330457904Y-127864846D01*
X330719464Y-127864846D01*
X330720289Y-127902560D01*
X330743089Y-128043095D01*
X330796967Y-128144489D01*
X330881698Y-128206270D01*
X330918881Y-128221504D01*
X330971642Y-128237974D01*
X331012968Y-128236094D01*
X331066127Y-128217247D01*
X331101582Y-128197905D01*
X331167418Y-128123182D01*
X331209182Y-128011620D01*
X331223838Y-127869899D01*
X331220570Y-127788841D01*
X331194856Y-127664830D01*
X331141566Y-127577563D01*
X331058305Y-127522004D01*
X331005577Y-127503115D01*
X330950377Y-127500470D01*
X330882508Y-127523083D01*
X330860456Y-127533646D01*
X330782162Y-127604588D01*
X330735147Y-127715025D01*
X330719464Y-127864846D01*
X330457904Y-127864846D01*
X330461054Y-127764538D01*
X330500492Y-127616095D01*
X330574523Y-127484259D01*
X330683169Y-127379065D01*
X330735030Y-127347362D01*
X330877303Y-127297990D01*
X331027323Y-127291223D01*
X331172776Y-127326573D01*
X331301350Y-127403553D01*
X331341774Y-127440864D01*
X331424980Y-127554539D01*
X331472499Y-127693160D01*
X331487609Y-127864846D01*
X331487567Y-127869899D01*
X331487460Y-127882804D01*
G37*
G36*
X334772763Y-126945651D02*
G01*
X334900233Y-126991830D01*
X334917791Y-127001759D01*
X335015093Y-127079261D01*
X335108999Y-127187134D01*
X335185648Y-127309930D01*
X335210216Y-127369330D01*
X335243148Y-127508338D01*
X335257456Y-127666810D01*
X335252022Y-127826389D01*
X335225732Y-127968721D01*
X335177142Y-128089382D01*
X335075578Y-128233952D01*
X334940748Y-128347324D01*
X334780600Y-128421418D01*
X334724526Y-128435104D01*
X334561442Y-128442206D01*
X334397602Y-128405926D01*
X334246634Y-128328631D01*
X334191365Y-128286661D01*
X334156650Y-128241448D01*
X334163834Y-128197763D01*
X334210724Y-128144357D01*
X334271598Y-128087169D01*
X334383199Y-128152572D01*
X334479737Y-128196720D01*
X334610616Y-128216246D01*
X334732344Y-128187660D01*
X334840327Y-128112313D01*
X334929973Y-127991559D01*
X334945471Y-127960115D01*
X334984691Y-127824188D01*
X334996258Y-127669755D01*
X334979996Y-127515535D01*
X334935728Y-127380246D01*
X334867997Y-127278382D01*
X334765547Y-127195584D01*
X334646028Y-127153815D01*
X334518266Y-127155920D01*
X334391088Y-127204742D01*
X334298616Y-127259302D01*
X334237642Y-127190028D01*
X334229306Y-127180392D01*
X334191607Y-127131707D01*
X334175872Y-127102195D01*
X334194300Y-127074658D01*
X334247097Y-127035831D01*
X334320772Y-126994448D01*
X334401723Y-126958105D01*
X334476345Y-126934399D01*
X334490662Y-126931505D01*
X334627346Y-126924338D01*
X334772763Y-126945651D01*
G37*
G36*
X316225751Y-127006035D02*
G01*
X316377514Y-127095390D01*
X316471430Y-127167024D01*
X316394890Y-127243564D01*
X316318350Y-127320104D01*
X316260863Y-127267722D01*
X316179663Y-127206802D01*
X316074535Y-127164845D01*
X315979862Y-127164505D01*
X315901477Y-127200713D01*
X315845216Y-127268398D01*
X315816912Y-127362489D01*
X315822398Y-127477915D01*
X315867510Y-127609606D01*
X315879237Y-127630477D01*
X315929219Y-127701077D01*
X316003877Y-127793429D01*
X316095260Y-127897944D01*
X316195415Y-128005032D01*
X316284878Y-128098716D01*
X316371308Y-128194181D01*
X316427913Y-128264891D01*
X316458836Y-128316135D01*
X316468223Y-128353202D01*
X316468223Y-128419762D01*
X315976366Y-128419762D01*
X315484509Y-128419762D01*
X315484509Y-128303082D01*
X315484509Y-128186403D01*
X315774238Y-128197493D01*
X315814908Y-128199011D01*
X315925573Y-128202216D01*
X315995258Y-128201635D01*
X316031247Y-128196464D01*
X316040827Y-128185899D01*
X316031282Y-128169137D01*
X316024255Y-128160802D01*
X315984201Y-128114513D01*
X315924038Y-128045875D01*
X315853884Y-127966449D01*
X315845333Y-127956685D01*
X315764351Y-127854499D01*
X315687901Y-127743284D01*
X315631502Y-127645440D01*
X315607370Y-127594745D01*
X315575155Y-127510916D01*
X315562695Y-127437371D01*
X315565056Y-127352350D01*
X315567020Y-127332555D01*
X315604720Y-127191433D01*
X315681457Y-127082240D01*
X315797306Y-127004864D01*
X315913155Y-126968117D01*
X316069006Y-126963305D01*
X316225751Y-127006035D01*
G37*
G36*
X318546307Y-127006035D02*
G01*
X318698070Y-127095390D01*
X318791986Y-127167024D01*
X318715446Y-127243564D01*
X318638906Y-127320104D01*
X318581420Y-127267722D01*
X318500219Y-127206802D01*
X318395091Y-127164845D01*
X318300418Y-127164505D01*
X318222033Y-127200713D01*
X318165772Y-127268398D01*
X318137468Y-127362489D01*
X318142954Y-127477915D01*
X318188066Y-127609606D01*
X318199794Y-127630477D01*
X318249775Y-127701077D01*
X318324433Y-127793429D01*
X318415816Y-127897944D01*
X318515971Y-128005032D01*
X318605434Y-128098716D01*
X318691864Y-128194181D01*
X318748469Y-128264891D01*
X318779392Y-128316135D01*
X318788779Y-128353202D01*
X318788779Y-128419762D01*
X318296922Y-128419762D01*
X317805065Y-128419762D01*
X317805065Y-128303082D01*
X317805065Y-128186403D01*
X318094794Y-128197493D01*
X318135465Y-128199011D01*
X318246129Y-128202216D01*
X318315814Y-128201635D01*
X318351803Y-128196464D01*
X318361383Y-128185899D01*
X318351838Y-128169137D01*
X318344812Y-128160802D01*
X318304757Y-128114513D01*
X318244594Y-128045875D01*
X318174440Y-127966449D01*
X318165889Y-127956685D01*
X318084907Y-127854499D01*
X318008458Y-127743284D01*
X317952058Y-127645440D01*
X317927926Y-127594745D01*
X317895711Y-127510916D01*
X317883251Y-127437371D01*
X317885612Y-127352350D01*
X317887576Y-127332555D01*
X317925276Y-127191433D01*
X318002013Y-127082240D01*
X318117862Y-127004864D01*
X318233711Y-126968117D01*
X318389562Y-126963305D01*
X318546307Y-127006035D01*
G37*
G36*
X322902685Y-127007637D02*
G01*
X322952454Y-127014020D01*
X322972293Y-127035152D01*
X322975869Y-127079767D01*
X322979710Y-127146647D01*
X322991357Y-127229724D01*
X322998974Y-127260122D01*
X323027089Y-127300111D01*
X323085945Y-127314853D01*
X323086164Y-127314874D01*
X323138785Y-127325480D01*
X323163105Y-127354173D01*
X323172873Y-127417130D01*
X323174038Y-127431824D01*
X323173755Y-127486062D01*
X323154783Y-127507767D01*
X323106799Y-127511718D01*
X323032897Y-127511718D01*
X323021386Y-127845928D01*
X323015723Y-127968988D01*
X323002096Y-128117562D01*
X322980246Y-128228153D01*
X322947803Y-128308150D01*
X322902397Y-128364938D01*
X322841655Y-128405903D01*
X322821284Y-128415324D01*
X322732902Y-128436311D01*
X322614442Y-128435621D01*
X322549627Y-128429674D01*
X322486036Y-128421432D01*
X322457573Y-128414342D01*
X322456274Y-128411865D01*
X322455260Y-128375419D01*
X322462531Y-128313304D01*
X322464918Y-128298900D01*
X322478703Y-128247116D01*
X322505962Y-128230391D01*
X322563218Y-128236046D01*
X322637186Y-128237157D01*
X322698982Y-128204846D01*
X322709932Y-128194004D01*
X322727293Y-128167471D01*
X322738611Y-128127667D01*
X322745141Y-128065300D01*
X322748138Y-127971079D01*
X322748858Y-127835713D01*
X322748858Y-127511718D01*
X322610129Y-127511718D01*
X322471400Y-127511718D01*
X322471400Y-127410824D01*
X322471400Y-127309930D01*
X322610129Y-127309930D01*
X322748858Y-127309930D01*
X322748858Y-127158590D01*
X322748858Y-127007249D01*
X322862364Y-127007249D01*
X322902685Y-127007637D01*
G37*
G36*
X338192729Y-127910409D02*
G01*
X338150744Y-128087299D01*
X338083641Y-128234458D01*
X337993626Y-128346152D01*
X337882907Y-128416648D01*
X337774981Y-128440884D01*
X337641201Y-128432522D01*
X337517180Y-128387242D01*
X337456420Y-128343404D01*
X337367931Y-128235256D01*
X337301034Y-128091722D01*
X337257998Y-127920215D01*
X337241093Y-127728147D01*
X337243949Y-127677149D01*
X337493199Y-127677149D01*
X337495572Y-127840207D01*
X337504929Y-127962740D01*
X337523001Y-128053736D01*
X337551519Y-128122182D01*
X337592212Y-128177067D01*
X337603080Y-128188136D01*
X337682173Y-128235549D01*
X337764970Y-128233905D01*
X337844478Y-128183038D01*
X337859180Y-128167115D01*
X337908322Y-128085764D01*
X337939770Y-127974648D01*
X337954787Y-127827524D01*
X337954635Y-127638150D01*
X337954458Y-127633077D01*
X337947639Y-127501429D01*
X337936677Y-127407621D01*
X337919482Y-127339483D01*
X337893964Y-127284846D01*
X337835423Y-127212089D01*
X337755348Y-127168169D01*
X337672404Y-127169130D01*
X337596136Y-127214468D01*
X337536085Y-127303681D01*
X337530996Y-127316073D01*
X337509897Y-127396644D01*
X337497672Y-127509325D01*
X337493255Y-127663059D01*
X337493199Y-127677149D01*
X337243949Y-127677149D01*
X337252587Y-127522931D01*
X337265754Y-127435480D01*
X337307917Y-127270067D01*
X337369892Y-127144943D01*
X337454894Y-127054683D01*
X337566134Y-126993867D01*
X337672577Y-126965106D01*
X337808279Y-126966389D01*
X337929081Y-127012312D01*
X338031949Y-127100052D01*
X338113852Y-127226789D01*
X338171757Y-127389702D01*
X338202631Y-127585970D01*
X338207388Y-127709522D01*
X338198777Y-127827524D01*
X338192729Y-127910409D01*
G37*
G36*
X317592483Y-127741113D02*
G01*
X317588238Y-127885742D01*
X317576302Y-128010451D01*
X317556466Y-128100326D01*
X317532173Y-128155674D01*
X317463255Y-128260808D01*
X317377080Y-128351228D01*
X317288453Y-128409834D01*
X317179884Y-128440498D01*
X317045088Y-128434857D01*
X316917110Y-128382452D01*
X316803100Y-128285121D01*
X316746513Y-128209153D01*
X316703892Y-128118944D01*
X316676447Y-128008677D01*
X316661757Y-127868430D01*
X316657398Y-127688282D01*
X316657402Y-127685059D01*
X316889187Y-127685059D01*
X316890388Y-127786458D01*
X316901097Y-127938076D01*
X316924352Y-128051423D01*
X316961967Y-128133762D01*
X317015754Y-128192356D01*
X317015836Y-128192421D01*
X317074268Y-128228284D01*
X317124032Y-128243198D01*
X317152146Y-128238846D01*
X317221188Y-128200024D01*
X317284705Y-128131774D01*
X317328865Y-128047322D01*
X317336728Y-128016266D01*
X317349096Y-127928042D01*
X317357425Y-127813131D01*
X317360369Y-127686952D01*
X317358347Y-127588205D01*
X317343520Y-127435153D01*
X317312505Y-127321068D01*
X317263173Y-127239542D01*
X317193396Y-127184168D01*
X317155699Y-127165532D01*
X317110077Y-127160057D01*
X317054667Y-127184168D01*
X317011805Y-127213234D01*
X316955259Y-127281097D01*
X316917444Y-127377905D01*
X316896155Y-127510334D01*
X316889187Y-127685059D01*
X316657402Y-127685059D01*
X316657409Y-127678963D01*
X316663352Y-127498457D01*
X316682263Y-127357313D01*
X316717115Y-127245859D01*
X316770883Y-127154425D01*
X316846543Y-127073337D01*
X316877708Y-127047484D01*
X316999658Y-126982440D01*
X317127954Y-126962061D01*
X317254619Y-126983989D01*
X317371675Y-127045862D01*
X317471144Y-127145321D01*
X317545051Y-127280005D01*
X317561140Y-127336860D01*
X317578726Y-127451757D01*
X317589243Y-127591480D01*
X317591310Y-127686952D01*
X317592483Y-127741113D01*
G37*
G36*
X327776348Y-127877458D02*
G01*
X327758713Y-128057382D01*
X327706456Y-128210929D01*
X327620930Y-128329600D01*
X327503476Y-128410775D01*
X327434233Y-128431328D01*
X327319434Y-128436450D01*
X327204282Y-128416214D01*
X327111916Y-128372862D01*
X327093933Y-128359919D01*
X327031534Y-128324854D01*
X326997016Y-128328024D01*
X326986395Y-128369315D01*
X326980683Y-128398433D01*
X326951510Y-128415531D01*
X326885502Y-128419762D01*
X326784608Y-128419762D01*
X326784608Y-127848419D01*
X327036842Y-127848419D01*
X327036843Y-127854496D01*
X327037835Y-127971410D01*
X327042095Y-128049551D01*
X327051697Y-128100098D01*
X327068714Y-128134232D01*
X327095221Y-128163130D01*
X327129379Y-128186817D01*
X327217040Y-128213928D01*
X327314524Y-128215461D01*
X327398640Y-128189408D01*
X327428723Y-128163882D01*
X327473509Y-128087376D01*
X327503454Y-127984692D01*
X327516217Y-127870679D01*
X327509457Y-127760183D01*
X327480835Y-127668052D01*
X327473418Y-127654343D01*
X327397984Y-127561485D01*
X327305145Y-127511069D01*
X327202902Y-127505618D01*
X327099256Y-127547656D01*
X327089817Y-127553984D01*
X327064889Y-127575492D01*
X327049324Y-127605105D01*
X327040925Y-127653407D01*
X327037497Y-127730984D01*
X327036842Y-127848419D01*
X326784608Y-127848419D01*
X326784608Y-127625223D01*
X326784608Y-126830685D01*
X326912299Y-126830685D01*
X327039989Y-126830685D01*
X327032110Y-127108194D01*
X327029773Y-127204599D01*
X327028459Y-127298419D01*
X327028726Y-127362160D01*
X327030628Y-127385652D01*
X327035303Y-127383999D01*
X327071893Y-127366194D01*
X327131148Y-127335154D01*
X327171414Y-127316184D01*
X327301995Y-127287411D01*
X327430542Y-127304500D01*
X327550014Y-127364358D01*
X327653374Y-127463889D01*
X327733581Y-127600000D01*
X327737374Y-127609185D01*
X327766639Y-127727089D01*
X327775910Y-127870679D01*
X327776348Y-127877458D01*
G37*
G36*
X315181827Y-127078996D02*
G01*
X315182398Y-127113898D01*
X315185610Y-127203136D01*
X315191018Y-127316790D01*
X315197898Y-127438622D01*
X315202252Y-127511042D01*
X315206530Y-127604299D01*
X315205145Y-127663163D01*
X315196484Y-127697798D01*
X315178935Y-127718369D01*
X315150886Y-127735039D01*
X315118048Y-127750153D01*
X315070845Y-127753584D01*
X315009951Y-127728541D01*
X314955375Y-127705260D01*
X314840714Y-127691418D01*
X314725469Y-127727325D01*
X314686131Y-127754427D01*
X314628626Y-127833122D01*
X314601953Y-127931396D01*
X314608968Y-128033695D01*
X314652530Y-128124465D01*
X314695552Y-128167569D01*
X314794399Y-128217399D01*
X314909594Y-128229239D01*
X315029896Y-128202787D01*
X315144068Y-128137738D01*
X315155705Y-128128614D01*
X315198152Y-128099565D01*
X315223436Y-128100895D01*
X315250102Y-128131518D01*
X315293997Y-128194383D01*
X315311120Y-128240662D01*
X315294521Y-128276374D01*
X315243692Y-128316143D01*
X315237073Y-128320593D01*
X315150840Y-128369774D01*
X315062833Y-128408734D01*
X314965944Y-128433416D01*
X314814649Y-128441493D01*
X314674817Y-128415904D01*
X314667753Y-128413466D01*
X314527885Y-128342450D01*
X314428485Y-128241498D01*
X314369144Y-128110022D01*
X314349454Y-127947434D01*
X314349805Y-127924973D01*
X314374545Y-127773717D01*
X314436710Y-127655535D01*
X314534070Y-127572431D01*
X314664396Y-127526410D01*
X314825457Y-127519477D01*
X314986168Y-127531624D01*
X314970492Y-127417257D01*
X314966555Y-127387054D01*
X314958161Y-127309584D01*
X314954816Y-127256816D01*
X314954805Y-127255399D01*
X314949423Y-127235250D01*
X314928293Y-127221698D01*
X314882739Y-127213037D01*
X314804088Y-127207567D01*
X314683664Y-127203584D01*
X314412512Y-127196425D01*
X314404756Y-127089225D01*
X314397000Y-126982026D01*
X314789414Y-126982026D01*
X315181827Y-126982026D01*
X315181827Y-127078996D01*
G37*
G36*
X333891696Y-127684735D02*
G01*
X333894316Y-127974711D01*
X333898388Y-128425279D01*
X333525956Y-128415796D01*
X333383347Y-128411580D01*
X333274395Y-128406143D01*
X333195975Y-128398150D01*
X333137921Y-128386084D01*
X333090069Y-128368431D01*
X333042254Y-128343673D01*
X333031112Y-128337292D01*
X332919733Y-128254422D01*
X332851587Y-128157383D01*
X332820192Y-128037225D01*
X332818007Y-128012288D01*
X332825474Y-127935992D01*
X333069132Y-127935992D01*
X333073621Y-128019960D01*
X333110802Y-128099780D01*
X333177847Y-128164348D01*
X333271931Y-128202559D01*
X333304234Y-128207551D01*
X333390422Y-128215031D01*
X333484583Y-128217974D01*
X333620159Y-128217974D01*
X333620159Y-127974711D01*
X333620159Y-127731447D01*
X333433922Y-127745532D01*
X333433220Y-127745586D01*
X333328920Y-127758249D01*
X333234184Y-127777818D01*
X333169441Y-127800079D01*
X333100164Y-127858979D01*
X333069132Y-127935992D01*
X332825474Y-127935992D01*
X332831121Y-127878297D01*
X332887041Y-127767937D01*
X332983767Y-127685510D01*
X333083073Y-127628357D01*
X333012783Y-127569212D01*
X332979401Y-127536620D01*
X332917876Y-127433094D01*
X332901566Y-127343519D01*
X333143313Y-127343519D01*
X333160273Y-127423161D01*
X333217600Y-127490519D01*
X333311916Y-127535820D01*
X333323411Y-127538817D01*
X333417416Y-127555248D01*
X333512959Y-127562024D01*
X333620159Y-127562165D01*
X333620159Y-127360377D01*
X333620159Y-127158590D01*
X333442448Y-127158590D01*
X333356247Y-127160162D01*
X333288705Y-127168312D01*
X333242742Y-127187088D01*
X333202826Y-127220502D01*
X333170101Y-127261360D01*
X333143313Y-127343519D01*
X332901566Y-127343519D01*
X332896381Y-127315045D01*
X332915868Y-127195410D01*
X332977290Y-127087129D01*
X333033715Y-127036605D01*
X333118552Y-126995467D01*
X333233791Y-126967619D01*
X333385857Y-126951556D01*
X333581176Y-126945774D01*
X333885005Y-126944191D01*
X333888765Y-127360377D01*
X333891696Y-127684735D01*
G37*
G36*
X324237041Y-128115397D02*
G01*
X324237004Y-128119299D01*
X324214237Y-128222778D01*
X324158017Y-128322322D01*
X324080912Y-128395390D01*
X324026949Y-128421199D01*
X323909067Y-128439702D01*
X323782120Y-128419503D01*
X323659944Y-128361710D01*
X323560852Y-128296134D01*
X323545338Y-128357948D01*
X323529703Y-128395799D01*
X323495398Y-128415193D01*
X323427327Y-128419762D01*
X323324830Y-128419762D01*
X323333000Y-128000193D01*
X323581231Y-128000193D01*
X323581655Y-128039030D01*
X323588387Y-128106424D01*
X323608311Y-128147723D01*
X323647780Y-128180106D01*
X323699621Y-128208263D01*
X323794046Y-128235307D01*
X323879496Y-128232744D01*
X323940805Y-128199564D01*
X323957046Y-128179747D01*
X323987406Y-128106310D01*
X323969910Y-128037244D01*
X323906589Y-127974794D01*
X323799474Y-127921207D01*
X323650596Y-127878727D01*
X323650425Y-127878690D01*
X323610600Y-127872431D01*
X323590038Y-127883160D01*
X323582372Y-127922030D01*
X323581231Y-128000193D01*
X323333000Y-128000193D01*
X323333303Y-127984657D01*
X323337841Y-127812399D01*
X323345589Y-127671137D01*
X323358284Y-127565455D01*
X323377898Y-127487699D01*
X323406402Y-127430215D01*
X323445767Y-127385349D01*
X323497966Y-127345449D01*
X323558387Y-127317961D01*
X323669374Y-127298261D01*
X323799375Y-127298624D01*
X323932827Y-127318695D01*
X324054171Y-127358121D01*
X324111133Y-127384516D01*
X324165562Y-127412638D01*
X324186594Y-127427795D01*
X324185061Y-127434046D01*
X324168805Y-127471290D01*
X324143003Y-127522525D01*
X324117957Y-127567852D01*
X324103970Y-127587376D01*
X324087578Y-127582080D01*
X324035360Y-127563101D01*
X323960762Y-127535083D01*
X323940638Y-127527693D01*
X323808906Y-127495652D01*
X323707491Y-127503721D01*
X323636003Y-127552014D01*
X323594050Y-127640642D01*
X323591507Y-127651117D01*
X323588639Y-127683104D01*
X323605220Y-127703494D01*
X323651332Y-127719043D01*
X323737057Y-127736511D01*
X323888843Y-127774383D01*
X324029962Y-127831138D01*
X324134894Y-127899714D01*
X324196609Y-127976442D01*
X324200234Y-127984298D01*
X324226346Y-128056536D01*
X324235390Y-128106310D01*
X324237041Y-128115397D01*
G37*
%TD*%
D11*
%TO.C,S23*%
X153670000Y-121443750D03*
D12*
X158750000Y-121443750D03*
D11*
X163830000Y-121443750D03*
D13*
X154940000Y-118903750D03*
X161290000Y-116363750D03*
%TD*%
D11*
%TO.C,S51*%
X148907500Y-159543750D03*
D12*
X153987500Y-159543750D03*
D11*
X159067500Y-159543750D03*
D13*
X150177500Y-157003750D03*
X156527500Y-154463750D03*
%TD*%
D11*
%TO.C,S3*%
X86995000Y-102393750D03*
D12*
X92075000Y-102393750D03*
D11*
X97155000Y-102393750D03*
D13*
X88265000Y-99853750D03*
X94615000Y-97313750D03*
%TD*%
D11*
%TO.C,S42*%
X215582500Y-140493750D03*
D12*
X220662500Y-140493750D03*
D11*
X225742500Y-140493750D03*
D13*
X216852500Y-137953750D03*
X223202500Y-135413750D03*
%TD*%
D11*
%TO.C,S57*%
X263207500Y-159543750D03*
D12*
X268287500Y-159543750D03*
D11*
X273367500Y-159543750D03*
D13*
X264477500Y-157003750D03*
X270827500Y-154463750D03*
%TD*%
D11*
%TO.C,S44*%
X253682500Y-140493750D03*
D12*
X258762500Y-140493750D03*
D11*
X263842500Y-140493750D03*
D13*
X254952500Y-137953750D03*
X261302500Y-135413750D03*
%TD*%
D14*
%TO.C,LED2*%
X47942500Y-172243750D03*
D15*
X50482500Y-172243750D03*
%TD*%
D11*
%TO.C,S45*%
X272732500Y-140493750D03*
D12*
X277812500Y-140493750D03*
D11*
X282892500Y-140493750D03*
D13*
X274002500Y-137953750D03*
X280352500Y-135413750D03*
%TD*%
D11*
%TO.C,S6*%
X144145000Y-102393750D03*
D12*
X149225000Y-102393750D03*
D11*
X154305000Y-102393750D03*
D13*
X145415000Y-99853750D03*
X151765000Y-97313750D03*
%TD*%
D11*
%TO.C,S2*%
X67945000Y-102393750D03*
D12*
X73025000Y-102393750D03*
D11*
X78105000Y-102393750D03*
D13*
X69215000Y-99853750D03*
X75565000Y-97313750D03*
%TD*%
D11*
%TO.C,S35*%
X75088750Y-140493750D03*
D12*
X80168750Y-140493750D03*
D11*
X85248750Y-140493750D03*
D13*
X76358750Y-137953750D03*
X82708750Y-135413750D03*
%TD*%
D11*
%TO.C,S5*%
X125095000Y-102393750D03*
D12*
X130175000Y-102393750D03*
D11*
X135255000Y-102393750D03*
D13*
X126365000Y-99853750D03*
X132715000Y-97313750D03*
%TD*%
D11*
%TO.C,S31*%
X306070000Y-121443750D03*
D12*
X311150000Y-121443750D03*
D11*
X316230000Y-121443750D03*
D13*
X307340000Y-118903750D03*
X313690000Y-116363750D03*
%TD*%
D11*
%TO.C,S50*%
X129857500Y-159543750D03*
D12*
X134937500Y-159543750D03*
D11*
X140017500Y-159543750D03*
D13*
X131127500Y-157003750D03*
X137477500Y-154463750D03*
%TD*%
D11*
%TO.C,S4*%
X106045000Y-102393750D03*
D12*
X111125000Y-102393750D03*
D11*
X116205000Y-102393750D03*
D13*
X107315000Y-99853750D03*
X113665000Y-97313750D03*
%TD*%
D11*
%TO.C,S54*%
X206057500Y-159543750D03*
D12*
X211137500Y-159543750D03*
D11*
X216217500Y-159543750D03*
D13*
X207327500Y-157003750D03*
X213677500Y-154463750D03*
%TD*%
D11*
%TO.C,S33*%
X358457500Y-121443750D03*
D12*
X363537500Y-121443750D03*
D11*
X368617500Y-121443750D03*
D13*
X359727500Y-118903750D03*
X366077500Y-116363750D03*
%TD*%
D11*
%TO.C,S43*%
X234632500Y-140493750D03*
D12*
X239712500Y-140493750D03*
D11*
X244792500Y-140493750D03*
D13*
X235902500Y-137953750D03*
X242252500Y-135413750D03*
%TD*%
D11*
%TO.C,S41*%
X196532500Y-140493750D03*
D12*
X201612500Y-140493750D03*
D11*
X206692500Y-140493750D03*
D13*
X197802500Y-137953750D03*
X204152500Y-135413750D03*
%TD*%
D11*
%TO.C,S30*%
X287020000Y-121443750D03*
D12*
X292100000Y-121443750D03*
D11*
X297180000Y-121443750D03*
D13*
X288290000Y-118903750D03*
X294640000Y-116363750D03*
%TD*%
D11*
%TO.C,S38*%
X139382500Y-140493750D03*
D12*
X144462500Y-140493750D03*
D11*
X149542500Y-140493750D03*
D13*
X140652500Y-137953750D03*
X147002500Y-135413750D03*
%TD*%
D11*
%TO.C,S29*%
X267970000Y-121443750D03*
D12*
X273050000Y-121443750D03*
D11*
X278130000Y-121443750D03*
D13*
X269240000Y-118903750D03*
X275590000Y-116363750D03*
%TD*%
D11*
%TO.C,S49*%
X110807500Y-159543750D03*
D12*
X115887500Y-159543750D03*
D11*
X120967500Y-159543750D03*
D13*
X112077500Y-157003750D03*
X118427500Y-154463750D03*
%TD*%
D14*
%TO.C,LED1*%
X47942500Y-165893750D03*
D15*
X50482500Y-165893750D03*
%TD*%
D11*
%TO.C,S62*%
X94138750Y-178593750D03*
D12*
X99218750Y-178593750D03*
D11*
X104298750Y-178593750D03*
D13*
X95408750Y-176053750D03*
X101758750Y-173513750D03*
%TD*%
D11*
%TO.C,S17*%
X358457500Y-102393750D03*
D12*
X363537500Y-102393750D03*
D11*
X368617500Y-102393750D03*
D13*
X359727500Y-99853750D03*
X366077500Y-97313750D03*
%TD*%
D11*
%TO.C,S68*%
X320357500Y-178593750D03*
D12*
X325437500Y-178593750D03*
D11*
X330517500Y-178593750D03*
D13*
X321627500Y-176053750D03*
X327977500Y-173513750D03*
%TD*%
D11*
%TO.C,S22*%
X134620000Y-121443750D03*
D12*
X139700000Y-121443750D03*
D11*
X144780000Y-121443750D03*
D13*
X135890000Y-118903750D03*
X142240000Y-116363750D03*
%TD*%
D11*
%TO.C,S66*%
X263207500Y-178593750D03*
D12*
X268287500Y-178593750D03*
D11*
X273367500Y-178593750D03*
D13*
X264477500Y-176053750D03*
X270827500Y-173513750D03*
%TD*%
D16*
%TO.C,SW2*%
X370562500Y-157519000D03*
D17*
X375562500Y-157519000D03*
X373062500Y-157519000D03*
D18*
X367462500Y-150019000D03*
X378662500Y-150019000D03*
D17*
X375562500Y-143019000D03*
X370562500Y-143019000D03*
%TD*%
D11*
%TO.C,S16*%
X334645000Y-102393750D03*
D12*
X339725000Y-102393750D03*
D11*
X344805000Y-102393750D03*
D13*
X335915000Y-99853750D03*
X342265000Y-97313750D03*
%TD*%
D11*
%TO.C,S32*%
X329882500Y-121443750D03*
D12*
X334962500Y-121443750D03*
D11*
X340042500Y-121443750D03*
D13*
X331152500Y-118903750D03*
X337502500Y-116363750D03*
%TD*%
D11*
%TO.C,S21*%
X115570000Y-121443750D03*
D12*
X120650000Y-121443750D03*
D11*
X125730000Y-121443750D03*
D13*
X116840000Y-118903750D03*
X123190000Y-116363750D03*
%TD*%
D11*
%TO.C,S65*%
X220345000Y-178593750D03*
D19*
X221615000Y-176053750D03*
D12*
X225425000Y-178593750D03*
D19*
X227965000Y-173513750D03*
D11*
X230505000Y-178593750D03*
D20*
X218340000Y-176053750D03*
X231267000Y-173513750D03*
%TD*%
D11*
%TO.C,S52*%
X167957500Y-159543750D03*
D12*
X173037500Y-159543750D03*
D11*
X178117500Y-159543750D03*
D13*
X169227500Y-157003750D03*
X175577500Y-154463750D03*
%TD*%
D11*
%TO.C,S67*%
X289401250Y-178593750D03*
D12*
X294481250Y-178593750D03*
D11*
X299561250Y-178593750D03*
D13*
X290671250Y-176053750D03*
X297021250Y-173513750D03*
%TD*%
D11*
%TO.C,S69*%
X339407500Y-178593750D03*
D12*
X344487500Y-178593750D03*
D11*
X349567500Y-178593750D03*
D13*
X340677500Y-176053750D03*
X347027500Y-173513750D03*
%TD*%
D11*
%TO.C,S40*%
X177482500Y-140493750D03*
D12*
X182562500Y-140493750D03*
D11*
X187642500Y-140493750D03*
D13*
X178752500Y-137953750D03*
X185102500Y-135413750D03*
%TD*%
D11*
%TO.C,S47*%
X322738750Y-140493750D03*
D19*
X324008750Y-137953750D03*
D12*
X327818750Y-140493750D03*
D19*
X330358750Y-135413750D03*
D11*
X332898750Y-140493750D03*
D20*
X320733750Y-137953750D03*
X333660750Y-135413750D03*
%TD*%
D11*
%TO.C,S61*%
X70326250Y-178593750D03*
D12*
X75406250Y-178593750D03*
D11*
X80486250Y-178593750D03*
D13*
X71596250Y-176053750D03*
X77946250Y-173513750D03*
%TD*%
D11*
%TO.C,S13*%
X277495000Y-102393750D03*
D12*
X282575000Y-102393750D03*
D11*
X287655000Y-102393750D03*
D13*
X278765000Y-99853750D03*
X285115000Y-97313750D03*
%TD*%
D11*
%TO.C,S53*%
X187007500Y-159543750D03*
D12*
X192087500Y-159543750D03*
D11*
X197167500Y-159543750D03*
D13*
X188277500Y-157003750D03*
X194627500Y-154463750D03*
%TD*%
D11*
%TO.C,S64*%
X163195000Y-178593750D03*
D19*
X164465000Y-176053750D03*
D12*
X168275000Y-178593750D03*
D19*
X170815000Y-173513750D03*
D11*
X173355000Y-178593750D03*
D20*
X161190000Y-176053750D03*
X174117000Y-173513750D03*
%TD*%
D11*
%TO.C,S55*%
X225107500Y-159543750D03*
D12*
X230187500Y-159543750D03*
D11*
X235267500Y-159543750D03*
D13*
X226377500Y-157003750D03*
X232727500Y-154463750D03*
%TD*%
D11*
%TO.C,S12*%
X258445000Y-102393750D03*
D12*
X263525000Y-102393750D03*
D11*
X268605000Y-102393750D03*
D13*
X259715000Y-99853750D03*
X266065000Y-97313750D03*
%TD*%
D11*
%TO.C,S15*%
X315595000Y-102393750D03*
D12*
X320675000Y-102393750D03*
D11*
X325755000Y-102393750D03*
D13*
X316865000Y-99853750D03*
X323215000Y-97313750D03*
%TD*%
D11*
%TO.C,S60*%
X339407500Y-159543750D03*
D12*
X344487500Y-159543750D03*
D11*
X349567500Y-159543750D03*
D13*
X340677500Y-157003750D03*
X347027500Y-154463750D03*
%TD*%
D11*
%TO.C,S7*%
X163195000Y-102393750D03*
D12*
X168275000Y-102393750D03*
D11*
X173355000Y-102393750D03*
D13*
X164465000Y-99853750D03*
X170815000Y-97313750D03*
%TD*%
D11*
%TO.C,S63*%
X120332500Y-178593750D03*
D12*
X125412500Y-178593750D03*
D11*
X130492500Y-178593750D03*
D13*
X121602500Y-176053750D03*
X127952500Y-173513750D03*
%TD*%
D11*
%TO.C,S34*%
X44132500Y-145256250D03*
D12*
X49212500Y-145256250D03*
D11*
X54292500Y-145256250D03*
D13*
X45402500Y-142716250D03*
X51752500Y-140176250D03*
%TD*%
D11*
%TO.C,S25*%
X191770000Y-121443750D03*
D12*
X196850000Y-121443750D03*
D11*
X201930000Y-121443750D03*
D13*
X193040000Y-118903750D03*
X199390000Y-116363750D03*
%TD*%
D11*
%TO.C,S58*%
X282257500Y-159543750D03*
D12*
X287337500Y-159543750D03*
D11*
X292417500Y-159543750D03*
D13*
X283527500Y-157003750D03*
X289877500Y-154463750D03*
%TD*%
D11*
%TO.C,S1*%
X44132500Y-102393750D03*
D12*
X49212500Y-102393750D03*
D11*
X54292500Y-102393750D03*
D13*
X45402500Y-99853750D03*
X51752500Y-97313750D03*
%TD*%
D11*
%TO.C,S48*%
X79851250Y-159543750D03*
D19*
X81121250Y-157003750D03*
D12*
X84931250Y-159543750D03*
D19*
X87471250Y-154463750D03*
D11*
X90011250Y-159543750D03*
D20*
X77846250Y-157003750D03*
X90773250Y-154463750D03*
%TD*%
D11*
%TO.C,S10*%
X220345000Y-102393750D03*
D12*
X225425000Y-102393750D03*
D11*
X230505000Y-102393750D03*
D13*
X221615000Y-99853750D03*
X227965000Y-97313750D03*
%TD*%
D11*
%TO.C,S14*%
X296545000Y-102393750D03*
D12*
X301625000Y-102393750D03*
D11*
X306705000Y-102393750D03*
D13*
X297815000Y-99853750D03*
X304165000Y-97313750D03*
%TD*%
D11*
%TO.C,S11*%
X239395000Y-102393750D03*
D12*
X244475000Y-102393750D03*
D11*
X249555000Y-102393750D03*
D13*
X240665000Y-99853750D03*
X247015000Y-97313750D03*
%TD*%
D11*
%TO.C,S46*%
X291782500Y-140493750D03*
D12*
X296862500Y-140493750D03*
D11*
X301942500Y-140493750D03*
D13*
X293052500Y-137953750D03*
X299402500Y-135413750D03*
%TD*%
D11*
%TO.C,S28*%
X248920000Y-121443750D03*
D12*
X254000000Y-121443750D03*
D11*
X259080000Y-121443750D03*
D13*
X250190000Y-118903750D03*
X256540000Y-116363750D03*
%TD*%
D11*
%TO.C,S18*%
X44132500Y-126206250D03*
D12*
X49212500Y-126206250D03*
D11*
X54292500Y-126206250D03*
D13*
X45402500Y-123666250D03*
X51752500Y-121126250D03*
%TD*%
D11*
%TO.C,S26*%
X210820000Y-121443750D03*
D12*
X215900000Y-121443750D03*
D11*
X220980000Y-121443750D03*
D13*
X212090000Y-118903750D03*
X218440000Y-116363750D03*
%TD*%
D11*
%TO.C,S39*%
X158432500Y-140493750D03*
D12*
X163512500Y-140493750D03*
D11*
X168592500Y-140493750D03*
D13*
X159702500Y-137953750D03*
X166052500Y-135413750D03*
%TD*%
D11*
%TO.C,S70*%
X358457500Y-178593750D03*
D12*
X363537500Y-178593750D03*
D11*
X368617500Y-178593750D03*
D13*
X359727500Y-176053750D03*
X366077500Y-173513750D03*
%TD*%
D11*
%TO.C,S59*%
X310832500Y-159543750D03*
D19*
X312102500Y-157003750D03*
D12*
X315912500Y-159543750D03*
D19*
X318452500Y-154463750D03*
D11*
X320992500Y-159543750D03*
D20*
X308827500Y-157003750D03*
X321754500Y-154463750D03*
%TD*%
D11*
%TO.C,S24*%
X172720000Y-121443750D03*
D12*
X177800000Y-121443750D03*
D11*
X182880000Y-121443750D03*
D13*
X173990000Y-118903750D03*
X180340000Y-116363750D03*
%TD*%
D14*
%TO.C,LED3*%
X47942500Y-178593750D03*
D15*
X50482500Y-178593750D03*
%TD*%
D11*
%TO.C,S37*%
X120332500Y-140493750D03*
D12*
X125412500Y-140493750D03*
D11*
X130492500Y-140493750D03*
D13*
X121602500Y-137953750D03*
X127952500Y-135413750D03*
%TD*%
D11*
%TO.C,S9*%
X201295000Y-102393750D03*
D12*
X206375000Y-102393750D03*
D11*
X211455000Y-102393750D03*
D13*
X202565000Y-99853750D03*
X208915000Y-97313750D03*
%TD*%
D11*
%TO.C,S27*%
X229870000Y-121443750D03*
D12*
X234950000Y-121443750D03*
D11*
X240030000Y-121443750D03*
D13*
X231140000Y-118903750D03*
X237490000Y-116363750D03*
%TD*%
D11*
%TO.C,S56*%
X244157500Y-159543750D03*
D12*
X249237500Y-159543750D03*
D11*
X254317500Y-159543750D03*
D13*
X245427500Y-157003750D03*
X251777500Y-154463750D03*
%TD*%
D11*
%TO.C,S19*%
X72707500Y-121443750D03*
D12*
X77787500Y-121443750D03*
D11*
X82867500Y-121443750D03*
D13*
X73977500Y-118903750D03*
X80327500Y-116363750D03*
%TD*%
D11*
%TO.C,S20*%
X96520000Y-121443750D03*
D12*
X101600000Y-121443750D03*
D11*
X106680000Y-121443750D03*
D13*
X97790000Y-118903750D03*
X104140000Y-116363750D03*
%TD*%
D11*
%TO.C,S36*%
X101282500Y-140493750D03*
D12*
X106362500Y-140493750D03*
D11*
X111442500Y-140493750D03*
D13*
X102552500Y-137953750D03*
X108902500Y-135413750D03*
%TD*%
D11*
%TO.C,S8*%
X182245000Y-102393750D03*
D12*
X187325000Y-102393750D03*
D11*
X192405000Y-102393750D03*
D13*
X183515000Y-99853750D03*
X189865000Y-97313750D03*
%TD*%
D21*
%TO.C,D40*%
X190500000Y-142875000D03*
X190500000Y-139575000D03*
%TD*%
D22*
%TO.C,RC6*%
X347900000Y-100800000D03*
X347900000Y-99000000D03*
%TD*%
D21*
%TO.C,D56*%
X257175000Y-161925000D03*
X257175000Y-158625000D03*
%TD*%
D23*
%TO.C,C3*%
X362100000Y-141850000D03*
X363800000Y-141850000D03*
%TD*%
D21*
%TO.C,D27*%
X242887500Y-123825000D03*
X242887500Y-120525000D03*
%TD*%
%TO.C,D23*%
X166687500Y-123825000D03*
X166687500Y-120525000D03*
%TD*%
D24*
%TO.C,CRGB17*%
X291881250Y-169056250D03*
X291881250Y-170756250D03*
%TD*%
D21*
%TO.C,D54*%
X219075000Y-161925000D03*
X219075000Y-158625000D03*
%TD*%
D25*
%TO.C,RGB16*%
X252412500Y-169043750D03*
X252412500Y-172243750D03*
X247212500Y-172243750D03*
X247212500Y-169043750D03*
%TD*%
D21*
%TO.C,D48*%
X92868750Y-161925000D03*
X92868750Y-158625000D03*
%TD*%
%TO.C,D29*%
X280987500Y-123825000D03*
X280987500Y-120525000D03*
%TD*%
D24*
%TO.C,CRGB7*%
X128943750Y-110718750D03*
X128943750Y-109018750D03*
%TD*%
D21*
%TO.C,D1*%
X57150000Y-104775000D03*
X57150000Y-101475000D03*
%TD*%
%TO.C,D19*%
X85725000Y-123825000D03*
X85725000Y-120525000D03*
%TD*%
D23*
%TO.C,C10*%
X366600000Y-164306250D03*
X368300000Y-164306250D03*
%TD*%
D25*
%TO.C,RGB13*%
X124043750Y-169056250D03*
X124043750Y-172256250D03*
X118843750Y-172256250D03*
X118843750Y-169056250D03*
%TD*%
D24*
%TO.C,CRGB14*%
X160337500Y-168250000D03*
X160337500Y-169950000D03*
%TD*%
D26*
%TO.C,Y1*%
X357400000Y-142000000D03*
X357400000Y-139500000D03*
X359400000Y-139500000D03*
X359400000Y-142000000D03*
%TD*%
D25*
%TO.C,RGB17*%
X289718750Y-169043750D03*
X289718750Y-172243750D03*
X284518750Y-172243750D03*
X284518750Y-169043750D03*
%TD*%
D21*
%TO.C,D17*%
X367506250Y-107950000D03*
X367506250Y-104650000D03*
%TD*%
D27*
%TO.C,RC4*%
X346400000Y-146600000D03*
X344600000Y-146600000D03*
%TD*%
D21*
%TO.C,D70*%
X367506250Y-184150000D03*
X367506250Y-180850000D03*
%TD*%
%TO.C,D12*%
X271462500Y-104775000D03*
X271462500Y-101475000D03*
%TD*%
D25*
%TO.C,RGB5*%
X203775000Y-111137500D03*
X203775000Y-107937500D03*
X208975000Y-107937500D03*
X208975000Y-111137500D03*
%TD*%
D21*
%TO.C,D5*%
X138112500Y-104775000D03*
X138112500Y-101475000D03*
%TD*%
%TO.C,D44*%
X266700000Y-142875000D03*
X266700000Y-139575000D03*
%TD*%
%TO.C,D39*%
X171450000Y-142875000D03*
X171450000Y-139575000D03*
%TD*%
%TO.C,D3*%
X100012500Y-104775000D03*
X100012500Y-101475000D03*
%TD*%
%TO.C,D20*%
X109537500Y-123825000D03*
X109537500Y-120525000D03*
%TD*%
%TO.C,D59*%
X323850000Y-161925000D03*
X323850000Y-158625000D03*
%TD*%
D24*
%TO.C,CRGB13*%
X126206250Y-169068750D03*
X126206250Y-170768750D03*
%TD*%
D25*
%TO.C,RGB6*%
X159106250Y-111125000D03*
X159106250Y-107925000D03*
X164306250Y-107925000D03*
X164306250Y-111125000D03*
%TD*%
D21*
%TO.C,D61*%
X83343750Y-180975000D03*
X83343750Y-177675000D03*
%TD*%
D24*
%TO.C,CRGB16*%
X254356250Y-169750000D03*
X254356250Y-171450000D03*
%TD*%
D21*
%TO.C,D14*%
X309562500Y-104775000D03*
X309562500Y-101475000D03*
%TD*%
%TO.C,D16*%
X343693750Y-107950000D03*
X343693750Y-104650000D03*
%TD*%
D27*
%TO.C,RC8*%
X366500000Y-165893750D03*
X368300000Y-165893750D03*
%TD*%
D21*
%TO.C,D31*%
X319087500Y-123825000D03*
X319087500Y-120525000D03*
%TD*%
D25*
%TO.C,RGB9*%
X51950000Y-111125000D03*
X51950000Y-107925000D03*
X57150000Y-107925000D03*
X57150000Y-111125000D03*
%TD*%
D21*
%TO.C,D4*%
X119062500Y-104775000D03*
X119062500Y-101475000D03*
%TD*%
D25*
%TO.C,RGB10*%
X51593750Y-133325000D03*
X51593750Y-136525000D03*
X46393750Y-136525000D03*
X46393750Y-133325000D03*
%TD*%
D21*
%TO.C,D71*%
X367506250Y-146843750D03*
X367506250Y-143543750D03*
%TD*%
D25*
%TO.C,RGB12*%
X91281250Y-169068750D03*
X91281250Y-172268750D03*
X86081250Y-172268750D03*
X86081250Y-169068750D03*
%TD*%
D24*
%TO.C,CRGB8*%
X92431250Y-110325000D03*
X92431250Y-108625000D03*
%TD*%
D21*
%TO.C,D15*%
X328612500Y-104775000D03*
X328612500Y-101475000D03*
%TD*%
D28*
%TO.C,F1*%
X349300000Y-106200000D03*
X349300000Y-103400000D03*
%TD*%
D21*
%TO.C,D33*%
X367506250Y-127000000D03*
X367506250Y-123700000D03*
%TD*%
%TO.C,D63*%
X133350000Y-180975000D03*
X133350000Y-177675000D03*
%TD*%
%TO.C,D13*%
X290512500Y-104775000D03*
X290512500Y-101475000D03*
%TD*%
%TO.C,D62*%
X107156250Y-180975000D03*
X107156250Y-177675000D03*
%TD*%
%TO.C,D43*%
X247650000Y-142875000D03*
X247650000Y-139575000D03*
%TD*%
%TO.C,D64*%
X176212500Y-180975000D03*
X176212500Y-177675000D03*
%TD*%
%TO.C,D2*%
X80168750Y-104775000D03*
X80168750Y-101475000D03*
%TD*%
%TO.C,D58*%
X295275000Y-161925000D03*
X295275000Y-158625000D03*
%TD*%
%TO.C,D65*%
X233362500Y-180975000D03*
X233362500Y-177675000D03*
%TD*%
D29*
%TO.C,U1*%
X350300000Y-140200000D03*
D30*
X347800000Y-136800000D03*
X348300000Y-136800000D03*
X348800000Y-136800000D03*
X349300000Y-136800000D03*
X349800000Y-136800000D03*
X350300000Y-136800000D03*
X350800000Y-136800000D03*
X351300000Y-136800000D03*
X351800000Y-136800000D03*
X352300000Y-136800000D03*
X352800000Y-136800000D03*
D31*
X353700000Y-137700000D03*
X353700000Y-138200000D03*
X353700000Y-138700000D03*
X353700000Y-139200000D03*
X353700000Y-139700000D03*
X353700000Y-140200000D03*
X353700000Y-140700000D03*
X353700000Y-141200000D03*
X353700000Y-141700000D03*
X353700000Y-142200000D03*
X353700000Y-142700000D03*
D30*
X352800000Y-143600000D03*
X352300000Y-143600000D03*
X351800000Y-143600000D03*
X351300000Y-143600000D03*
X350800000Y-143600000D03*
X350300000Y-143600000D03*
X349800000Y-143600000D03*
X349300000Y-143600000D03*
X348800000Y-143600000D03*
X348300000Y-143600000D03*
X347800000Y-143600000D03*
D31*
X346900000Y-142700000D03*
X346900000Y-142200000D03*
X346900000Y-141700000D03*
X346900000Y-141200000D03*
X346900000Y-140700000D03*
X346900000Y-140200000D03*
X346900000Y-139700000D03*
X346900000Y-139200000D03*
X346900000Y-138700000D03*
X346900000Y-138200000D03*
X346900000Y-137700000D03*
%TD*%
D21*
%TO.C,D22*%
X147637500Y-123825000D03*
X147637500Y-120525000D03*
%TD*%
%TO.C,D6*%
X157162500Y-104775000D03*
X157162500Y-101475000D03*
%TD*%
D32*
%TO.C,USB1*%
X348718824Y-93368750D03*
X354498824Y-93368750D03*
D33*
X348383824Y-94813750D03*
X349158824Y-94813750D03*
D34*
X349858824Y-94813750D03*
X350358824Y-94813750D03*
X350858824Y-94813750D03*
X351358824Y-94813750D03*
X351858824Y-94813750D03*
X352358824Y-94813750D03*
X352858824Y-94813750D03*
X353358824Y-94813750D03*
D33*
X354058824Y-94813750D03*
X354833824Y-94813750D03*
D35*
X347288824Y-89718750D03*
D36*
X347288824Y-93898750D03*
D35*
X355928824Y-89718750D03*
D36*
X355928824Y-93898750D03*
%TD*%
D21*
%TO.C,D37*%
X133350000Y-142875000D03*
X133350000Y-139575000D03*
%TD*%
%TO.C,D49*%
X123825000Y-161925000D03*
X123825000Y-158625000D03*
%TD*%
%TO.C,D9*%
X214312500Y-104775000D03*
X214312500Y-101475000D03*
%TD*%
D25*
%TO.C,RGB4*%
X248006250Y-111125000D03*
X248006250Y-107925000D03*
X253206250Y-107925000D03*
X253206250Y-111125000D03*
%TD*%
D21*
%TO.C,D42*%
X228600000Y-142875000D03*
X228600000Y-139575000D03*
%TD*%
D37*
%TO.C,U2*%
X352900000Y-99100000D03*
D38*
X352900000Y-100800000D03*
X350600000Y-100800000D03*
X350600000Y-98900000D03*
%TD*%
D24*
%TO.C,CRGB11*%
X61912500Y-167481250D03*
X61912500Y-169181250D03*
%TD*%
D21*
%TO.C,D46*%
X304800000Y-142875000D03*
X304800000Y-139575000D03*
%TD*%
D25*
%TO.C,RGB1*%
X355956250Y-111918750D03*
X355956250Y-108718750D03*
X361156250Y-108718750D03*
X361156250Y-111918750D03*
%TD*%
D39*
%TO.C,RGB20*%
X371462500Y-147418750D03*
X374662500Y-147418750D03*
X374662500Y-152618750D03*
X371462500Y-152618750D03*
%TD*%
D24*
%TO.C,CRGB12*%
X93662500Y-169750000D03*
X93662500Y-171450000D03*
%TD*%
D22*
%TO.C,RC1*%
X348620000Y-130900000D03*
X348620000Y-129100000D03*
%TD*%
D21*
%TO.C,D11*%
X252412500Y-104775000D03*
X252412500Y-101475000D03*
%TD*%
D25*
%TO.C,RGB14*%
X157956250Y-169043750D03*
X157956250Y-172243750D03*
X152756250Y-172243750D03*
X152756250Y-169043750D03*
%TD*%
D21*
%TO.C,D21*%
X128587500Y-123825000D03*
X128587500Y-120525000D03*
%TD*%
D23*
%TO.C,C2*%
X352600000Y-132900000D03*
X350900000Y-132900000D03*
%TD*%
D27*
%TO.C,RLED1*%
X57731250Y-174625000D03*
X59531250Y-174625000D03*
%TD*%
D23*
%TO.C,C9*%
X366600000Y-162718750D03*
X368300000Y-162718750D03*
%TD*%
D21*
%TO.C,D57*%
X276225000Y-161925000D03*
X276225000Y-158625000D03*
%TD*%
%TO.C,D34*%
X57150000Y-147637500D03*
X57150000Y-144337500D03*
%TD*%
D25*
%TO.C,RGB7*%
X121006250Y-111125000D03*
X121006250Y-107925000D03*
X126206250Y-107925000D03*
X126206250Y-111125000D03*
%TD*%
D21*
%TO.C,D67*%
X302418750Y-180975000D03*
X302418750Y-177675000D03*
%TD*%
D25*
%TO.C,RGB2*%
X323412500Y-111125000D03*
X323412500Y-107925000D03*
X328612500Y-107925000D03*
X328612500Y-111125000D03*
%TD*%
D21*
%TO.C,D18*%
X57150000Y-128587500D03*
X57150000Y-125287500D03*
%TD*%
%TO.C,D32*%
X342900000Y-123825000D03*
X342900000Y-120525000D03*
%TD*%
%TO.C,D50*%
X142875000Y-161925000D03*
X142875000Y-158625000D03*
%TD*%
D24*
%TO.C,CRGB18*%
X325218750Y-169056250D03*
X325218750Y-170756250D03*
%TD*%
D25*
%TO.C,RGB8*%
X84493750Y-111125000D03*
X84493750Y-107925000D03*
X89693750Y-107925000D03*
X89693750Y-111125000D03*
%TD*%
D21*
%TO.C,D52*%
X180975000Y-161925000D03*
X180975000Y-158625000D03*
%TD*%
D27*
%TO.C,RLED2*%
X57731250Y-177800000D03*
X59531250Y-177800000D03*
%TD*%
D24*
%TO.C,CRGB15*%
X207931250Y-169781250D03*
X207931250Y-171481250D03*
%TD*%
D22*
%TO.C,RC7*%
X355400000Y-100800000D03*
X355400000Y-99000000D03*
%TD*%
D21*
%TO.C,D24*%
X185737500Y-123825000D03*
X185737500Y-120525000D03*
%TD*%
%TO.C,D51*%
X161925000Y-161925000D03*
X161925000Y-158625000D03*
%TD*%
D24*
%TO.C,CRGB3*%
X294262500Y-110318750D03*
X294262500Y-108618750D03*
%TD*%
%TO.C,CRGB2*%
X330775000Y-110318750D03*
X330775000Y-108618750D03*
%TD*%
D21*
%TO.C,D26*%
X223837500Y-123825000D03*
X223837500Y-120525000D03*
%TD*%
D40*
%TO.C,SW1*%
X366600000Y-130200000D03*
X360400000Y-133900000D03*
X366600000Y-133900000D03*
X360400000Y-130200000D03*
%TD*%
D21*
%TO.C,D45*%
X285750000Y-142875000D03*
X285750000Y-139575000D03*
%TD*%
%TO.C,D28*%
X261937500Y-123825000D03*
X261937500Y-120525000D03*
%TD*%
%TO.C,D35*%
X88106250Y-142875000D03*
X88106250Y-139575000D03*
%TD*%
%TO.C,D68*%
X329406250Y-184150000D03*
X329406250Y-180850000D03*
%TD*%
D27*
%TO.C,RC3*%
X356600000Y-133500000D03*
X358400000Y-133500000D03*
%TD*%
D25*
%TO.C,RGB3*%
X286900000Y-111125000D03*
X286900000Y-107925000D03*
X292100000Y-107925000D03*
X292100000Y-111125000D03*
%TD*%
%TO.C,RGB19*%
X359568750Y-169043750D03*
X359568750Y-172243750D03*
X354368750Y-172243750D03*
X354368750Y-169043750D03*
%TD*%
D24*
%TO.C,CRGB10*%
X53756250Y-134018750D03*
X53756250Y-135718750D03*
%TD*%
D25*
%TO.C,RGB11*%
X59750000Y-166787500D03*
X59750000Y-169987500D03*
X54550000Y-169987500D03*
X54550000Y-166787500D03*
%TD*%
D21*
%TO.C,D8*%
X195262500Y-104775000D03*
X195262500Y-101475000D03*
%TD*%
D24*
%TO.C,CRGB1*%
X363537500Y-111125000D03*
X363537500Y-109425000D03*
%TD*%
D23*
%TO.C,C4*%
X362100000Y-139500000D03*
X363800000Y-139500000D03*
%TD*%
D24*
%TO.C,CRGB19*%
X362306250Y-169068750D03*
X362306250Y-170768750D03*
%TD*%
D21*
%TO.C,D69*%
X348456250Y-184150000D03*
X348456250Y-180850000D03*
%TD*%
D23*
%TO.C,C7*%
X355000000Y-145800000D03*
X353300000Y-145800000D03*
%TD*%
D21*
%TO.C,D66*%
X276225000Y-180975000D03*
X276225000Y-177675000D03*
%TD*%
D23*
%TO.C,CRGB20*%
X372156250Y-154781250D03*
X373856250Y-154781250D03*
%TD*%
%TO.C,C8*%
X358500000Y-135600000D03*
X356800000Y-135600000D03*
%TD*%
D24*
%TO.C,CRGB4*%
X255368750Y-110318750D03*
X255368750Y-108618750D03*
%TD*%
D27*
%TO.C,RC9*%
X366500000Y-161131250D03*
X368300000Y-161131250D03*
%TD*%
D24*
%TO.C,CRGB6*%
X166687500Y-110318750D03*
X166687500Y-108618750D03*
%TD*%
%TO.C,C5*%
X346900000Y-132800000D03*
X346900000Y-134500000D03*
%TD*%
%TO.C,CRGB5*%
X211931250Y-110331250D03*
X211931250Y-108631250D03*
%TD*%
D25*
%TO.C,RGB15*%
X205581250Y-169043750D03*
X205581250Y-172243750D03*
X200381250Y-172243750D03*
X200381250Y-169043750D03*
%TD*%
D24*
%TO.C,C6*%
X344700000Y-142700000D03*
X344700000Y-144400000D03*
%TD*%
D22*
%TO.C,RC2*%
X350600000Y-129100000D03*
X350600000Y-130900000D03*
%TD*%
D21*
%TO.C,D7*%
X176212500Y-104775000D03*
X176212500Y-101475000D03*
%TD*%
D27*
%TO.C,RLED3*%
X57731250Y-180975000D03*
X59531250Y-180975000D03*
%TD*%
D21*
%TO.C,D38*%
X152400000Y-142875000D03*
X152400000Y-139575000D03*
%TD*%
%TO.C,D55*%
X238125000Y-161925000D03*
X238125000Y-158625000D03*
%TD*%
%TO.C,D53*%
X200025000Y-161925000D03*
X200025000Y-158625000D03*
%TD*%
%TO.C,D30*%
X300037500Y-123825000D03*
X300037500Y-120525000D03*
%TD*%
%TO.C,D47*%
X335756250Y-142875000D03*
X335756250Y-139575000D03*
%TD*%
D24*
%TO.C,CRGB9*%
X59531250Y-110331250D03*
X59531250Y-108631250D03*
%TD*%
D21*
%TO.C,D41*%
X209550000Y-142875000D03*
X209550000Y-139575000D03*
%TD*%
%TO.C,D36*%
X114300000Y-142875000D03*
X114300000Y-139575000D03*
%TD*%
%TO.C,D10*%
X233362500Y-104775000D03*
X233362500Y-101475000D03*
%TD*%
%TO.C,D25*%
X204787500Y-123825000D03*
X204787500Y-120525000D03*
%TD*%
D25*
%TO.C,RGB18*%
X323056250Y-169043750D03*
X323056250Y-172243750D03*
X317856250Y-172243750D03*
X317856250Y-169043750D03*
%TD*%
D21*
%TO.C,D60*%
X348456250Y-165100000D03*
X348456250Y-161800000D03*
%TD*%
M02*
