  0
SECTION
  2
HEADER
  9
$ACADVER
  1
AC1009
  9
$FILLMODE
 70
 0
  9
$SPLFRAME
 70
 1
  9
$EXTMIN
 10
0
 20
0
 30
0.0
  9
$EXTMAX
 10
1058.33
 20
1058.33
 30
0.0
  0
ENDSEC
  0
SECTION
  2
TABLES
  0
TABLE
  2
LAYER
 70
1
  0
LAYER
  2
0
 70
     0
 62
     7
  6
CONTINUOUS
  0
ENDTAB
  0
ENDSEC
  0
SECTION
  2
ENTITIES
  0
LINE
  8
0
 62
     0
 10
0.0950846
 20
95.5075
 30
0.0
 11
333.47
 21
95.5075
 31
0.0
  0
LINE
  8
0
 62
     0
 10
333.47
 20
95.5075
 30
0.0
 11
333.47
 21
0.257693
 31
0.0
  0
LINE
  8
0
 62
     0
 10
333.47
 20
0.257693
 30
0.0
 11
0.0950846
 21
0.257693
 31
0.0
  0
LINE
  8
0
 62
     0
 10
0.0950846
 20
0.257693
 30
0.0
 11
0.0950846
 21
95.5075
 31
0.0
  0
LINE
  8
0
 62
     0
 10
121.682
 20
16.7831
 30
0.0
 11
121.682
 21
12.0826
 31
0.0
  0
LINE
  8
0
 62
     0
 10
121.682
 20
12.0826
 30
0.0
 11
113.006
 21
12.0826
 31
0.0
  0
LINE
  8
0
 62
     0
 10
113.006
 20
12.0826
 30
0.0
 11
113.006
 21
15.3128
 31
0.0
  0
LINE
  8
0
 62
     0
 10
113.006
 20
15.3128
 30
0.0
 11
106.256
 21
15.3128
 31
0.0
  0
LINE
  8
0
 62
     0
 10
106.256
 20
15.3128
 30
0.0
 11
106.256
 21
12.0826
 31
0.0
  0
LINE
  8
0
 62
     0
 10
106.256
 20
12.0826
 30
0.0
 11
105.431
 21
12.0826
 31
0.0
  0
LINE
  8
0
 62
     0
 10
105.431
 20
12.0826
 30
0.0
 11
105.431
 21
9.28384
 31
0.0
  0
LINE
  8
0
 62
     0
 10
105.431
 20
9.28384
 30
0.0
 11
106.256
 21
9.28384
 31
0.0
  0
LINE
  8
0
 62
     0
 10
106.256
 20
9.28384
 30
0.0
 11
106.256
 21
3.01377
 31
0.0
  0
LINE
  8
0
 62
     0
 10
106.256
 20
3.01377
 30
0.0
 11
107.982
 21
3.01377
 31
0.0
  0
LINE
  8
0
 62
     0
 10
107.982
 20
3.01377
 30
0.0
 11
107.982
 21
1.8135
 31
0.0
  0
LINE
  8
0
 62
     0
 10
107.982
 20
1.8135
 30
0.0
 11
111.282
 21
1.8135
 31
0.0
  0
LINE
  8
0
 62
     0
 10
111.282
 20
1.8135
 30
0.0
 11
111.282
 21
3.01377
 31
0.0
  0
LINE
  8
0
 62
     0
 10
111.282
 20
3.01377
 30
0.0
 11
113.006
 21
3.01377
 31
0.0
  0
LINE
  8
0
 62
     0
 10
113.006
 20
3.01377
 30
0.0
 11
113.006
 21
7.48273
 31
0.0
  0
LINE
  8
0
 62
     0
 10
113.006
 20
7.48273
 30
0.0
 11
121.682
 21
7.48273
 31
0.0
  0
LINE
  8
0
 62
     0
 10
121.682
 20
7.48273
 30
0.0
 11
121.682
 21
2.78364
 31
0.0
  0
LINE
  8
0
 62
     0
 10
121.682
 20
2.78364
 30
0.0
 11
135.682
 21
2.78364
 31
0.0
  0
LINE
  8
0
 62
     0
 10
135.682
 20
2.78364
 30
0.0
 11
135.682
 21
7.48273
 31
0.0
  0
LINE
  8
0
 62
     0
 10
135.682
 20
7.48273
 30
0.0
 11
144.356
 21
7.48273
 31
0.0
  0
LINE
  8
0
 62
     0
 10
144.356
 20
7.48273
 30
0.0
 11
144.356
 21
3.01377
 31
0.0
  0
LINE
  8
0
 62
     0
 10
144.356
 20
3.01377
 30
0.0
 11
146.082
 21
3.01377
 31
0.0
  0
LINE
  8
0
 62
     0
 10
146.082
 20
3.01377
 30
0.0
 11
146.082
 21
1.8135
 31
0.0
  0
LINE
  8
0
 62
     0
 10
146.082
 20
1.8135
 30
0.0
 11
149.382
 21
1.8135
 31
0.0
  0
LINE
  8
0
 62
     0
 10
149.382
 20
1.8135
 30
0.0
 11
149.382
 21
3.01377
 31
0.0
  0
LINE
  8
0
 62
     0
 10
149.382
 20
3.01377
 30
0.0
 11
151.106
 21
3.01377
 31
0.0
  0
LINE
  8
0
 62
     0
 10
151.106
 20
3.01377
 30
0.0
 11
151.106
 21
9.28384
 31
0.0
  0
LINE
  8
0
 62
     0
 10
151.106
 20
9.28384
 30
0.0
 11
151.932
 21
9.28384
 31
0.0
  0
LINE
  8
0
 62
     0
 10
151.932
 20
9.28384
 30
0.0
 11
151.932
 21
12.0826
 31
0.0
  0
LINE
  8
0
 62
     0
 10
151.932
 20
12.0826
 30
0.0
 11
151.106
 21
12.0826
 31
0.0
  0
LINE
  8
0
 62
     0
 10
151.106
 20
12.0826
 30
0.0
 11
151.106
 21
15.3128
 31
0.0
  0
LINE
  8
0
 62
     0
 10
151.106
 20
15.3128
 30
0.0
 11
144.356
 21
15.3128
 31
0.0
  0
LINE
  8
0
 62
     0
 10
144.356
 20
15.3128
 30
0.0
 11
144.356
 21
12.0826
 31
0.0
  0
LINE
  8
0
 62
     0
 10
144.356
 20
12.0826
 30
0.0
 11
135.682
 21
12.0826
 31
0.0
  0
LINE
  8
0
 62
     0
 10
135.682
 20
12.0826
 30
0.0
 11
135.682
 21
16.7831
 31
0.0
  0
LINE
  8
0
 62
     0
 10
135.682
 20
16.7831
 30
0.0
 11
121.682
 21
16.7831
 31
0.0
  0
LINE
  8
0
 62
     0
 10
178.832
 20
16.7831
 30
0.0
 11
178.832
 21
12.0826
 31
0.0
  0
LINE
  8
0
 62
     0
 10
178.832
 20
12.0826
 30
0.0
 11
170.156
 21
12.0826
 31
0.0
  0
LINE
  8
0
 62
     0
 10
170.156
 20
12.0826
 30
0.0
 11
170.156
 21
15.3128
 31
0.0
  0
LINE
  8
0
 62
     0
 10
170.156
 20
15.3128
 30
0.0
 11
163.406
 21
15.3128
 31
0.0
  0
LINE
  8
0
 62
     0
 10
163.406
 20
15.3128
 30
0.0
 11
163.406
 21
12.0826
 31
0.0
  0
LINE
  8
0
 62
     0
 10
163.406
 20
12.0826
 30
0.0
 11
162.581
 21
12.0826
 31
0.0
  0
LINE
  8
0
 62
     0
 10
162.581
 20
12.0826
 30
0.0
 11
162.581
 21
9.28384
 31
0.0
  0
LINE
  8
0
 62
     0
 10
162.581
 20
9.28384
 30
0.0
 11
163.406
 21
9.28384
 31
0.0
  0
LINE
  8
0
 62
     0
 10
163.406
 20
9.28384
 30
0.0
 11
163.406
 21
3.01377
 31
0.0
  0
LINE
  8
0
 62
     0
 10
163.406
 20
3.01377
 30
0.0
 11
165.132
 21
3.01377
 31
0.0
  0
LINE
  8
0
 62
     0
 10
165.132
 20
3.01377
 30
0.0
 11
165.132
 21
1.8135
 31
0.0
  0
LINE
  8
0
 62
     0
 10
165.132
 20
1.8135
 30
0.0
 11
168.432
 21
1.8135
 31
0.0
  0
LINE
  8
0
 62
     0
 10
168.432
 20
1.8135
 30
0.0
 11
168.432
 21
3.01377
 31
0.0
  0
LINE
  8
0
 62
     0
 10
168.432
 20
3.01377
 30
0.0
 11
170.156
 21
3.01377
 31
0.0
  0
LINE
  8
0
 62
     0
 10
170.156
 20
3.01377
 30
0.0
 11
170.156
 21
7.48273
 31
0.0
  0
LINE
  8
0
 62
     0
 10
170.156
 20
7.48273
 30
0.0
 11
178.832
 21
7.48273
 31
0.0
  0
LINE
  8
0
 62
     0
 10
178.832
 20
7.48273
 30
0.0
 11
178.832
 21
2.78364
 31
0.0
  0
LINE
  8
0
 62
     0
 10
178.832
 20
2.78364
 30
0.0
 11
192.832
 21
2.78364
 31
0.0
  0
LINE
  8
0
 62
     0
 10
192.832
 20
2.78364
 30
0.0
 11
192.832
 21
7.48273
 31
0.0
  0
LINE
  8
0
 62
     0
 10
192.832
 20
7.48273
 30
0.0
 11
201.506
 21
7.48273
 31
0.0
  0
LINE
  8
0
 62
     0
 10
201.506
 20
7.48273
 30
0.0
 11
201.506
 21
3.01377
 31
0.0
  0
LINE
  8
0
 62
     0
 10
201.506
 20
3.01377
 30
0.0
 11
203.232
 21
3.01377
 31
0.0
  0
LINE
  8
0
 62
     0
 10
203.232
 20
3.01377
 30
0.0
 11
203.232
 21
1.8135
 31
0.0
  0
LINE
  8
0
 62
     0
 10
203.232
 20
1.8135
 30
0.0
 11
206.532
 21
1.8135
 31
0.0
  0
LINE
  8
0
 62
     0
 10
206.532
 20
1.8135
 30
0.0
 11
206.532
 21
3.01377
 31
0.0
  0
LINE
  8
0
 62
     0
 10
206.532
 20
3.01377
 30
0.0
 11
208.256
 21
3.01377
 31
0.0
  0
LINE
  8
0
 62
     0
 10
208.256
 20
3.01377
 30
0.0
 11
208.256
 21
9.28384
 31
0.0
  0
LINE
  8
0
 62
     0
 10
208.256
 20
9.28384
 30
0.0
 11
209.082
 21
9.28384
 31
0.0
  0
LINE
  8
0
 62
     0
 10
209.082
 20
9.28384
 30
0.0
 11
209.082
 21
12.0826
 31
0.0
  0
LINE
  8
0
 62
     0
 10
209.082
 20
12.0826
 30
0.0
 11
208.256
 21
12.0826
 31
0.0
  0
LINE
  8
0
 62
     0
 10
208.256
 20
12.0826
 30
0.0
 11
208.256
 21
15.3128
 31
0.0
  0
LINE
  8
0
 62
     0
 10
208.256
 20
15.3128
 30
0.0
 11
201.506
 21
15.3128
 31
0.0
  0
LINE
  8
0
 62
     0
 10
201.506
 20
15.3128
 30
0.0
 11
201.506
 21
12.0826
 31
0.0
  0
LINE
  8
0
 62
     0
 10
201.506
 20
12.0826
 30
0.0
 11
192.832
 21
12.0826
 31
0.0
  0
LINE
  8
0
 62
     0
 10
192.832
 20
12.0826
 30
0.0
 11
192.832
 21
16.7831
 31
0.0
  0
LINE
  8
0
 62
     0
 10
192.832
 20
16.7831
 30
0.0
 11
178.832
 21
16.7831
 31
0.0
  0
LINE
  8
0
 62
     0
 10
28.812
 20
16.7831
 30
0.0
 11
42.8128
 21
16.7831
 31
0.0
  0
LINE
  8
0
 62
     0
 10
42.8128
 20
16.7831
 30
0.0
 11
42.8128
 21
2.78364
 31
0.0
  0
LINE
  8
0
 62
     0
 10
42.8128
 20
2.78364
 30
0.0
 11
28.812
 21
2.78364
 31
0.0
  0
LINE
  8
0
 62
     0
 10
28.812
 20
2.78364
 30
0.0
 11
28.812
 21
16.7831
 31
0.0
  0
LINE
  8
0
 62
     0
 10
52.626
 20
16.7831
 30
0.0
 11
66.6253
 21
16.7831
 31
0.0
  0
LINE
  8
0
 62
     0
 10
66.6253
 20
16.7831
 30
0.0
 11
66.6253
 21
2.78364
 31
0.0
  0
LINE
  8
0
 62
     0
 10
66.6253
 20
2.78364
 30
0.0
 11
52.626
 21
2.78364
 31
0.0
  0
LINE
  8
0
 62
     0
 10
52.626
 20
2.78364
 30
0.0
 11
52.626
 21
16.7831
 31
0.0
  0
LINE
  8
0
 62
     0
 10
78.8197
 20
16.7831
 30
0.0
 11
92.819
 21
16.7831
 31
0.0
  0
LINE
  8
0
 62
     0
 10
92.819
 20
16.7831
 30
0.0
 11
92.819
 21
2.78364
 31
0.0
  0
LINE
  8
0
 62
     0
 10
92.819
 20
2.78364
 30
0.0
 11
78.8197
 21
2.78364
 31
0.0
  0
LINE
  8
0
 62
     0
 10
78.8197
 20
2.78364
 30
0.0
 11
78.8197
 21
16.7831
 31
0.0
  0
LINE
  8
0
 62
     0
 10
221.695
 20
16.7831
 30
0.0
 11
235.694
 21
16.7831
 31
0.0
  0
LINE
  8
0
 62
     0
 10
235.694
 20
16.7831
 30
0.0
 11
235.694
 21
2.78364
 31
0.0
  0
LINE
  8
0
 62
     0
 10
235.694
 20
2.78364
 30
0.0
 11
221.695
 21
2.78364
 31
0.0
  0
LINE
  8
0
 62
     0
 10
221.695
 20
2.78364
 30
0.0
 11
221.695
 21
16.7831
 31
0.0
  0
LINE
  8
0
 62
     0
 10
247.887
 20
16.7831
 30
0.0
 11
261.888
 21
16.7831
 31
0.0
  0
LINE
  8
0
 62
     0
 10
261.888
 20
16.7831
 30
0.0
 11
261.888
 21
2.78364
 31
0.0
  0
LINE
  8
0
 62
     0
 10
261.888
 20
2.78364
 30
0.0
 11
247.887
 21
2.78364
 31
0.0
  0
LINE
  8
0
 62
     0
 10
247.887
 20
2.78364
 30
0.0
 11
247.887
 21
16.7831
 31
0.0
  0
LINE
  8
0
 62
     0
 10
278.845
 20
16.7831
 30
0.0
 11
292.844
 21
16.7831
 31
0.0
  0
LINE
  8
0
 62
     0
 10
292.844
 20
16.7831
 30
0.0
 11
292.844
 21
2.78364
 31
0.0
  0
LINE
  8
0
 62
     0
 10
292.844
 20
2.78364
 30
0.0
 11
278.845
 21
2.78364
 31
0.0
  0
LINE
  8
0
 62
     0
 10
278.845
 20
2.78364
 30
0.0
 11
278.845
 21
16.7831
 31
0.0
  0
LINE
  8
0
 62
     0
 10
297.895
 20
16.7831
 30
0.0
 11
311.894
 21
16.7831
 31
0.0
  0
LINE
  8
0
 62
     0
 10
311.894
 20
16.7831
 30
0.0
 11
311.894
 21
2.78364
 31
0.0
  0
LINE
  8
0
 62
     0
 10
311.894
 20
2.78364
 30
0.0
 11
297.895
 21
2.78364
 31
0.0
  0
LINE
  8
0
 62
     0
 10
297.895
 20
2.78364
 30
0.0
 11
297.895
 21
16.7831
 31
0.0
  0
LINE
  8
0
 62
     0
 10
316.945
 20
16.7831
 30
0.0
 11
330.944
 21
16.7831
 31
0.0
  0
LINE
  8
0
 62
     0
 10
330.944
 20
16.7831
 30
0.0
 11
330.944
 21
2.78364
 31
0.0
  0
LINE
  8
0
 62
     0
 10
330.944
 20
2.78364
 30
0.0
 11
316.945
 21
2.78364
 31
0.0
  0
LINE
  8
0
 62
     0
 10
316.945
 20
2.78364
 30
0.0
 11
316.945
 21
16.7831
 31
0.0
  0
LINE
  8
0
 62
     0
 10
38.3371
 20
35.833
 30
0.0
 11
38.3371
 21
31.1326
 31
0.0
  0
LINE
  8
0
 62
     0
 10
38.3371
 20
31.1326
 30
0.0
 11
36.8131
 21
31.1326
 31
0.0
  0
LINE
  8
0
 62
     0
 10
36.8131
 20
31.1326
 30
0.0
 11
36.8131
 21
34.3628
 31
0.0
  0
LINE
  8
0
 62
     0
 10
36.8131
 20
34.3628
 30
0.0
 11
30.0619
 21
34.3628
 31
0.0
  0
LINE
  8
0
 62
     0
 10
30.0619
 20
34.3628
 30
0.0
 11
30.0619
 21
31.1326
 31
0.0
  0
LINE
  8
0
 62
     0
 10
30.0619
 20
31.1326
 30
0.0
 11
29.2378
 21
31.1326
 31
0.0
  0
LINE
  8
0
 62
     0
 10
29.2378
 20
31.1326
 30
0.0
 11
29.2378
 21
28.3338
 31
0.0
  0
LINE
  8
0
 62
     0
 10
29.2378
 20
28.3338
 30
0.0
 11
30.0619
 21
28.3338
 31
0.0
  0
LINE
  8
0
 62
     0
 10
30.0619
 20
28.3338
 30
0.0
 11
30.0619
 21
22.0638
 31
0.0
  0
LINE
  8
0
 62
     0
 10
30.0619
 20
22.0638
 30
0.0
 11
31.7872
 21
22.0638
 31
0.0
  0
LINE
  8
0
 62
     0
 10
31.7872
 20
22.0638
 30
0.0
 11
31.7872
 21
20.8635
 31
0.0
  0
LINE
  8
0
 62
     0
 10
31.7872
 20
20.8635
 30
0.0
 11
35.0876
 21
20.8635
 31
0.0
  0
LINE
  8
0
 62
     0
 10
35.0876
 20
20.8635
 30
0.0
 11
35.0876
 21
22.0638
 31
0.0
  0
LINE
  8
0
 62
     0
 10
35.0876
 20
22.0638
 30
0.0
 11
36.8131
 21
22.0638
 31
0.0
  0
LINE
  8
0
 62
     0
 10
36.8131
 20
22.0638
 30
0.0
 11
36.8131
 21
26.5327
 31
0.0
  0
LINE
  8
0
 62
     0
 10
36.8131
 20
26.5327
 30
0.0
 11
38.3371
 21
26.5327
 31
0.0
  0
LINE
  8
0
 62
     0
 10
38.3371
 20
26.5327
 30
0.0
 11
38.3371
 21
21.8336
 31
0.0
  0
LINE
  8
0
 62
     0
 10
38.3371
 20
21.8336
 30
0.0
 11
52.3378
 21
21.8336
 31
0.0
  0
LINE
  8
0
 62
     0
 10
52.3378
 20
21.8336
 30
0.0
 11
52.3378
 21
26.5327
 31
0.0
  0
LINE
  8
0
 62
     0
 10
52.3378
 20
26.5327
 30
0.0
 11
53.8621
 21
26.5327
 31
0.0
  0
LINE
  8
0
 62
     0
 10
53.8621
 20
26.5327
 30
0.0
 11
53.8621
 21
22.0638
 31
0.0
  0
LINE
  8
0
 62
     0
 10
53.8621
 20
22.0638
 30
0.0
 11
55.5872
 21
22.0638
 31
0.0
  0
LINE
  8
0
 62
     0
 10
55.5872
 20
22.0638
 30
0.0
 11
55.5872
 21
20.8635
 31
0.0
  0
LINE
  8
0
 62
     0
 10
55.5872
 20
20.8635
 30
0.0
 11
58.8878
 21
20.8635
 31
0.0
  0
LINE
  8
0
 62
     0
 10
58.8878
 20
20.8635
 30
0.0
 11
58.8878
 21
22.0638
 31
0.0
  0
LINE
  8
0
 62
     0
 10
58.8878
 20
22.0638
 30
0.0
 11
60.6129
 21
22.0638
 31
0.0
  0
LINE
  8
0
 62
     0
 10
60.6129
 20
22.0638
 30
0.0
 11
60.6129
 21
28.3338
 31
0.0
  0
LINE
  8
0
 62
     0
 10
60.6129
 20
28.3338
 30
0.0
 11
61.437
 21
28.3338
 31
0.0
  0
LINE
  8
0
 62
     0
 10
61.437
 20
28.3338
 30
0.0
 11
61.437
 21
31.1326
 31
0.0
  0
LINE
  8
0
 62
     0
 10
61.437
 20
31.1326
 30
0.0
 11
60.6129
 21
31.1326
 31
0.0
  0
LINE
  8
0
 62
     0
 10
60.6129
 20
31.1326
 30
0.0
 11
60.6129
 21
34.3628
 31
0.0
  0
LINE
  8
0
 62
     0
 10
60.6129
 20
34.3628
 30
0.0
 11
53.8621
 21
34.3628
 31
0.0
  0
LINE
  8
0
 62
     0
 10
53.8621
 20
34.3628
 30
0.0
 11
53.8621
 21
31.1326
 31
0.0
  0
LINE
  8
0
 62
     0
 10
53.8621
 20
31.1326
 30
0.0
 11
52.3378
 21
31.1326
 31
0.0
  0
LINE
  8
0
 62
     0
 10
52.3378
 20
31.1326
 30
0.0
 11
52.3378
 21
35.833
 31
0.0
  0
LINE
  8
0
 62
     0
 10
52.3378
 20
35.833
 30
0.0
 11
38.3371
 21
35.833
 31
0.0
  0
LINE
  8
0
 62
     0
 10
269.32
 20
35.833
 30
0.0
 11
269.32
 21
31.1326
 31
0.0
  0
LINE
  8
0
 62
     0
 10
269.32
 20
31.1326
 30
0.0
 11
267.794
 21
31.1326
 31
0.0
  0
LINE
  8
0
 62
     0
 10
267.794
 20
31.1326
 30
0.0
 11
267.794
 21
34.3628
 31
0.0
  0
LINE
  8
0
 62
     0
 10
267.794
 20
34.3628
 30
0.0
 11
261.045
 21
34.3628
 31
0.0
  0
LINE
  8
0
 62
     0
 10
261.045
 20
34.3628
 30
0.0
 11
261.045
 21
31.1326
 31
0.0
  0
LINE
  8
0
 62
     0
 10
261.045
 20
31.1326
 30
0.0
 11
260.219
 21
31.1326
 31
0.0
  0
LINE
  8
0
 62
     0
 10
260.219
 20
31.1326
 30
0.0
 11
260.219
 21
28.3338
 31
0.0
  0
LINE
  8
0
 62
     0
 10
260.219
 20
28.3338
 30
0.0
 11
261.045
 21
28.3338
 31
0.0
  0
LINE
  8
0
 62
     0
 10
261.045
 20
28.3338
 30
0.0
 11
261.045
 21
22.0638
 31
0.0
  0
LINE
  8
0
 62
     0
 10
261.045
 20
22.0638
 30
0.0
 11
262.77
 21
22.0638
 31
0.0
  0
LINE
  8
0
 62
     0
 10
262.77
 20
22.0638
 30
0.0
 11
262.77
 21
20.8635
 31
0.0
  0
LINE
  8
0
 62
     0
 10
262.77
 20
20.8635
 30
0.0
 11
266.069
 21
20.8635
 31
0.0
  0
LINE
  8
0
 62
     0
 10
266.069
 20
20.8635
 30
0.0
 11
266.069
 21
22.0638
 31
0.0
  0
LINE
  8
0
 62
     0
 10
266.069
 20
22.0638
 30
0.0
 11
267.794
 21
22.0638
 31
0.0
  0
LINE
  8
0
 62
     0
 10
267.794
 20
22.0638
 30
0.0
 11
267.794
 21
26.5327
 31
0.0
  0
LINE
  8
0
 62
     0
 10
267.794
 20
26.5327
 30
0.0
 11
269.32
 21
26.5327
 31
0.0
  0
LINE
  8
0
 62
     0
 10
269.32
 20
26.5327
 30
0.0
 11
269.32
 21
21.8336
 31
0.0
  0
LINE
  8
0
 62
     0
 10
269.32
 20
21.8336
 30
0.0
 11
283.319
 21
21.8336
 31
0.0
  0
LINE
  8
0
 62
     0
 10
283.319
 20
21.8336
 30
0.0
 11
283.319
 21
26.5327
 31
0.0
  0
LINE
  8
0
 62
     0
 10
283.319
 20
26.5327
 30
0.0
 11
284.845
 21
26.5327
 31
0.0
  0
LINE
  8
0
 62
     0
 10
284.845
 20
26.5327
 30
0.0
 11
284.845
 21
22.0638
 31
0.0
  0
LINE
  8
0
 62
     0
 10
284.845
 20
22.0638
 30
0.0
 11
286.57
 21
22.0638
 31
0.0
  0
LINE
  8
0
 62
     0
 10
286.57
 20
22.0638
 30
0.0
 11
286.57
 21
20.8635
 31
0.0
  0
LINE
  8
0
 62
     0
 10
286.57
 20
20.8635
 30
0.0
 11
289.869
 21
20.8635
 31
0.0
  0
LINE
  8
0
 62
     0
 10
289.869
 20
20.8635
 30
0.0
 11
289.869
 21
22.0638
 31
0.0
  0
LINE
  8
0
 62
     0
 10
289.869
 20
22.0638
 30
0.0
 11
291.594
 21
22.0638
 31
0.0
  0
LINE
  8
0
 62
     0
 10
291.594
 20
22.0638
 30
0.0
 11
291.594
 21
28.3338
 31
0.0
  0
LINE
  8
0
 62
     0
 10
291.594
 20
28.3338
 30
0.0
 11
292.42
 21
28.3338
 31
0.0
  0
LINE
  8
0
 62
     0
 10
292.42
 20
28.3338
 30
0.0
 11
292.42
 21
31.1326
 31
0.0
  0
LINE
  8
0
 62
     0
 10
292.42
 20
31.1326
 30
0.0
 11
291.594
 21
31.1326
 31
0.0
  0
LINE
  8
0
 62
     0
 10
291.594
 20
31.1326
 30
0.0
 11
291.594
 21
34.3628
 31
0.0
  0
LINE
  8
0
 62
     0
 10
291.594
 20
34.3628
 30
0.0
 11
284.845
 21
34.3628
 31
0.0
  0
LINE
  8
0
 62
     0
 10
284.845
 20
34.3628
 30
0.0
 11
284.845
 21
31.1326
 31
0.0
  0
LINE
  8
0
 62
     0
 10
284.845
 20
31.1326
 30
0.0
 11
283.319
 21
31.1326
 31
0.0
  0
LINE
  8
0
 62
     0
 10
283.319
 20
31.1326
 30
0.0
 11
283.319
 21
35.833
 31
0.0
  0
LINE
  8
0
 62
     0
 10
283.319
 20
35.833
 30
0.0
 11
269.32
 21
35.833
 31
0.0
  0
LINE
  8
0
 62
     0
 10
69.2947
 20
35.833
 30
0.0
 11
83.294
 21
35.833
 31
0.0
  0
LINE
  8
0
 62
     0
 10
83.294
 20
35.833
 30
0.0
 11
83.294
 21
21.8336
 31
0.0
  0
LINE
  8
0
 62
     0
 10
83.294
 20
21.8336
 30
0.0
 11
69.2947
 21
21.8336
 31
0.0
  0
LINE
  8
0
 62
     0
 10
69.2947
 20
21.8336
 30
0.0
 11
69.2947
 21
35.833
 31
0.0
  0
LINE
  8
0
 62
     0
 10
88.3447
 20
35.833
 30
0.0
 11
102.344
 21
35.833
 31
0.0
  0
LINE
  8
0
 62
     0
 10
102.344
 20
35.833
 30
0.0
 11
102.344
 21
21.8336
 31
0.0
  0
LINE
  8
0
 62
     0
 10
102.344
 20
21.8336
 30
0.0
 11
88.3447
 21
21.8336
 31
0.0
  0
LINE
  8
0
 62
     0
 10
88.3447
 20
21.8336
 30
0.0
 11
88.3447
 21
35.833
 31
0.0
  0
LINE
  8
0
 62
     0
 10
107.395
 20
35.833
 30
0.0
 11
121.394
 21
35.833
 31
0.0
  0
LINE
  8
0
 62
     0
 10
121.394
 20
35.833
 30
0.0
 11
121.394
 21
21.8336
 31
0.0
  0
LINE
  8
0
 62
     0
 10
121.394
 20
21.8336
 30
0.0
 11
107.395
 21
21.8336
 31
0.0
  0
LINE
  8
0
 62
     0
 10
107.395
 20
21.8336
 30
0.0
 11
107.395
 21
35.833
 31
0.0
  0
LINE
  8
0
 62
     0
 10
126.445
 20
35.833
 30
0.0
 11
140.444
 21
35.833
 31
0.0
  0
LINE
  8
0
 62
     0
 10
140.444
 20
35.833
 30
0.0
 11
140.444
 21
21.8336
 31
0.0
  0
LINE
  8
0
 62
     0
 10
140.444
 20
21.8336
 30
0.0
 11
126.445
 21
21.8336
 31
0.0
  0
LINE
  8
0
 62
     0
 10
126.445
 20
21.8336
 30
0.0
 11
126.445
 21
35.833
 31
0.0
  0
LINE
  8
0
 62
     0
 10
145.495
 20
35.833
 30
0.0
 11
159.494
 21
35.833
 31
0.0
  0
LINE
  8
0
 62
     0
 10
159.494
 20
35.833
 30
0.0
 11
159.494
 21
21.8336
 31
0.0
  0
LINE
  8
0
 62
     0
 10
159.494
 20
21.8336
 30
0.0
 11
145.495
 21
21.8336
 31
0.0
  0
LINE
  8
0
 62
     0
 10
145.495
 20
21.8336
 30
0.0
 11
145.495
 21
35.833
 31
0.0
  0
LINE
  8
0
 62
     0
 10
164.545
 20
35.833
 30
0.0
 11
178.544
 21
35.833
 31
0.0
  0
LINE
  8
0
 62
     0
 10
178.544
 20
35.833
 30
0.0
 11
178.544
 21
21.8336
 31
0.0
  0
LINE
  8
0
 62
     0
 10
178.544
 20
21.8336
 30
0.0
 11
164.545
 21
21.8336
 31
0.0
  0
LINE
  8
0
 62
     0
 10
164.545
 20
21.8336
 30
0.0
 11
164.545
 21
35.833
 31
0.0
  0
LINE
  8
0
 62
     0
 10
183.595
 20
35.833
 30
0.0
 11
197.594
 21
35.833
 31
0.0
  0
LINE
  8
0
 62
     0
 10
197.594
 20
35.833
 30
0.0
 11
197.594
 21
21.8336
 31
0.0
  0
LINE
  8
0
 62
     0
 10
197.594
 20
21.8336
 30
0.0
 11
183.595
 21
21.8336
 31
0.0
  0
LINE
  8
0
 62
     0
 10
183.595
 20
21.8336
 30
0.0
 11
183.595
 21
35.833
 31
0.0
  0
LINE
  8
0
 62
     0
 10
202.645
 20
35.833
 30
0.0
 11
216.644
 21
35.833
 31
0.0
  0
LINE
  8
0
 62
     0
 10
216.644
 20
35.833
 30
0.0
 11
216.644
 21
21.8336
 31
0.0
  0
LINE
  8
0
 62
     0
 10
216.644
 20
21.8336
 30
0.0
 11
202.645
 21
21.8336
 31
0.0
  0
LINE
  8
0
 62
     0
 10
202.645
 20
21.8336
 30
0.0
 11
202.645
 21
35.833
 31
0.0
  0
LINE
  8
0
 62
     0
 10
221.695
 20
35.833
 30
0.0
 11
235.694
 21
35.833
 31
0.0
  0
LINE
  8
0
 62
     0
 10
235.694
 20
35.833
 30
0.0
 11
235.694
 21
21.8336
 31
0.0
  0
LINE
  8
0
 62
     0
 10
235.694
 20
21.8336
 30
0.0
 11
221.695
 21
21.8336
 31
0.0
  0
LINE
  8
0
 62
     0
 10
221.695
 20
21.8336
 30
0.0
 11
221.695
 21
35.833
 31
0.0
  0
LINE
  8
0
 62
     0
 10
240.745
 20
35.833
 30
0.0
 11
254.744
 21
35.833
 31
0.0
  0
LINE
  8
0
 62
     0
 10
254.744
 20
35.833
 30
0.0
 11
254.744
 21
21.8336
 31
0.0
  0
LINE
  8
0
 62
     0
 10
254.744
 20
21.8336
 30
0.0
 11
240.745
 21
21.8336
 31
0.0
  0
LINE
  8
0
 62
     0
 10
240.745
 20
21.8336
 30
0.0
 11
240.745
 21
35.833
 31
0.0
  0
LINE
  8
0
 62
     0
 10
297.895
 20
35.833
 30
0.0
 11
311.894
 21
35.833
 31
0.0
  0
LINE
  8
0
 62
     0
 10
311.894
 20
35.833
 30
0.0
 11
311.894
 21
21.8336
 31
0.0
  0
LINE
  8
0
 62
     0
 10
311.894
 20
21.8336
 30
0.0
 11
297.895
 21
21.8336
 31
0.0
  0
LINE
  8
0
 62
     0
 10
297.895
 20
21.8336
 30
0.0
 11
297.895
 21
35.833
 31
0.0
  0
LINE
  8
0
 62
     0
 10
2.61965
 20
50.1206
 30
0.0
 11
16.6192
 21
50.1206
 31
0.0
  0
LINE
  8
0
 62
     0
 10
16.6192
 20
50.1206
 30
0.0
 11
16.6192
 21
36.1213
 31
0.0
  0
LINE
  8
0
 62
     0
 10
16.6192
 20
36.1213
 30
0.0
 11
2.61965
 21
36.1213
 31
0.0
  0
LINE
  8
0
 62
     0
 10
2.61965
 20
36.1213
 30
0.0
 11
2.61965
 21
50.1206
 31
0.0
  0
LINE
  8
0
 62
     0
 10
281.226
 20
54.8831
 30
0.0
 11
281.226
 21
50.1826
 31
0.0
  0
LINE
  8
0
 62
     0
 10
281.226
 20
50.1826
 30
0.0
 11
279.701
 21
50.1826
 31
0.0
  0
LINE
  8
0
 62
     0
 10
279.701
 20
50.1826
 30
0.0
 11
279.701
 21
53.4127
 31
0.0
  0
LINE
  8
0
 62
     0
 10
279.701
 20
53.4127
 30
0.0
 11
272.951
 21
53.4127
 31
0.0
  0
LINE
  8
0
 62
     0
 10
272.951
 20
53.4127
 30
0.0
 11
272.951
 21
50.1826
 31
0.0
  0
LINE
  8
0
 62
     0
 10
272.951
 20
50.1826
 30
0.0
 11
272.125
 21
50.1826
 31
0.0
  0
LINE
  8
0
 62
     0
 10
272.125
 20
50.1826
 30
0.0
 11
272.125
 21
47.3837
 31
0.0
  0
LINE
  8
0
 62
     0
 10
272.125
 20
47.3837
 30
0.0
 11
272.951
 21
47.3837
 31
0.0
  0
LINE
  8
0
 62
     0
 10
272.951
 20
47.3837
 30
0.0
 11
272.951
 21
41.1138
 31
0.0
  0
LINE
  8
0
 62
     0
 10
272.951
 20
41.1138
 30
0.0
 11
274.676
 21
41.1138
 31
0.0
  0
LINE
  8
0
 62
     0
 10
274.676
 20
41.1138
 30
0.0
 11
274.676
 21
39.9136
 31
0.0
  0
LINE
  8
0
 62
     0
 10
274.676
 20
39.9136
 30
0.0
 11
277.975
 21
39.9136
 31
0.0
  0
LINE
  8
0
 62
     0
 10
277.975
 20
39.9136
 30
0.0
 11
277.975
 21
41.1138
 31
0.0
  0
LINE
  8
0
 62
     0
 10
277.975
 20
41.1138
 30
0.0
 11
279.701
 21
41.1138
 31
0.0
  0
LINE
  8
0
 62
     0
 10
279.701
 20
41.1138
 30
0.0
 11
279.701
 21
45.5828
 31
0.0
  0
LINE
  8
0
 62
     0
 10
279.701
 20
45.5828
 30
0.0
 11
281.226
 21
45.5828
 31
0.0
  0
LINE
  8
0
 62
     0
 10
281.226
 20
45.5828
 30
0.0
 11
281.226
 21
40.8838
 31
0.0
  0
LINE
  8
0
 62
     0
 10
281.226
 20
40.8838
 30
0.0
 11
295.225
 21
40.8838
 31
0.0
  0
LINE
  8
0
 62
     0
 10
295.225
 20
40.8838
 30
0.0
 11
295.225
 21
45.5828
 31
0.0
  0
LINE
  8
0
 62
     0
 10
295.225
 20
45.5828
 30
0.0
 11
296.751
 21
45.5828
 31
0.0
  0
LINE
  8
0
 62
     0
 10
296.751
 20
45.5828
 30
0.0
 11
296.751
 21
41.1138
 31
0.0
  0
LINE
  8
0
 62
     0
 10
296.751
 20
41.1138
 30
0.0
 11
298.475
 21
41.1138
 31
0.0
  0
LINE
  8
0
 62
     0
 10
298.475
 20
41.1138
 30
0.0
 11
298.475
 21
39.9136
 31
0.0
  0
LINE
  8
0
 62
     0
 10
298.475
 20
39.9136
 30
0.0
 11
301.775
 21
39.9136
 31
0.0
  0
LINE
  8
0
 62
     0
 10
301.775
 20
39.9136
 30
0.0
 11
301.775
 21
41.1138
 31
0.0
  0
LINE
  8
0
 62
     0
 10
301.775
 20
41.1138
 30
0.0
 11
303.5
 21
41.1138
 31
0.0
  0
LINE
  8
0
 62
     0
 10
303.5
 20
41.1138
 30
0.0
 11
303.5
 21
47.3837
 31
0.0
  0
LINE
  8
0
 62
     0
 10
303.5
 20
47.3837
 30
0.0
 11
304.326
 21
47.3837
 31
0.0
  0
LINE
  8
0
 62
     0
 10
304.326
 20
47.3837
 30
0.0
 11
304.326
 21
50.1826
 31
0.0
  0
LINE
  8
0
 62
     0
 10
304.326
 20
50.1826
 30
0.0
 11
303.5
 21
50.1826
 31
0.0
  0
LINE
  8
0
 62
     0
 10
303.5
 20
50.1826
 30
0.0
 11
303.5
 21
53.4127
 31
0.0
  0
LINE
  8
0
 62
     0
 10
303.5
 20
53.4127
 30
0.0
 11
296.751
 21
53.4127
 31
0.0
  0
LINE
  8
0
 62
     0
 10
296.751
 20
53.4127
 30
0.0
 11
296.751
 21
50.1826
 31
0.0
  0
LINE
  8
0
 62
     0
 10
296.751
 20
50.1826
 30
0.0
 11
295.225
 21
50.1826
 31
0.0
  0
LINE
  8
0
 62
     0
 10
295.225
 20
50.1826
 30
0.0
 11
295.225
 21
54.8831
 31
0.0
  0
LINE
  8
0
 62
     0
 10
295.225
 20
54.8831
 30
0.0
 11
281.226
 21
54.8831
 31
0.0
  0
LINE
  8
0
 62
     0
 10
33.5759
 20
54.8831
 30
0.0
 11
47.5753
 21
54.8831
 31
0.0
  0
LINE
  8
0
 62
     0
 10
47.5753
 20
54.8831
 30
0.0
 11
47.5753
 21
40.8838
 31
0.0
  0
LINE
  8
0
 62
     0
 10
47.5753
 20
40.8838
 30
0.0
 11
33.5759
 21
40.8838
 31
0.0
  0
LINE
  8
0
 62
     0
 10
33.5759
 20
40.8838
 30
0.0
 11
33.5759
 21
54.8831
 31
0.0
  0
LINE
  8
0
 62
     0
 10
59.7697
 20
54.8831
 30
0.0
 11
73.769
 21
54.8831
 31
0.0
  0
LINE
  8
0
 62
     0
 10
73.769
 20
54.8831
 30
0.0
 11
73.769
 21
40.8838
 31
0.0
  0
LINE
  8
0
 62
     0
 10
73.769
 20
40.8838
 30
0.0
 11
59.7697
 21
40.8838
 31
0.0
  0
LINE
  8
0
 62
     0
 10
59.7697
 20
40.8838
 30
0.0
 11
59.7697
 21
54.8831
 31
0.0
  0
LINE
  8
0
 62
     0
 10
78.8197
 20
54.8831
 30
0.0
 11
92.819
 21
54.8831
 31
0.0
  0
LINE
  8
0
 62
     0
 10
92.819
 20
54.8831
 30
0.0
 11
92.819
 21
40.8838
 31
0.0
  0
LINE
  8
0
 62
     0
 10
92.819
 20
40.8838
 30
0.0
 11
78.8197
 21
40.8838
 31
0.0
  0
LINE
  8
0
 62
     0
 10
78.8197
 20
40.8838
 30
0.0
 11
78.8197
 21
54.8831
 31
0.0
  0
LINE
  8
0
 62
     0
 10
97.8697
 20
54.8831
 30
0.0
 11
111.869
 21
54.8831
 31
0.0
  0
LINE
  8
0
 62
     0
 10
111.869
 20
54.8831
 30
0.0
 11
111.869
 21
40.8838
 31
0.0
  0
LINE
  8
0
 62
     0
 10
111.869
 20
40.8838
 30
0.0
 11
97.8697
 21
40.8838
 31
0.0
  0
LINE
  8
0
 62
     0
 10
97.8697
 20
40.8838
 30
0.0
 11
97.8697
 21
54.8831
 31
0.0
  0
LINE
  8
0
 62
     0
 10
116.92
 20
54.8831
 30
0.0
 11
130.919
 21
54.8831
 31
0.0
  0
LINE
  8
0
 62
     0
 10
130.919
 20
54.8831
 30
0.0
 11
130.919
 21
40.8838
 31
0.0
  0
LINE
  8
0
 62
     0
 10
130.919
 20
40.8838
 30
0.0
 11
116.92
 21
40.8838
 31
0.0
  0
LINE
  8
0
 62
     0
 10
116.92
 20
40.8838
 30
0.0
 11
116.92
 21
54.8831
 31
0.0
  0
LINE
  8
0
 62
     0
 10
135.97
 20
54.8831
 30
0.0
 11
149.969
 21
54.8831
 31
0.0
  0
LINE
  8
0
 62
     0
 10
149.969
 20
54.8831
 30
0.0
 11
149.969
 21
40.8838
 31
0.0
  0
LINE
  8
0
 62
     0
 10
149.969
 20
40.8838
 30
0.0
 11
135.97
 21
40.8838
 31
0.0
  0
LINE
  8
0
 62
     0
 10
135.97
 20
40.8838
 30
0.0
 11
135.97
 21
54.8831
 31
0.0
  0
LINE
  8
0
 62
     0
 10
155.02
 20
54.8831
 30
0.0
 11
169.019
 21
54.8831
 31
0.0
  0
LINE
  8
0
 62
     0
 10
169.019
 20
54.8831
 30
0.0
 11
169.019
 21
40.8838
 31
0.0
  0
LINE
  8
0
 62
     0
 10
169.019
 20
40.8838
 30
0.0
 11
155.02
 21
40.8838
 31
0.0
  0
LINE
  8
0
 62
     0
 10
155.02
 20
40.8838
 30
0.0
 11
155.02
 21
54.8831
 31
0.0
  0
LINE
  8
0
 62
     0
 10
174.07
 20
54.8831
 30
0.0
 11
188.069
 21
54.8831
 31
0.0
  0
LINE
  8
0
 62
     0
 10
188.069
 20
54.8831
 30
0.0
 11
188.069
 21
40.8838
 31
0.0
  0
LINE
  8
0
 62
     0
 10
188.069
 20
40.8838
 30
0.0
 11
174.07
 21
40.8838
 31
0.0
  0
LINE
  8
0
 62
     0
 10
174.07
 20
40.8838
 30
0.0
 11
174.07
 21
54.8831
 31
0.0
  0
LINE
  8
0
 62
     0
 10
193.12
 20
54.8831
 30
0.0
 11
207.119
 21
54.8831
 31
0.0
  0
LINE
  8
0
 62
     0
 10
207.119
 20
54.8831
 30
0.0
 11
207.119
 21
40.8838
 31
0.0
  0
LINE
  8
0
 62
     0
 10
207.119
 20
40.8838
 30
0.0
 11
193.12
 21
40.8838
 31
0.0
  0
LINE
  8
0
 62
     0
 10
193.12
 20
40.8838
 30
0.0
 11
193.12
 21
54.8831
 31
0.0
  0
LINE
  8
0
 62
     0
 10
212.17
 20
54.8831
 30
0.0
 11
226.169
 21
54.8831
 31
0.0
  0
LINE
  8
0
 62
     0
 10
226.169
 20
54.8831
 30
0.0
 11
226.169
 21
40.8838
 31
0.0
  0
LINE
  8
0
 62
     0
 10
226.169
 20
40.8838
 30
0.0
 11
212.17
 21
40.8838
 31
0.0
  0
LINE
  8
0
 62
     0
 10
212.17
 20
40.8838
 30
0.0
 11
212.17
 21
54.8831
 31
0.0
  0
LINE
  8
0
 62
     0
 10
231.22
 20
54.8831
 30
0.0
 11
245.219
 21
54.8831
 31
0.0
  0
LINE
  8
0
 62
     0
 10
245.219
 20
54.8831
 30
0.0
 11
245.219
 21
40.8838
 31
0.0
  0
LINE
  8
0
 62
     0
 10
245.219
 20
40.8838
 30
0.0
 11
231.22
 21
40.8838
 31
0.0
  0
LINE
  8
0
 62
     0
 10
231.22
 20
40.8838
 30
0.0
 11
231.22
 21
54.8831
 31
0.0
  0
LINE
  8
0
 62
     0
 10
250.27
 20
54.8831
 30
0.0
 11
264.269
 21
54.8831
 31
0.0
  0
LINE
  8
0
 62
     0
 10
264.269
 20
54.8831
 30
0.0
 11
264.269
 21
40.8838
 31
0.0
  0
LINE
  8
0
 62
     0
 10
264.269
 20
40.8838
 30
0.0
 11
250.27
 21
40.8838
 31
0.0
  0
LINE
  8
0
 62
     0
 10
250.27
 20
40.8838
 30
0.0
 11
250.27
 21
54.8831
 31
0.0
  0
LINE
  8
0
 62
     0
 10
2.61965
 20
69.1706
 30
0.0
 11
16.6192
 21
69.1706
 31
0.0
  0
LINE
  8
0
 62
     0
 10
16.6192
 20
69.1706
 30
0.0
 11
16.6192
 21
55.1713
 31
0.0
  0
LINE
  8
0
 62
     0
 10
16.6192
 20
55.1713
 30
0.0
 11
2.61965
 21
55.1713
 31
0.0
  0
LINE
  8
0
 62
     0
 10
2.61965
 20
55.1713
 30
0.0
 11
2.61965
 21
69.1706
 31
0.0
  0
LINE
  8
0
 62
     0
 10
31.1947
 20
73.9331
 30
0.0
 11
45.194
 21
73.9331
 31
0.0
  0
LINE
  8
0
 62
     0
 10
45.194
 20
73.9331
 30
0.0
 11
45.194
 21
59.9338
 31
0.0
  0
LINE
  8
0
 62
     0
 10
45.194
 20
59.9338
 30
0.0
 11
31.1947
 21
59.9338
 31
0.0
  0
LINE
  8
0
 62
     0
 10
31.1947
 20
59.9338
 30
0.0
 11
31.1947
 21
73.9331
 31
0.0
  0
LINE
  8
0
 62
     0
 10
55.0072
 20
73.9331
 30
0.0
 11
69.0065
 21
73.9331
 31
0.0
  0
LINE
  8
0
 62
     0
 10
69.0065
 20
73.9331
 30
0.0
 11
69.0065
 21
59.9338
 31
0.0
  0
LINE
  8
0
 62
     0
 10
69.0065
 20
59.9338
 30
0.0
 11
55.0072
 21
59.9338
 31
0.0
  0
LINE
  8
0
 62
     0
 10
55.0072
 20
59.9338
 30
0.0
 11
55.0072
 21
73.9331
 31
0.0
  0
LINE
  8
0
 62
     0
 10
74.0572
 20
73.9331
 30
0.0
 11
88.0565
 21
73.9331
 31
0.0
  0
LINE
  8
0
 62
     0
 10
88.0565
 20
73.9331
 30
0.0
 11
88.0565
 21
59.9338
 31
0.0
  0
LINE
  8
0
 62
     0
 10
88.0565
 20
59.9338
 30
0.0
 11
74.0572
 21
59.9338
 31
0.0
  0
LINE
  8
0
 62
     0
 10
74.0572
 20
59.9338
 30
0.0
 11
74.0572
 21
73.9331
 31
0.0
  0
LINE
  8
0
 62
     0
 10
93.1072
 20
73.9331
 30
0.0
 11
107.107
 21
73.9331
 31
0.0
  0
LINE
  8
0
 62
     0
 10
107.107
 20
73.9331
 30
0.0
 11
107.107
 21
59.9338
 31
0.0
  0
LINE
  8
0
 62
     0
 10
107.107
 20
59.9338
 30
0.0
 11
93.1072
 21
59.9338
 31
0.0
  0
LINE
  8
0
 62
     0
 10
93.1072
 20
59.9338
 30
0.0
 11
93.1072
 21
73.9331
 31
0.0
  0
LINE
  8
0
 62
     0
 10
112.157
 20
73.9331
 30
0.0
 11
126.157
 21
73.9331
 31
0.0
  0
LINE
  8
0
 62
     0
 10
126.157
 20
73.9331
 30
0.0
 11
126.157
 21
59.9338
 31
0.0
  0
LINE
  8
0
 62
     0
 10
126.157
 20
59.9338
 30
0.0
 11
112.157
 21
59.9338
 31
0.0
  0
LINE
  8
0
 62
     0
 10
112.157
 20
59.9338
 30
0.0
 11
112.157
 21
73.9331
 31
0.0
  0
LINE
  8
0
 62
     0
 10
131.207
 20
73.9331
 30
0.0
 11
145.207
 21
73.9331
 31
0.0
  0
LINE
  8
0
 62
     0
 10
145.207
 20
73.9331
 30
0.0
 11
145.207
 21
59.9338
 31
0.0
  0
LINE
  8
0
 62
     0
 10
145.207
 20
59.9338
 30
0.0
 11
131.207
 21
59.9338
 31
0.0
  0
LINE
  8
0
 62
     0
 10
131.207
 20
59.9338
 30
0.0
 11
131.207
 21
73.9331
 31
0.0
  0
LINE
  8
0
 62
     0
 10
150.257
 20
73.9331
 30
0.0
 11
164.257
 21
73.9331
 31
0.0
  0
LINE
  8
0
 62
     0
 10
164.257
 20
73.9331
 30
0.0
 11
164.257
 21
59.9338
 31
0.0
  0
LINE
  8
0
 62
     0
 10
164.257
 20
59.9338
 30
0.0
 11
150.257
 21
59.9338
 31
0.0
  0
LINE
  8
0
 62
     0
 10
150.257
 20
59.9338
 30
0.0
 11
150.257
 21
73.9331
 31
0.0
  0
LINE
  8
0
 62
     0
 10
169.307
 20
73.9331
 30
0.0
 11
183.307
 21
73.9331
 31
0.0
  0
LINE
  8
0
 62
     0
 10
183.307
 20
73.9331
 30
0.0
 11
183.307
 21
59.9338
 31
0.0
  0
LINE
  8
0
 62
     0
 10
183.307
 20
59.9338
 30
0.0
 11
169.307
 21
59.9338
 31
0.0
  0
LINE
  8
0
 62
     0
 10
169.307
 20
59.9338
 30
0.0
 11
169.307
 21
73.9331
 31
0.0
  0
LINE
  8
0
 62
     0
 10
188.357
 20
73.9331
 30
0.0
 11
202.357
 21
73.9331
 31
0.0
  0
LINE
  8
0
 62
     0
 10
202.357
 20
73.9331
 30
0.0
 11
202.357
 21
59.9338
 31
0.0
  0
LINE
  8
0
 62
     0
 10
202.357
 20
59.9338
 30
0.0
 11
188.357
 21
59.9338
 31
0.0
  0
LINE
  8
0
 62
     0
 10
188.357
 20
59.9338
 30
0.0
 11
188.357
 21
73.9331
 31
0.0
  0
LINE
  8
0
 62
     0
 10
207.407
 20
73.9331
 30
0.0
 11
221.407
 21
73.9331
 31
0.0
  0
LINE
  8
0
 62
     0
 10
221.407
 20
73.9331
 30
0.0
 11
221.407
 21
59.9338
 31
0.0
  0
LINE
  8
0
 62
     0
 10
221.407
 20
59.9338
 30
0.0
 11
207.407
 21
59.9338
 31
0.0
  0
LINE
  8
0
 62
     0
 10
207.407
 20
59.9338
 30
0.0
 11
207.407
 21
73.9331
 31
0.0
  0
LINE
  8
0
 62
     0
 10
226.457
 20
73.9331
 30
0.0
 11
240.457
 21
73.9331
 31
0.0
  0
LINE
  8
0
 62
     0
 10
240.457
 20
73.9331
 30
0.0
 11
240.457
 21
59.9338
 31
0.0
  0
LINE
  8
0
 62
     0
 10
240.457
 20
59.9338
 30
0.0
 11
226.457
 21
59.9338
 31
0.0
  0
LINE
  8
0
 62
     0
 10
226.457
 20
59.9338
 30
0.0
 11
226.457
 21
73.9331
 31
0.0
  0
LINE
  8
0
 62
     0
 10
245.507
 20
73.9331
 30
0.0
 11
259.507
 21
73.9331
 31
0.0
  0
LINE
  8
0
 62
     0
 10
259.507
 20
73.9331
 30
0.0
 11
259.507
 21
59.9338
 31
0.0
  0
LINE
  8
0
 62
     0
 10
259.507
 20
59.9338
 30
0.0
 11
245.507
 21
59.9338
 31
0.0
  0
LINE
  8
0
 62
     0
 10
245.507
 20
59.9338
 30
0.0
 11
245.507
 21
73.9331
 31
0.0
  0
LINE
  8
0
 62
     0
 10
264.557
 20
73.9331
 30
0.0
 11
278.557
 21
73.9331
 31
0.0
  0
LINE
  8
0
 62
     0
 10
278.557
 20
73.9331
 30
0.0
 11
278.557
 21
59.9338
 31
0.0
  0
LINE
  8
0
 62
     0
 10
278.557
 20
59.9338
 30
0.0
 11
264.557
 21
59.9338
 31
0.0
  0
LINE
  8
0
 62
     0
 10
264.557
 20
59.9338
 30
0.0
 11
264.557
 21
73.9331
 31
0.0
  0
LINE
  8
0
 62
     0
 10
288.37
 20
73.9331
 30
0.0
 11
302.369
 21
73.9331
 31
0.0
  0
LINE
  8
0
 62
     0
 10
302.369
 20
73.9331
 30
0.0
 11
302.369
 21
59.9338
 31
0.0
  0
LINE
  8
0
 62
     0
 10
302.369
 20
59.9338
 30
0.0
 11
288.37
 21
59.9338
 31
0.0
  0
LINE
  8
0
 62
     0
 10
288.37
 20
59.9338
 30
0.0
 11
288.37
 21
73.9331
 31
0.0
  0
LINE
  8
0
 62
     0
 10
316.945
 20
73.9331
 30
0.0
 11
330.944
 21
73.9331
 31
0.0
  0
LINE
  8
0
 62
     0
 10
330.944
 20
73.9331
 30
0.0
 11
330.944
 21
59.9338
 31
0.0
  0
LINE
  8
0
 62
     0
 10
330.944
 20
59.9338
 30
0.0
 11
316.945
 21
59.9338
 31
0.0
  0
LINE
  8
0
 62
     0
 10
316.945
 20
59.9338
 30
0.0
 11
316.945
 21
73.9331
 31
0.0
  0
LINE
  8
0
 62
     0
 10
2.61965
 20
92.9831
 30
0.0
 11
16.6192
 21
92.9831
 31
0.0
  0
LINE
  8
0
 62
     0
 10
16.6192
 20
92.9831
 30
0.0
 11
16.6192
 21
78.9838
 31
0.0
  0
LINE
  8
0
 62
     0
 10
16.6192
 20
78.9838
 30
0.0
 11
2.61965
 21
78.9838
 31
0.0
  0
LINE
  8
0
 62
     0
 10
2.61965
 20
78.9838
 30
0.0
 11
2.61965
 21
92.9831
 31
0.0
  0
LINE
  8
0
 62
     0
 10
26.4322
 20
92.9831
 30
0.0
 11
40.4315
 21
92.9831
 31
0.0
  0
LINE
  8
0
 62
     0
 10
40.4315
 20
92.9831
 30
0.0
 11
40.4315
 21
78.9838
 31
0.0
  0
LINE
  8
0
 62
     0
 10
40.4315
 20
78.9838
 30
0.0
 11
26.4322
 21
78.9838
 31
0.0
  0
LINE
  8
0
 62
     0
 10
26.4322
 20
78.9838
 30
0.0
 11
26.4322
 21
92.9831
 31
0.0
  0
LINE
  8
0
 62
     0
 10
45.4822
 20
92.9831
 30
0.0
 11
59.4815
 21
92.9831
 31
0.0
  0
LINE
  8
0
 62
     0
 10
59.4815
 20
92.9831
 30
0.0
 11
59.4815
 21
78.9838
 31
0.0
  0
LINE
  8
0
 62
     0
 10
59.4815
 20
78.9838
 30
0.0
 11
45.4822
 21
78.9838
 31
0.0
  0
LINE
  8
0
 62
     0
 10
45.4822
 20
78.9838
 30
0.0
 11
45.4822
 21
92.9831
 31
0.0
  0
LINE
  8
0
 62
     0
 10
64.5322
 20
92.9831
 30
0.0
 11
78.5315
 21
92.9831
 31
0.0
  0
LINE
  8
0
 62
     0
 10
78.5315
 20
92.9831
 30
0.0
 11
78.5315
 21
78.9838
 31
0.0
  0
LINE
  8
0
 62
     0
 10
78.5315
 20
78.9838
 30
0.0
 11
64.5322
 21
78.9838
 31
0.0
  0
LINE
  8
0
 62
     0
 10
64.5322
 20
78.9838
 30
0.0
 11
64.5322
 21
92.9831
 31
0.0
  0
LINE
  8
0
 62
     0
 10
83.5822
 20
92.9831
 30
0.0
 11
97.5815
 21
92.9831
 31
0.0
  0
LINE
  8
0
 62
     0
 10
97.5815
 20
92.9831
 30
0.0
 11
97.5815
 21
78.9838
 31
0.0
  0
LINE
  8
0
 62
     0
 10
97.5815
 20
78.9838
 30
0.0
 11
83.5822
 21
78.9838
 31
0.0
  0
LINE
  8
0
 62
     0
 10
83.5822
 20
78.9838
 30
0.0
 11
83.5822
 21
92.9831
 31
0.0
  0
LINE
  8
0
 62
     0
 10
102.632
 20
92.9831
 30
0.0
 11
116.632
 21
92.9831
 31
0.0
  0
LINE
  8
0
 62
     0
 10
116.632
 20
92.9831
 30
0.0
 11
116.632
 21
78.9838
 31
0.0
  0
LINE
  8
0
 62
     0
 10
116.632
 20
78.9838
 30
0.0
 11
102.632
 21
78.9838
 31
0.0
  0
LINE
  8
0
 62
     0
 10
102.632
 20
78.9838
 30
0.0
 11
102.632
 21
92.9831
 31
0.0
  0
LINE
  8
0
 62
     0
 10
121.682
 20
92.9831
 30
0.0
 11
135.682
 21
92.9831
 31
0.0
  0
LINE
  8
0
 62
     0
 10
135.682
 20
92.9831
 30
0.0
 11
135.682
 21
78.9838
 31
0.0
  0
LINE
  8
0
 62
     0
 10
135.682
 20
78.9838
 30
0.0
 11
121.682
 21
78.9838
 31
0.0
  0
LINE
  8
0
 62
     0
 10
121.682
 20
78.9838
 30
0.0
 11
121.682
 21
92.9831
 31
0.0
  0
LINE
  8
0
 62
     0
 10
140.732
 20
92.9831
 30
0.0
 11
154.732
 21
92.9831
 31
0.0
  0
LINE
  8
0
 62
     0
 10
154.732
 20
92.9831
 30
0.0
 11
154.732
 21
78.9838
 31
0.0
  0
LINE
  8
0
 62
     0
 10
154.732
 20
78.9838
 30
0.0
 11
140.732
 21
78.9838
 31
0.0
  0
LINE
  8
0
 62
     0
 10
140.732
 20
78.9838
 30
0.0
 11
140.732
 21
92.9831
 31
0.0
  0
LINE
  8
0
 62
     0
 10
159.782
 20
92.9831
 30
0.0
 11
173.782
 21
92.9831
 31
0.0
  0
LINE
  8
0
 62
     0
 10
173.782
 20
92.9831
 30
0.0
 11
173.782
 21
78.9838
 31
0.0
  0
LINE
  8
0
 62
     0
 10
173.782
 20
78.9838
 30
0.0
 11
159.782
 21
78.9838
 31
0.0
  0
LINE
  8
0
 62
     0
 10
159.782
 20
78.9838
 30
0.0
 11
159.782
 21
92.9831
 31
0.0
  0
LINE
  8
0
 62
     0
 10
178.832
 20
92.9831
 30
0.0
 11
192.832
 21
92.9831
 31
0.0
  0
LINE
  8
0
 62
     0
 10
192.832
 20
92.9831
 30
0.0
 11
192.832
 21
78.9838
 31
0.0
  0
LINE
  8
0
 62
     0
 10
192.832
 20
78.9838
 30
0.0
 11
178.832
 21
78.9838
 31
0.0
  0
LINE
  8
0
 62
     0
 10
178.832
 20
78.9838
 30
0.0
 11
178.832
 21
92.9831
 31
0.0
  0
LINE
  8
0
 62
     0
 10
197.882
 20
92.9831
 30
0.0
 11
211.882
 21
92.9831
 31
0.0
  0
LINE
  8
0
 62
     0
 10
211.882
 20
92.9831
 30
0.0
 11
211.882
 21
78.9838
 31
0.0
  0
LINE
  8
0
 62
     0
 10
211.882
 20
78.9838
 30
0.0
 11
197.882
 21
78.9838
 31
0.0
  0
LINE
  8
0
 62
     0
 10
197.882
 20
78.9838
 30
0.0
 11
197.882
 21
92.9831
 31
0.0
  0
LINE
  8
0
 62
     0
 10
216.932
 20
92.9831
 30
0.0
 11
230.932
 21
92.9831
 31
0.0
  0
LINE
  8
0
 62
     0
 10
230.932
 20
92.9831
 30
0.0
 11
230.932
 21
78.9838
 31
0.0
  0
LINE
  8
0
 62
     0
 10
230.932
 20
78.9838
 30
0.0
 11
216.932
 21
78.9838
 31
0.0
  0
LINE
  8
0
 62
     0
 10
216.932
 20
78.9838
 30
0.0
 11
216.932
 21
92.9831
 31
0.0
  0
LINE
  8
0
 62
     0
 10
235.982
 20
92.9831
 30
0.0
 11
249.982
 21
92.9831
 31
0.0
  0
LINE
  8
0
 62
     0
 10
249.982
 20
92.9831
 30
0.0
 11
249.982
 21
78.9838
 31
0.0
  0
LINE
  8
0
 62
     0
 10
249.982
 20
78.9838
 30
0.0
 11
235.982
 21
78.9838
 31
0.0
  0
LINE
  8
0
 62
     0
 10
235.982
 20
78.9838
 30
0.0
 11
235.982
 21
92.9831
 31
0.0
  0
LINE
  8
0
 62
     0
 10
255.032
 20
92.9831
 30
0.0
 11
269.032
 21
92.9831
 31
0.0
  0
LINE
  8
0
 62
     0
 10
269.032
 20
92.9831
 30
0.0
 11
269.032
 21
78.9838
 31
0.0
  0
LINE
  8
0
 62
     0
 10
269.032
 20
78.9838
 30
0.0
 11
255.032
 21
78.9838
 31
0.0
  0
LINE
  8
0
 62
     0
 10
255.032
 20
78.9838
 30
0.0
 11
255.032
 21
92.9831
 31
0.0
  0
LINE
  8
0
 62
     0
 10
274.082
 20
92.9831
 30
0.0
 11
288.082
 21
92.9831
 31
0.0
  0
LINE
  8
0
 62
     0
 10
288.082
 20
92.9831
 30
0.0
 11
288.082
 21
78.9838
 31
0.0
  0
LINE
  8
0
 62
     0
 10
288.082
 20
78.9838
 30
0.0
 11
274.082
 21
78.9838
 31
0.0
  0
LINE
  8
0
 62
     0
 10
274.082
 20
78.9838
 30
0.0
 11
274.082
 21
92.9831
 31
0.0
  0
LINE
  8
0
 62
     0
 10
293.132
 20
92.9831
 30
0.0
 11
307.132
 21
92.9831
 31
0.0
  0
LINE
  8
0
 62
     0
 10
307.132
 20
92.9831
 30
0.0
 11
307.132
 21
78.9838
 31
0.0
  0
LINE
  8
0
 62
     0
 10
307.132
 20
78.9838
 30
0.0
 11
293.132
 21
78.9838
 31
0.0
  0
LINE
  8
0
 62
     0
 10
293.132
 20
78.9838
 30
0.0
 11
293.132
 21
92.9831
 31
0.0
  0
LINE
  8
0
 62
     0
 10
316.945
 20
92.9831
 30
0.0
 11
330.944
 21
92.9831
 31
0.0
  0
LINE
  8
0
 62
     0
 10
330.944
 20
92.9831
 30
0.0
 11
330.944
 21
78.9838
 31
0.0
  0
LINE
  8
0
 62
     0
 10
330.944
 20
78.9838
 30
0.0
 11
316.945
 21
78.9838
 31
0.0
  0
LINE
  8
0
 62
     0
 10
316.945
 20
78.9838
 30
0.0
 11
316.945
 21
92.9831
 31
0.0
  0
ENDSEC
  0
EOF
