%TF.GenerationSoftware,KiCad,Pcbnew,9.0.5*%
%TF.CreationDate,2026-01-19T12:06:23+09:00*%
%TF.ProjectId,CL70_FR4_Plate,434c3730-5f46-4523-945f-506c6174652e,rev?*%
%TF.SameCoordinates,Original*%
%TF.FileFunction,Soldermask,Top*%
%TF.FilePolarity,Negative*%
%FSLAX46Y46*%
G04 Gerber Fmt 4.6, Leading zero omitted, Abs format (unit mm)*
G04 Created by KiCad (PCBNEW 9.0.5) date 2026-01-19 12:06:23*
%MOMM*%
%LPD*%
G01*
G04 APERTURE LIST*
%ADD10C,1.500000*%
G04 APERTURE END LIST*
D10*
X52018750Y-183093750D02*
X57518750Y-183093750D01*
X167581250Y-102393750D02*
X180081250Y-102393750D01*
X98898100Y-164243815D02*
X97687500Y-164243815D01*
X90343750Y-134693750D02*
G75*
G02*
X89593750Y-135443812I-750031J-31D01*
G01*
X129481250Y-102393750D02*
X141981250Y-102393750D01*
X142624125Y-198593750D02*
G75*
G02*
X139624125Y-198593750I-1500000J0D01*
G01*
X139624125Y-198593750D02*
G75*
G02*
X142624125Y-198593750I1500000J0D01*
G01*
X148531250Y-116393750D02*
G75*
G02*
X147781250Y-115643750I-31J749969D01*
G01*
X101101500Y-174312550D02*
G75*
G02*
X100901550Y-174112550I19J199969D01*
G01*
X375343750Y-102393750D02*
G75*
G02*
X376093750Y-103143750I-31J-750031D01*
G01*
X161031250Y-102393750D02*
G75*
G02*
X161781250Y-103143750I-31J-750031D01*
G01*
X199881250Y-103143750D02*
X199881250Y-115643750D01*
X61018750Y-102393750D02*
G75*
G02*
X61768750Y-103143750I-31J-750031D01*
G01*
X295131250Y-115643750D02*
G75*
G02*
X294381250Y-116393812I-750031J-31D01*
G01*
X47768750Y-115643750D02*
X47768750Y-103143750D01*
X194605250Y-178989750D02*
G75*
G02*
X194405250Y-178789750I-31J199969D01*
G01*
X266556250Y-134693750D02*
G75*
G02*
X265806250Y-135443812I-750031J-31D01*
G01*
X61768750Y-103143750D02*
X61768750Y-115643750D01*
X48518750Y-145256250D02*
X61018750Y-145256250D01*
X314181250Y-115643750D02*
G75*
G02*
X313431250Y-116393812I-750031J-31D01*
G01*
X141981250Y-102393750D02*
G75*
G02*
X142731250Y-103143750I-31J-750031D01*
G01*
X47768750Y-103143750D02*
G75*
G02*
X48518750Y-102393812I749969J-31D01*
G01*
X238268750Y-141243750D02*
G75*
G02*
X239018750Y-140493812I749969J-31D01*
G01*
X128731250Y-103143750D02*
G75*
G02*
X129481250Y-102393812I749969J-31D01*
G01*
X327125000Y-154493750D02*
X339625000Y-154493750D01*
X72331250Y-116393750D02*
G75*
G02*
X71581250Y-115643750I-31J749969D01*
G01*
X158108650Y-188093685D02*
G75*
G02*
X158308650Y-187893712I199969J4D01*
G01*
X251518750Y-140493750D02*
G75*
G02*
X252268750Y-141243750I-31J-750031D01*
G01*
X61018750Y-116393750D02*
X48518750Y-116393750D01*
X189553850Y-188093685D02*
X189553850Y-191083350D01*
X48518750Y-116393750D02*
G75*
G02*
X47768750Y-115643750I-1J749999D01*
G01*
X306287500Y-178593750D02*
G75*
G02*
X307037550Y-179343750I19J-750031D01*
G01*
X61768750Y-126956250D02*
X61768750Y-139456250D01*
X189753850Y-191283350D02*
X196008650Y-191283350D01*
X104631250Y-115643750D02*
G75*
G02*
X103881250Y-116393812I-750031J-31D01*
G01*
X248507250Y-178024950D02*
X248507250Y-178789750D01*
X280093750Y-192593750D02*
X267593750Y-192593750D01*
X248507250Y-178789750D02*
G75*
G02*
X248307250Y-178989812I-200031J-31D01*
G01*
X104631250Y-103143750D02*
X104631250Y-115643750D01*
X214456250Y-122193750D02*
G75*
G02*
X215206250Y-121443812I749969J-31D01*
G01*
X84831250Y-102393750D02*
G75*
G02*
X85581250Y-103143750I-31J-750031D01*
G01*
X180831250Y-183093815D02*
X180831250Y-179343750D01*
X78725000Y-153743750D02*
X78725000Y-141243750D01*
X151653850Y-191283350D02*
X157908650Y-191283350D01*
X151453850Y-188079750D02*
X151453850Y-191083350D01*
X109681250Y-103143750D02*
G75*
G02*
X110431250Y-102393812I749969J-31D01*
G01*
X97487500Y-172793750D02*
G75*
G02*
X96737500Y-173543762I-749981J-31D01*
G01*
X299143750Y-173543750D02*
X286643750Y-173543750D01*
X362843750Y-135443750D02*
G75*
G02*
X362093750Y-134693750I-31J749969D01*
G01*
X199881250Y-115643750D02*
G75*
G02*
X199131250Y-116393812I-750031J-31D01*
G01*
X81876900Y-169043685D02*
G75*
G02*
X82076900Y-168843662I200019J4D01*
G01*
X71581250Y-115643750D02*
X71581250Y-103143750D01*
X280843750Y-191843750D02*
G75*
G02*
X280093750Y-192593812I-750031J-31D01*
G01*
X71581250Y-103143750D02*
G75*
G02*
X72331250Y-102393812I749969J-31D01*
G01*
X106416500Y-164257750D02*
X105952900Y-164257750D01*
X308668750Y-140493750D02*
G75*
G02*
X309418750Y-141243750I-31J-750031D01*
G01*
X257318750Y-153743750D02*
X257318750Y-141243750D01*
X375343750Y-116393750D02*
X362843750Y-116393750D01*
X91381250Y-102393750D02*
X103881250Y-102393750D01*
X161781250Y-103143750D02*
X161781250Y-115643750D01*
X123681250Y-103143750D02*
X123681250Y-115643750D01*
X103881250Y-102393750D02*
G75*
G02*
X104631250Y-103143750I-31J-750031D01*
G01*
X189606250Y-121443750D02*
G75*
G02*
X190356250Y-122193750I-31J-750031D01*
G01*
X128731250Y-115643750D02*
X128731250Y-103143750D01*
X232468750Y-154493750D02*
X219968750Y-154493750D01*
X103881250Y-116393750D02*
X91381250Y-116393750D01*
X313431250Y-116393750D02*
X300931250Y-116393750D01*
X142731250Y-115643750D02*
G75*
G02*
X141981250Y-116393812I-750031J-31D01*
G01*
X90631250Y-115643750D02*
X90631250Y-103143750D01*
X293037500Y-179343750D02*
G75*
G02*
X293787500Y-178593762I750019J-31D01*
G01*
X257031250Y-103143750D02*
X257031250Y-115643750D01*
X180081250Y-178593750D02*
G75*
G02*
X180831250Y-179343750I-31J-750031D01*
G01*
X57518750Y-181749950D02*
X52018750Y-181749950D01*
X180831250Y-103143750D02*
X180831250Y-115643750D01*
X166631250Y-183293815D02*
X158308650Y-183293815D01*
X224731250Y-192593750D02*
X237231250Y-192593750D01*
X213455250Y-178789750D02*
X213455250Y-178024950D01*
X74712500Y-178593750D02*
X87212500Y-178593750D01*
X258068750Y-154493750D02*
G75*
G02*
X257318750Y-153743750I-31J749969D01*
G01*
X162068750Y-141243750D02*
G75*
G02*
X162818750Y-140493812I749969J-31D01*
G01*
X162818750Y-140493750D02*
X175318750Y-140493750D01*
X110431250Y-102393750D02*
X122931250Y-102393750D01*
X356293750Y-173543750D02*
X343793750Y-173543750D01*
X129481250Y-116393750D02*
G75*
G02*
X128731250Y-115643750I-31J749969D01*
G01*
X47768750Y-146006250D02*
G75*
G02*
X48518750Y-145256312I749969J-31D01*
G01*
X313431250Y-102393750D02*
G75*
G02*
X314181250Y-103143750I-31J-750031D01*
G01*
X223981250Y-188093685D02*
X223981250Y-191843750D01*
X208403850Y-185085750D02*
X207940250Y-185085750D01*
X267593750Y-159543750D02*
X280093750Y-159543750D01*
X332481250Y-102393750D02*
G75*
G02*
X333231250Y-103143750I-31J-750031D01*
G01*
X110431250Y-116393750D02*
G75*
G02*
X109681250Y-115643750I-31J749969D01*
G01*
X251355250Y-177824950D02*
X248707250Y-177824950D01*
X246503850Y-187893685D02*
G75*
G02*
X246703815Y-188093685I-31J-199996D01*
G01*
X122931250Y-116393750D02*
X110431250Y-116393750D01*
X213255250Y-177824950D02*
G75*
G02*
X213455250Y-178024950I-31J-200031D01*
G01*
X109681250Y-115643750D02*
X109681250Y-103143750D01*
X324564400Y-141804150D02*
G75*
G02*
X324764450Y-142004150I19J-200031D01*
G01*
X196208650Y-184885750D02*
X196208650Y-179189750D01*
X261056250Y-96393750D02*
G75*
G02*
X258056250Y-96393750I-1500000J0D01*
G01*
X258056250Y-96393750D02*
G75*
G02*
X261056250Y-96393750I1500000J0D01*
G01*
X141981250Y-116393750D02*
X129481250Y-116393750D01*
X171593750Y-172793750D02*
X171593750Y-160293750D01*
X148531250Y-102393750D02*
X161031250Y-102393750D01*
X357043750Y-160293750D02*
X357043750Y-172793750D01*
X186631250Y-102393750D02*
X199131250Y-102393750D01*
X190356250Y-134693750D02*
G75*
G02*
X189606250Y-135443812I-750031J-31D01*
G01*
X161031250Y-116393750D02*
X148531250Y-116393750D01*
X349304000Y-145207750D02*
G75*
G02*
X349504050Y-145407750I19J-200031D01*
G01*
X167581250Y-116393750D02*
G75*
G02*
X166831250Y-115643750I-31J749969D01*
G01*
X330079350Y-164043815D02*
G75*
G02*
X329879350Y-164243812I-200031J34D01*
G01*
X340375000Y-153743750D02*
X340375000Y-149993685D01*
X147781250Y-103143750D02*
G75*
G02*
X148531250Y-102393812I749969J-31D01*
G01*
X265188375Y-198593750D02*
G75*
G02*
X262188375Y-198593750I-1500000J0D01*
G01*
X262188375Y-198593750D02*
G75*
G02*
X265188375Y-198593750I1500000J0D01*
G01*
X199131250Y-116393750D02*
X186631250Y-116393750D01*
X123968750Y-153743750D02*
X123968750Y-141243750D01*
X185881250Y-115643750D02*
X185881250Y-103143750D01*
X237981250Y-191843750D02*
X237981250Y-188093685D01*
X205681250Y-102393750D02*
X218181250Y-102393750D01*
X337993750Y-191843750D02*
G75*
G02*
X337243750Y-192593812I-750031J-31D01*
G01*
X204643750Y-172793750D02*
G75*
G02*
X203893750Y-173543812I-750031J-31D01*
G01*
X152543750Y-172793750D02*
X152543750Y-160293750D01*
X218931250Y-103143750D02*
X218931250Y-115643750D01*
X223693750Y-172793750D02*
G75*
G02*
X222943750Y-173543812I-750031J-31D01*
G01*
X376093750Y-134693750D02*
G75*
G02*
X375343750Y-135443812I-750031J-31D01*
G01*
X218931250Y-115643750D02*
G75*
G02*
X218181250Y-116393812I-750031J-31D01*
G01*
X293787500Y-192593750D02*
G75*
G02*
X293037550Y-191843750I19J749969D01*
G01*
X218181250Y-116393750D02*
X205681250Y-116393750D01*
X261043750Y-159543750D02*
G75*
G02*
X261793750Y-160293750I-31J-750031D01*
G01*
X78725000Y-141243750D02*
G75*
G02*
X79475000Y-140493762I750019J-31D01*
G01*
X204931250Y-115643750D02*
X204931250Y-103143750D01*
X327718750Y-159543750D02*
X315218750Y-159543750D01*
X254022250Y-185085750D02*
X253558650Y-185085750D01*
X265806250Y-121443750D02*
G75*
G02*
X266556250Y-122193750I-31J-750031D01*
G01*
X208603850Y-188079750D02*
X208603850Y-191083350D01*
X223981250Y-179343750D02*
G75*
G02*
X224731250Y-178593812I749969J-31D01*
G01*
X224731250Y-102393750D02*
X237231250Y-102393750D01*
X254022250Y-185085750D02*
G75*
G02*
X254222250Y-185285750I-31J-200031D01*
G01*
X343043750Y-179343750D02*
G75*
G02*
X343793750Y-178593812I749969J-31D01*
G01*
X357043750Y-191843750D02*
G75*
G02*
X356293750Y-192593812I-750031J-31D01*
G01*
X294381250Y-102393750D02*
G75*
G02*
X295131250Y-103143750I-31J-750031D01*
G01*
X237231250Y-102393750D02*
G75*
G02*
X237981250Y-103143750I-31J-750031D01*
G01*
X328468750Y-172793750D02*
G75*
G02*
X327718750Y-173543812I-750031J-31D01*
G01*
X57518750Y-175406150D02*
X52018750Y-175406150D01*
X223981250Y-115643750D02*
X223981250Y-103143750D01*
X248307250Y-178989750D02*
X246903850Y-178989750D01*
X275331250Y-116393750D02*
X262831250Y-116393750D01*
X223981250Y-103143750D02*
G75*
G02*
X224731250Y-102393812I749969J-31D01*
G01*
X52018750Y-170406150D02*
X57518750Y-170406150D01*
X362093750Y-179343750D02*
G75*
G02*
X362843750Y-178593812I749969J-31D01*
G01*
X343793750Y-173543750D02*
G75*
G02*
X343043750Y-172793750I-31J749969D01*
G01*
X104918750Y-153743750D02*
X104918750Y-141243750D01*
X295131250Y-103143750D02*
X295131250Y-115643750D01*
X262081250Y-103143750D02*
G75*
G02*
X262831250Y-102393812I749969J-31D01*
G01*
X256281250Y-102393750D02*
G75*
G02*
X257031250Y-103143750I-31J-750031D01*
G01*
X338281250Y-115643750D02*
X338281250Y-103143750D01*
X256281250Y-116393750D02*
X243781250Y-116393750D01*
X308006750Y-173347750D02*
X308006750Y-174112550D01*
X247506250Y-134693750D02*
G75*
G02*
X246756250Y-135443812I-750031J-31D01*
G01*
X214456250Y-134693750D02*
X214456250Y-122193750D01*
X319981250Y-102393750D02*
X332481250Y-102393750D01*
X276081250Y-115643750D02*
G75*
G02*
X275331250Y-116393812I-750031J-31D01*
G01*
X262831250Y-102393750D02*
X275331250Y-102393750D01*
X181868750Y-154493750D02*
G75*
G02*
X181118750Y-153743750I-31J749969D01*
G01*
X275331250Y-102393750D02*
G75*
G02*
X276081250Y-103143750I-31J-750031D01*
G01*
X153293750Y-159543750D02*
X165793750Y-159543750D01*
X276081250Y-103143750D02*
X276081250Y-115643750D01*
X306203350Y-164057750D02*
G75*
G02*
X306003350Y-164257812I-200031J-31D01*
G01*
X52018750Y-181749950D02*
G75*
G02*
X51268750Y-180999950I-31J749969D01*
G01*
X127693750Y-159543750D02*
G75*
G02*
X128443750Y-160293750I-31J-750031D01*
G01*
X330079350Y-161054150D02*
G75*
G02*
X330279350Y-160854212I199969J-31D01*
G01*
X270568750Y-140493750D02*
G75*
G02*
X271318750Y-141243750I-31J-750031D01*
G01*
X233218750Y-141243750D02*
X233218750Y-153743750D01*
X281881250Y-116393750D02*
G75*
G02*
X281131250Y-115643750I-31J749969D01*
G01*
X261043750Y-173543750D02*
X248543750Y-173543750D01*
X334268750Y-135443750D02*
G75*
G02*
X333518750Y-134693750I-31J749969D01*
G01*
X339031250Y-116393750D02*
G75*
G02*
X338281250Y-115643750I-31J749969D01*
G01*
X300931250Y-116393750D02*
G75*
G02*
X300181250Y-115643750I-31J749969D01*
G01*
X105952900Y-167051750D02*
X106416500Y-167051750D01*
X99098100Y-169043685D02*
X99098100Y-172947750D01*
X47768750Y-139456250D02*
X47768750Y-126956250D01*
X351531250Y-116393750D02*
X339031250Y-116393750D01*
X48518750Y-140206250D02*
G75*
G02*
X47768750Y-139456250I-1J749999D01*
G01*
X333231250Y-103143750D02*
X333231250Y-115643750D01*
X340575000Y-145193815D02*
G75*
G02*
X340374985Y-144993815I19J200034D01*
G01*
X238181250Y-187893685D02*
X246503850Y-187893685D01*
X152543750Y-160293750D02*
G75*
G02*
X153293750Y-159543812I749969J-31D01*
G01*
X208403850Y-187879750D02*
G75*
G02*
X208603850Y-188079750I-31J-200031D01*
G01*
X352281250Y-103143750D02*
X352281250Y-115643750D01*
X319981250Y-116393750D02*
G75*
G02*
X319231250Y-115643750I-31J749969D01*
G01*
X336534150Y-160854150D02*
X330279350Y-160854150D01*
X319231250Y-103143750D02*
G75*
G02*
X319981250Y-102393812I749969J-31D01*
G01*
X356293750Y-192593750D02*
X343793750Y-192593750D01*
X61018750Y-126206250D02*
G75*
G02*
X61768750Y-126956250I-31J-750031D01*
G01*
X339031250Y-102393750D02*
X351531250Y-102393750D01*
X58268750Y-177499950D02*
X58268750Y-180999950D01*
X239018750Y-140493750D02*
X251518750Y-140493750D01*
X162068750Y-153743750D02*
X162068750Y-141243750D01*
X270568750Y-154493750D02*
X258068750Y-154493750D01*
X351531250Y-102393750D02*
G75*
G02*
X352281250Y-103143750I-31J-750031D01*
G01*
X80273500Y-173147750D02*
X81676900Y-173147750D01*
X248507250Y-178024950D02*
G75*
G02*
X248707250Y-177825012I199969J-31D01*
G01*
X176068750Y-141243750D02*
X176068750Y-153743750D01*
X143018750Y-153743750D02*
X143018750Y-141243750D01*
X61018750Y-145256250D02*
G75*
G02*
X61768750Y-146006250I-31J-750031D01*
G01*
X185593750Y-172793750D02*
G75*
G02*
X184843750Y-173543812I-750031J-31D01*
G01*
X104918750Y-141243750D02*
G75*
G02*
X105668750Y-140493812I749969J-31D01*
G01*
X118918750Y-153743750D02*
G75*
G02*
X118168750Y-154493812I-750031J-31D01*
G01*
X284856250Y-135443750D02*
X272356250Y-135443750D01*
X246756250Y-121443750D02*
G75*
G02*
X247506250Y-122193750I-31J-750031D01*
G01*
X376093750Y-115643750D02*
G75*
G02*
X375343750Y-116393812I-750031J-31D01*
G01*
X48518750Y-159256250D02*
G75*
G02*
X47768750Y-158506250I-1J749999D01*
G01*
X362093750Y-115643750D02*
X362093750Y-103143750D01*
X299893750Y-172793750D02*
G75*
G02*
X299143750Y-173543812I-750031J-31D01*
G01*
X362093750Y-103143750D02*
G75*
G02*
X362843750Y-102393812I749969J-31D01*
G01*
X98525000Y-192593750D02*
G75*
G02*
X97775050Y-191843750I19J749969D01*
G01*
X228456250Y-134693750D02*
G75*
G02*
X227706250Y-135443812I-750031J-31D01*
G01*
X138256250Y-134693750D02*
X138256250Y-122193750D01*
X90343750Y-122193750D02*
X90343750Y-134693750D01*
X61018750Y-140206250D02*
X48518750Y-140206250D01*
X214168750Y-141243750D02*
X214168750Y-153743750D01*
X323706250Y-134693750D02*
G75*
G02*
X322956250Y-135443812I-750031J-31D01*
G01*
X189353850Y-187893685D02*
G75*
G02*
X189553815Y-188093685I-31J-199996D01*
G01*
X61018750Y-159256250D02*
X48518750Y-159256250D01*
X251518750Y-154493750D02*
X239018750Y-154493750D01*
X47768750Y-158506250D02*
X47768750Y-146006250D01*
X99298100Y-173147750D02*
X100701500Y-173147750D01*
X341985600Y-149993685D02*
X341985600Y-153897750D01*
X299143750Y-159543750D02*
G75*
G02*
X299893750Y-160293750I-31J-750031D01*
G01*
X119206250Y-134693750D02*
X119206250Y-122193750D01*
X181118750Y-153743750D02*
X181118750Y-141243750D01*
X152256250Y-134693750D02*
G75*
G02*
X151506250Y-135443812I-750031J-31D01*
G01*
X89593750Y-121443750D02*
G75*
G02*
X90343750Y-122193750I-31J-750031D01*
G01*
X196872250Y-185085750D02*
X196408650Y-185085750D01*
X308668750Y-154493750D02*
X296168750Y-154493750D01*
X196156250Y-121443750D02*
X208656250Y-121443750D01*
X89593750Y-135443750D02*
X77093750Y-135443750D01*
X266843750Y-160293750D02*
G75*
G02*
X267593750Y-159543812I749969J-31D01*
G01*
X77093750Y-135443750D02*
G75*
G02*
X76343750Y-134693750I-31J749969D01*
G01*
X349504000Y-147801750D02*
G75*
G02*
X349304000Y-148001762I-199981J-31D01*
G01*
X347037000Y-154097750D02*
X348440400Y-154097750D01*
X343989000Y-155262550D02*
X346637000Y-155262550D01*
X286643750Y-159543750D02*
X299143750Y-159543750D01*
X76343750Y-122193750D02*
G75*
G02*
X77093750Y-121443812I749969J-31D01*
G01*
X157306250Y-134693750D02*
X157306250Y-122193750D01*
X100906250Y-121443750D02*
X113406250Y-121443750D01*
X320113000Y-155262550D02*
X322761000Y-155262550D01*
X114156250Y-134693750D02*
G75*
G02*
X113406250Y-135443812I-750031J-31D01*
G01*
X176356250Y-134693750D02*
X176356250Y-122193750D01*
X113406250Y-135443750D02*
X100906250Y-135443750D01*
X96737500Y-159543750D02*
X84237500Y-159543750D01*
X162818750Y-154493750D02*
G75*
G02*
X162068750Y-153743750I-31J749969D01*
G01*
X191357250Y-178024950D02*
G75*
G02*
X191557250Y-177825012I199969J-31D01*
G01*
X115193750Y-159543750D02*
X127693750Y-159543750D01*
X119956250Y-121443750D02*
X132456250Y-121443750D01*
X196208650Y-188079750D02*
G75*
G02*
X196408650Y-187879812I199969J-31D01*
G01*
X189753850Y-191283350D02*
G75*
G02*
X189553850Y-191083350I-31J199969D01*
G01*
X181031250Y-187893685D02*
X189353850Y-187893685D01*
X133206250Y-122193750D02*
X133206250Y-134693750D01*
X87962500Y-191843750D02*
G75*
G02*
X87212500Y-192593762I-749981J-31D01*
G01*
X266843750Y-172793750D02*
X266843750Y-160293750D01*
X196008650Y-178989750D02*
X194605250Y-178989750D01*
X233506250Y-134693750D02*
X233506250Y-122193750D01*
X234256250Y-135443750D02*
G75*
G02*
X233506250Y-134693750I-31J749969D01*
G01*
X132456250Y-135443750D02*
X119956250Y-135443750D01*
X312858150Y-169043685D02*
G75*
G02*
X313058150Y-168843712I199969J4D01*
G01*
X185593750Y-160293750D02*
X185593750Y-172793750D01*
X242743750Y-160293750D02*
X242743750Y-172793750D01*
X151506250Y-135443750D02*
X139006250Y-135443750D01*
X172343750Y-173543750D02*
G75*
G02*
X171593750Y-172793750I-31J749969D01*
G01*
X128443750Y-160293750D02*
X128443750Y-172793750D01*
X196156250Y-135443750D02*
G75*
G02*
X195406250Y-134693750I-31J749969D01*
G01*
X139006250Y-135443750D02*
G75*
G02*
X138256250Y-134693750I-31J749969D01*
G01*
X196208650Y-191083350D02*
X196208650Y-188079750D01*
X180831250Y-191843750D02*
G75*
G02*
X180081250Y-192593812I-750031J-31D01*
G01*
X138256250Y-122193750D02*
G75*
G02*
X139006250Y-121443812I749969J-31D01*
G01*
X228456250Y-122193750D02*
X228456250Y-134693750D01*
X158056250Y-135443750D02*
G75*
G02*
X157306250Y-134693750I-31J749969D01*
G01*
X105552900Y-160854150D02*
X99298100Y-160854150D01*
X331882750Y-173347750D02*
X331882750Y-174112550D01*
X219218750Y-153743750D02*
X219218750Y-141243750D01*
X165793750Y-159543750D02*
G75*
G02*
X166543750Y-160293750I-31J-750031D01*
G01*
X208656250Y-121443750D02*
G75*
G02*
X209406250Y-122193750I-31J-750031D01*
G01*
X196408650Y-187879750D02*
X196872250Y-187879750D01*
X209406250Y-122193750D02*
X209406250Y-134693750D01*
X357043750Y-179343750D02*
X357043750Y-191843750D01*
X134243750Y-159543750D02*
X146743750Y-159543750D01*
X237981250Y-191843750D02*
G75*
G02*
X237231250Y-192593812I-750031J-31D01*
G01*
X208656250Y-135443750D02*
X196156250Y-135443750D01*
X181031250Y-183293815D02*
G75*
G02*
X180831185Y-183093815I-31J200034D01*
G01*
X203893750Y-173543750D02*
X191393750Y-173543750D01*
X172343750Y-159543750D02*
X184843750Y-159543750D01*
X106616500Y-166851750D02*
X106616500Y-164457750D01*
X195406250Y-134693750D02*
X195406250Y-122193750D01*
X207940250Y-187879750D02*
G75*
G02*
X207740250Y-187679750I-31J199969D01*
G01*
X337993750Y-179343750D02*
X337993750Y-191843750D01*
X272356250Y-135443750D02*
G75*
G02*
X271606250Y-134693750I-31J749969D01*
G01*
X195406250Y-122193750D02*
G75*
G02*
X196156250Y-121443812I749969J-31D01*
G01*
X315218750Y-173543750D02*
X327718750Y-173543750D01*
X306203350Y-161054150D02*
X306203350Y-164057750D01*
X215206250Y-121443750D02*
X227706250Y-121443750D01*
X304656250Y-134693750D02*
G75*
G02*
X303906250Y-135443812I-750031J-31D01*
G01*
X304656250Y-122193750D02*
X304656250Y-134693750D01*
X333518750Y-134693750D02*
X333518750Y-122193750D01*
X266556250Y-122193750D02*
X266556250Y-134693750D01*
X106616500Y-166851750D02*
G75*
G02*
X106416500Y-167051762I-199981J-31D01*
G01*
X271606250Y-134693750D02*
X271606250Y-122193750D01*
X75422100Y-173147750D02*
G75*
G02*
X75222150Y-172947750I19J199969D01*
G01*
X252556250Y-134693750D02*
X252556250Y-122193750D01*
X83487500Y-164043815D02*
G75*
G02*
X83287500Y-164243762I-199981J34D01*
G01*
X252556250Y-122193750D02*
G75*
G02*
X253306250Y-121443812I749969J-31D01*
G01*
X362093750Y-191843750D02*
X362093750Y-179343750D01*
X284856250Y-121443750D02*
G75*
G02*
X285606250Y-122193750I-31J-750031D01*
G01*
X303906250Y-121443750D02*
G75*
G02*
X304656250Y-122193750I-31J-750031D01*
G01*
X291406250Y-121443750D02*
X303906250Y-121443750D01*
X347518750Y-122193750D02*
X347518750Y-134693750D01*
X290656250Y-122193750D02*
G75*
G02*
X291406250Y-121443812I749969J-31D01*
G01*
X314468750Y-169043685D02*
X314468750Y-172793750D01*
X215058650Y-178989750D02*
X213655250Y-178989750D01*
X310456250Y-121443750D02*
X322956250Y-121443750D01*
X229493750Y-173543750D02*
G75*
G02*
X228743750Y-172793750I-31J749969D01*
G01*
X310456250Y-135443750D02*
G75*
G02*
X309706250Y-134693750I-31J749969D01*
G01*
X208603850Y-184885750D02*
G75*
G02*
X208403850Y-185085812I-200031J-31D01*
G01*
X309706250Y-134693750D02*
X309706250Y-122193750D01*
X57518750Y-183093750D02*
G75*
G02*
X58268750Y-183843750I-31J-750031D01*
G01*
X334268750Y-121443750D02*
X346768750Y-121443750D01*
X190643750Y-160293750D02*
G75*
G02*
X191393750Y-159543812I749969J-31D01*
G01*
X347518750Y-134693750D02*
G75*
G02*
X346768750Y-135443812I-750031J-31D01*
G01*
X375343750Y-135443750D02*
X362843750Y-135443750D01*
X346768750Y-135443750D02*
X334268750Y-135443750D01*
X213418750Y-140493750D02*
G75*
G02*
X214168750Y-141243750I-31J-750031D01*
G01*
X118918750Y-141243750D02*
X118918750Y-153743750D01*
X362093750Y-134693750D02*
X362093750Y-122193750D01*
X51268750Y-183843750D02*
G75*
G02*
X52018750Y-183093812I749969J-31D01*
G01*
X362843750Y-121443750D02*
X375343750Y-121443750D01*
X194368750Y-140493750D02*
G75*
G02*
X195118750Y-141243750I-31J-750031D01*
G01*
X79475000Y-140493750D02*
X91975000Y-140493750D01*
X158308650Y-187893685D02*
X166631250Y-187893685D01*
X158108650Y-191083350D02*
X158108650Y-188093685D01*
X176068750Y-153743750D02*
G75*
G02*
X175318750Y-154493812I-750031J-31D01*
G01*
X81676900Y-160854150D02*
X75422100Y-160854150D01*
X197072250Y-187679750D02*
X197072250Y-185285750D01*
X91975000Y-140493750D02*
G75*
G02*
X92725050Y-141243750I19J-750031D01*
G01*
X340575000Y-149793685D02*
X341785600Y-149793685D01*
X92725000Y-141243750D02*
X92725000Y-153743750D01*
X191157250Y-178989750D02*
X189753850Y-178989750D01*
X92725000Y-153743750D02*
G75*
G02*
X91975000Y-154493762I-749981J-31D01*
G01*
X253158650Y-178989750D02*
G75*
G02*
X253358650Y-179189750I-31J-200031D01*
G01*
X210443750Y-159543750D02*
X222943750Y-159543750D01*
X118168750Y-140493750D02*
G75*
G02*
X118918750Y-141243750I-31J-750031D01*
G01*
X91975000Y-154493750D02*
X79475000Y-154493750D01*
X254222250Y-187679750D02*
X254222250Y-185285750D01*
X137218750Y-154493750D02*
X124718750Y-154493750D01*
X77225500Y-174312550D02*
G75*
G02*
X77025550Y-174112550I19J199969D01*
G01*
X118168750Y-154493750D02*
X105668750Y-154493750D01*
X51268750Y-177499950D02*
G75*
G02*
X52018750Y-176750012I749969J-31D01*
G01*
X105668750Y-154493750D02*
G75*
G02*
X104918750Y-153743750I-31J749969D01*
G01*
X237231250Y-178593750D02*
G75*
G02*
X237981250Y-179343750I-31J-750031D01*
G01*
X200918750Y-154493750D02*
G75*
G02*
X200168750Y-153743750I-31J749969D01*
G01*
X124718750Y-140493750D02*
X137218750Y-140493750D01*
X289618750Y-140493750D02*
G75*
G02*
X290368750Y-141243750I-31J-750031D01*
G01*
X123968750Y-141243750D02*
G75*
G02*
X124718750Y-140493812I749969J-31D01*
G01*
X280093750Y-173543750D02*
X267593750Y-173543750D01*
X143768750Y-140493750D02*
X156268750Y-140493750D01*
X158108650Y-183093815D02*
X158108650Y-179189750D01*
X191357250Y-178789750D02*
G75*
G02*
X191157250Y-178989812I-200031J-31D01*
G01*
X157018750Y-141243750D02*
X157018750Y-153743750D01*
X253358650Y-191083350D02*
G75*
G02*
X253158650Y-191283412I-200031J-31D01*
G01*
X213418750Y-154493750D02*
X200918750Y-154493750D01*
X157018750Y-153743750D02*
G75*
G02*
X156268750Y-154493812I-750031J-31D01*
G01*
X280093750Y-159543750D02*
G75*
G02*
X280843750Y-160293750I-31J-750031D01*
G01*
X195118750Y-153743750D02*
G75*
G02*
X194368750Y-154493812I-750031J-31D01*
G01*
X143018750Y-141243750D02*
G75*
G02*
X143768750Y-140493812I749969J-31D01*
G01*
X137968750Y-191843750D02*
G75*
G02*
X137218750Y-192593812I-750031J-31D01*
G01*
X87212500Y-178593750D02*
G75*
G02*
X87962550Y-179343750I19J-750031D01*
G01*
X175318750Y-154493750D02*
X162818750Y-154493750D01*
X101101500Y-174312550D02*
X103749500Y-174312550D01*
X343043750Y-172793750D02*
X343043750Y-160293750D01*
X181868750Y-140493750D02*
X194368750Y-140493750D01*
X267593750Y-173543750D02*
G75*
G02*
X266843750Y-172793750I-31J749969D01*
G01*
X204643750Y-160293750D02*
X204643750Y-172793750D01*
X111775000Y-179343750D02*
X111775000Y-191843750D01*
X195118750Y-141243750D02*
X195118750Y-153743750D01*
X100901500Y-173347750D02*
X100901500Y-174112550D01*
X299893750Y-160293750D02*
X299893750Y-172793750D01*
X210443750Y-173543750D02*
G75*
G02*
X209693750Y-172793750I-31J749969D01*
G01*
X336734150Y-164057750D02*
X336734150Y-161054150D01*
X57518750Y-176749950D02*
G75*
G02*
X58268750Y-177499950I-31J-750031D01*
G01*
X181118750Y-141243750D02*
G75*
G02*
X181868750Y-140493812I749969J-31D01*
G01*
X257318750Y-141243750D02*
G75*
G02*
X258068750Y-140493812I749969J-31D01*
G01*
X200168750Y-141243750D02*
G75*
G02*
X200918750Y-140493812I749969J-31D01*
G01*
X285893750Y-172793750D02*
X285893750Y-160293750D01*
X271318750Y-141243750D02*
X271318750Y-153743750D01*
X150790250Y-187879750D02*
X151253850Y-187879750D01*
X296168750Y-140493750D02*
X308668750Y-140493750D01*
X239018750Y-154493750D02*
G75*
G02*
X238268750Y-153743750I-31J749969D01*
G01*
X232468750Y-140493750D02*
G75*
G02*
X233218750Y-141243750I-31J-750031D01*
G01*
X341985600Y-142004150D02*
G75*
G02*
X342185600Y-141804162I200019J-31D01*
G01*
X219968750Y-154493750D02*
G75*
G02*
X219218750Y-153743750I-31J749969D01*
G01*
X153257250Y-178789750D02*
G75*
G02*
X153057250Y-178989812I-200031J-31D01*
G01*
X307037500Y-179343750D02*
X307037500Y-191843750D01*
X252268750Y-153743750D02*
G75*
G02*
X251518750Y-154493812I-750031J-31D01*
G01*
X251355250Y-177824950D02*
G75*
G02*
X251555250Y-178024950I-31J-200031D01*
G01*
X323993750Y-179343750D02*
G75*
G02*
X324743750Y-178593812I749969J-31D01*
G01*
X238268750Y-153743750D02*
X238268750Y-141243750D01*
X194205250Y-177824950D02*
G75*
G02*
X194405250Y-178024950I-31J-200031D01*
G01*
X150590250Y-185285750D02*
G75*
G02*
X150790250Y-185085812I199969J-31D01*
G01*
X258068750Y-140493750D02*
X270568750Y-140493750D01*
X156305250Y-178789750D02*
X156305250Y-178024950D01*
X253158650Y-178989750D02*
X251755250Y-178989750D01*
X137968750Y-179343750D02*
X137968750Y-191843750D01*
X97487500Y-169043685D02*
G75*
G02*
X97687500Y-168843662I200019J4D01*
G01*
X81876900Y-172947750D02*
X81876900Y-169043685D01*
X75222100Y-164057750D02*
G75*
G02*
X75022100Y-164257762I-199981J-31D01*
G01*
X156105250Y-177824950D02*
X153457250Y-177824950D01*
X111025000Y-178593750D02*
G75*
G02*
X111775050Y-179343750I19J-750031D01*
G01*
X276368750Y-141243750D02*
G75*
G02*
X277118750Y-140493812I749969J-31D01*
G01*
X271318750Y-153743750D02*
G75*
G02*
X270568750Y-154493812I-750031J-31D01*
G01*
X103949500Y-173347750D02*
G75*
G02*
X104149500Y-173147762I200019J-31D01*
G01*
X277118750Y-140493750D02*
X289618750Y-140493750D01*
X104149500Y-173147750D02*
X105552900Y-173147750D01*
X80073500Y-174112550D02*
G75*
G02*
X79873500Y-174312562I-199981J-31D01*
G01*
X290368750Y-153743750D02*
G75*
G02*
X289618750Y-154493812I-750031J-31D01*
G01*
X341785600Y-145193815D02*
X340575000Y-145193815D01*
X295418750Y-141243750D02*
G75*
G02*
X296168750Y-140493812I749969J-31D01*
G01*
X328468750Y-169043685D02*
G75*
G02*
X328668750Y-168843712I199969J4D01*
G01*
X190643750Y-172793750D02*
X190643750Y-160293750D01*
X114443750Y-160293750D02*
G75*
G02*
X115193750Y-159543812I749969J-31D01*
G01*
X184843750Y-173543750D02*
X172343750Y-173543750D01*
X146743750Y-173543750D02*
X134243750Y-173543750D01*
X194405250Y-178789750D02*
X194405250Y-178024950D01*
X166543750Y-172793750D02*
G75*
G02*
X165793750Y-173543812I-750031J-31D01*
G01*
X341785600Y-149793685D02*
G75*
G02*
X341985615Y-149993685I19J-199996D01*
G01*
X203893750Y-159543750D02*
G75*
G02*
X204643750Y-160293750I-31J-750031D01*
G01*
X207940250Y-187879750D02*
X208403850Y-187879750D01*
X215258650Y-183093815D02*
X215258650Y-179189750D01*
X280843750Y-160293750D02*
X280843750Y-172793750D01*
X191393750Y-173543750D02*
G75*
G02*
X190643750Y-172793750I-31J749969D01*
G01*
X336534150Y-160854150D02*
G75*
G02*
X336734150Y-161054150I-31J-200031D01*
G01*
X324743750Y-192593750D02*
G75*
G02*
X323993750Y-191843750I-31J749969D01*
G01*
X209693750Y-172793750D02*
X209693750Y-160293750D01*
X305339750Y-164457750D02*
X305339750Y-166851750D01*
X313058150Y-164243815D02*
G75*
G02*
X312858085Y-164043815I-31J200034D01*
G01*
X241993750Y-159543750D02*
G75*
G02*
X242743750Y-160293750I-31J-750031D01*
G01*
X349304000Y-145207750D02*
X348840400Y-145207750D01*
X343589000Y-154097750D02*
G75*
G02*
X343789050Y-154297750I19J-200031D01*
G01*
X241993750Y-173543750D02*
X229493750Y-173543750D01*
X105952900Y-164257750D02*
G75*
G02*
X105752950Y-164057750I19J199969D01*
G01*
X306003350Y-167051750D02*
G75*
G02*
X306203350Y-167251750I-31J-200031D01*
G01*
X306203350Y-161054150D02*
G75*
G02*
X306403350Y-160854212I199969J-31D01*
G01*
X248543750Y-159543750D02*
X261043750Y-159543750D01*
X340375000Y-149993685D02*
G75*
G02*
X340575000Y-149793662I200019J4D01*
G01*
X261793750Y-160293750D02*
X261793750Y-172793750D01*
X223781250Y-187893685D02*
G75*
G02*
X223981215Y-188093685I-31J-199996D01*
G01*
X286643750Y-173543750D02*
G75*
G02*
X285893750Y-172793750I-31J749969D01*
G01*
X105752900Y-172947750D02*
X105752900Y-167251750D01*
X84237500Y-173543750D02*
G75*
G02*
X83487550Y-172793750I19J749969D01*
G01*
X285893750Y-160293750D02*
G75*
G02*
X286643750Y-159543812I749969J-31D01*
G01*
X97687500Y-168843685D02*
X98898100Y-168843685D01*
X84237500Y-173543750D02*
X96737500Y-173543750D01*
X189353850Y-183293815D02*
X181031250Y-183293815D01*
X87962500Y-179343750D02*
X87962500Y-191843750D01*
X75222100Y-161054150D02*
G75*
G02*
X75422100Y-160854162I200019J-31D01*
G01*
X97487500Y-164043815D02*
X97487500Y-160293750D01*
X318109600Y-145007750D02*
G75*
G02*
X317909600Y-145207762I-199981J-31D01*
G01*
X266843750Y-179343750D02*
G75*
G02*
X267593750Y-178593812I749969J-31D01*
G01*
X74712500Y-192593750D02*
G75*
G02*
X73962550Y-191843750I19J749969D01*
G01*
X156105250Y-177824950D02*
G75*
G02*
X156305250Y-178024950I-31J-200031D01*
G01*
X189553850Y-179189750D02*
X189553850Y-183093815D01*
X280093750Y-178593750D02*
G75*
G02*
X280843750Y-179343750I-31J-750031D01*
G01*
X267593750Y-192593750D02*
G75*
G02*
X266843750Y-191843750I-31J749969D01*
G01*
X98525000Y-178593750D02*
X111025000Y-178593750D01*
X246703850Y-188093685D02*
X246703850Y-191083350D01*
X111025000Y-192593750D02*
X98525000Y-192593750D01*
X266843750Y-191843750D02*
X266843750Y-179343750D01*
X97775000Y-191843750D02*
X97775000Y-179343750D01*
X153257250Y-178024950D02*
X153257250Y-178789750D01*
X123968750Y-191843750D02*
X123968750Y-179343750D01*
X180081250Y-178593750D02*
X167581250Y-178593750D01*
X215258650Y-191083350D02*
G75*
G02*
X215058650Y-191283412I-200031J-31D01*
G01*
X307037500Y-191843750D02*
G75*
G02*
X306287500Y-192593762I-749981J-31D01*
G01*
X335130750Y-173147750D02*
X336534150Y-173147750D01*
X323993750Y-191843750D02*
X323993750Y-179343750D01*
X324743750Y-178593750D02*
X337243750Y-178593750D01*
X51268750Y-171156150D02*
G75*
G02*
X52018750Y-170406212I749969J-31D01*
G01*
X375343750Y-178593750D02*
G75*
G02*
X376093750Y-179343750I-31J-750031D01*
G01*
X312658150Y-160854150D02*
G75*
G02*
X312858150Y-161054150I-31J-200031D01*
G01*
X253558650Y-185085750D02*
G75*
G02*
X253358650Y-184885750I-31J199969D01*
G01*
X51268750Y-187343750D02*
X51268750Y-183843750D01*
X375343750Y-192593750D02*
X362843750Y-192593750D01*
X75318750Y-198593750D02*
G75*
G02*
X72318750Y-198593750I-1500000J0D01*
G01*
X72318750Y-198593750D02*
G75*
G02*
X75318750Y-198593750I1500000J0D01*
G01*
X362843750Y-192593750D02*
G75*
G02*
X362093750Y-191843750I-31J749969D01*
G01*
X153057250Y-178989750D02*
X151653850Y-178989750D01*
X57518750Y-170406150D02*
G75*
G02*
X58268750Y-171156150I-31J-750031D01*
G01*
X326175000Y-149793685D02*
G75*
G02*
X326375015Y-149993685I19J-199996D01*
G01*
X58268750Y-171156150D02*
X58268750Y-174656150D01*
X346837000Y-155062550D02*
G75*
G02*
X346637000Y-155262562I-199981J-31D01*
G01*
X58268750Y-174656150D02*
G75*
G02*
X57518750Y-175406212I-750031J-31D01*
G01*
X317909600Y-148001750D02*
G75*
G02*
X318109650Y-148201750I19J-200031D01*
G01*
X52018750Y-175406150D02*
G75*
G02*
X51268750Y-174656150I-31J749969D01*
G01*
X307806750Y-173147750D02*
G75*
G02*
X308006750Y-173347750I-31J-200031D01*
G01*
X51268750Y-174656150D02*
X51268750Y-171156150D01*
X82076900Y-164243815D02*
G75*
G02*
X81876885Y-164043815I19J200034D01*
G01*
X83581250Y-96393750D02*
G75*
G02*
X80581250Y-96393750I-1500000J0D01*
G01*
X80581250Y-96393750D02*
G75*
G02*
X83581250Y-96393750I1500000J0D01*
G01*
X52018750Y-176749950D02*
X57518750Y-176749950D01*
X334930750Y-173347750D02*
G75*
G02*
X335130750Y-173147812I199969J-31D01*
G01*
X52018750Y-188093750D02*
G75*
G02*
X51268750Y-187343750I-31J749969D01*
G01*
X314268750Y-164243815D02*
X313058150Y-164243815D01*
X328468750Y-164043815D02*
X328468750Y-160293750D01*
X318309600Y-154097750D02*
G75*
G02*
X318109650Y-153897750I19J199969D01*
G01*
X166831250Y-179343750D02*
X166831250Y-183093815D01*
X324764400Y-149993685D02*
G75*
G02*
X324964400Y-149793662I200019J4D01*
G01*
X319913000Y-154297750D02*
X319913000Y-155062550D01*
X99098100Y-161054150D02*
X99098100Y-164043815D01*
X194205250Y-177824950D02*
X191557250Y-177824950D01*
X75022100Y-164257750D02*
X74558500Y-164257750D01*
X328668750Y-168843685D02*
X329879350Y-168843685D01*
X213655250Y-178989750D02*
G75*
G02*
X213455250Y-178789750I-31J199969D01*
G01*
X223981250Y-183093815D02*
G75*
G02*
X223781250Y-183293812I-200031J34D01*
G01*
X215258650Y-188093685D02*
G75*
G02*
X215458650Y-187893712I199969J4D01*
G01*
X223981250Y-179343750D02*
X223981250Y-183093815D01*
X348440400Y-141804150D02*
G75*
G02*
X348640450Y-142004150I19J-200031D01*
G01*
X215458650Y-183293815D02*
G75*
G02*
X215258585Y-183093815I-31J200034D01*
G01*
X156505250Y-178989750D02*
G75*
G02*
X156305250Y-178789750I-31J199969D01*
G01*
X215058650Y-178989750D02*
G75*
G02*
X215258650Y-179189750I-31J-200031D01*
G01*
X308206750Y-174312550D02*
G75*
G02*
X308006750Y-174112550I-31J199969D01*
G01*
X210207250Y-178989750D02*
X208803850Y-178989750D01*
X215258650Y-191083350D02*
X215258650Y-188093685D01*
X208803850Y-191283350D02*
G75*
G02*
X208603850Y-191083350I-31J199969D01*
G01*
X253558650Y-187879750D02*
X254022250Y-187879750D01*
X215458650Y-187893685D02*
X223781250Y-187893685D01*
X348640400Y-145007750D02*
X348640400Y-142004150D01*
X224731250Y-192593750D02*
G75*
G02*
X223981250Y-191843750I-31J749969D01*
G01*
X314268750Y-168843685D02*
G75*
G02*
X314468715Y-169043685I-31J-199996D01*
G01*
X251555250Y-178789750D02*
X251555250Y-178024950D01*
X253358650Y-184885750D02*
X253358650Y-179189750D01*
X324764400Y-153897750D02*
X324764400Y-149993685D01*
X153257250Y-178024950D02*
G75*
G02*
X153457250Y-177825012I199969J-31D01*
G01*
X191357250Y-178024950D02*
X191357250Y-178789750D01*
X80073500Y-174112550D02*
X80073500Y-173347750D01*
X340375000Y-153743750D02*
G75*
G02*
X339625000Y-154493762I-749981J-31D01*
G01*
X322961000Y-154297750D02*
G75*
G02*
X323161000Y-154097762I200019J-31D01*
G01*
X166831250Y-183093815D02*
G75*
G02*
X166631250Y-183293812I-200031J34D01*
G01*
X317446000Y-148001750D02*
X317909600Y-148001750D01*
X158308650Y-183293815D02*
G75*
G02*
X158108585Y-183093815I-31J200034D01*
G01*
X327125000Y-154493750D02*
G75*
G02*
X326375050Y-153743750I19J749969D01*
G01*
X157908650Y-178989750D02*
G75*
G02*
X158108650Y-179189750I-31J-200031D01*
G01*
X74558500Y-167051750D02*
G75*
G02*
X74358550Y-166851750I19J199969D01*
G01*
X166631250Y-187893685D02*
G75*
G02*
X166831215Y-188093685I-31J-199996D01*
G01*
X81876900Y-164043815D02*
X81876900Y-161054150D01*
X180831250Y-191843750D02*
X180831250Y-188093685D01*
X324764400Y-144993815D02*
X324764400Y-142004150D01*
X196872250Y-185085750D02*
G75*
G02*
X197072250Y-185285750I-31J-200031D01*
G01*
X98898100Y-168843685D02*
G75*
G02*
X99098115Y-169043685I19J-199996D01*
G01*
X341985600Y-142004150D02*
X341985600Y-144993815D01*
X324764400Y-153897750D02*
G75*
G02*
X324564400Y-154097762I-199981J-31D01*
G01*
X322961000Y-155062550D02*
G75*
G02*
X322761000Y-155262562I-199981J-31D01*
G01*
X323161000Y-154097750D02*
X324564400Y-154097750D01*
X322961000Y-155062550D02*
X322961000Y-154297750D01*
X312658150Y-160854150D02*
X306403350Y-160854150D01*
X343989000Y-155262550D02*
G75*
G02*
X343789050Y-155062550I19J199969D01*
G01*
X348840400Y-148001750D02*
X349304000Y-148001750D01*
X348640400Y-153897750D02*
G75*
G02*
X348440400Y-154097762I-199981J-31D01*
G01*
X74358500Y-164457750D02*
G75*
G02*
X74558500Y-164257762I200019J-31D01*
G01*
X305539750Y-167051750D02*
X306003350Y-167051750D01*
X330079350Y-169043685D02*
X330079350Y-172947750D01*
X306203350Y-167251750D02*
X306203350Y-172947750D01*
X311254750Y-173147750D02*
X312658150Y-173147750D01*
X306403350Y-173147750D02*
G75*
G02*
X306203350Y-172947750I-31J199969D01*
G01*
X336934150Y-167051750D02*
X337397750Y-167051750D01*
X306403350Y-173147750D02*
X307806750Y-173147750D01*
X105552900Y-160854150D02*
G75*
G02*
X105752950Y-161054150I19J-200031D01*
G01*
X311054750Y-174112550D02*
X311054750Y-173347750D01*
X332082750Y-174312550D02*
X334730750Y-174312550D01*
X312858150Y-172947750D02*
X312858150Y-169043685D01*
X332082750Y-174312550D02*
G75*
G02*
X331882750Y-174112550I-31J199969D01*
G01*
X315218750Y-173543750D02*
G75*
G02*
X314468750Y-172793750I-31J749969D01*
G01*
X82076900Y-168843685D02*
X83287500Y-168843685D01*
X328468750Y-172793750D02*
X328468750Y-169043685D01*
X99098100Y-161054150D02*
G75*
G02*
X99298100Y-160854162I200019J-31D01*
G01*
X336734150Y-167251750D02*
G75*
G02*
X336934150Y-167051812I199969J-31D01*
G01*
X76825500Y-173147750D02*
G75*
G02*
X77025550Y-173347750I19J-200031D01*
G01*
X337397750Y-164257750D02*
X336934150Y-164257750D01*
X81876900Y-172947750D02*
G75*
G02*
X81676900Y-173147762I-199981J-31D01*
G01*
X83487500Y-160293750D02*
G75*
G02*
X84237500Y-159543762I750019J-31D01*
G01*
X77225500Y-174312550D02*
X79873500Y-174312550D01*
X75422100Y-173147750D02*
X76825500Y-173147750D01*
X106416500Y-164257750D02*
G75*
G02*
X106616550Y-164457750I19J-200031D01*
G01*
X105752900Y-167251750D02*
G75*
G02*
X105952900Y-167051762I200019J-31D01*
G01*
X105752900Y-172947750D02*
G75*
G02*
X105552900Y-173147762I-199981J-31D01*
G01*
X103949500Y-174112550D02*
G75*
G02*
X103749500Y-174312562I-199981J-31D01*
G01*
X100701500Y-173147750D02*
G75*
G02*
X100901550Y-173347750I19J-200031D01*
G01*
X99298100Y-173147750D02*
G75*
G02*
X99098150Y-172947750I19J199969D01*
G01*
X97487500Y-172793750D02*
X97487500Y-169043685D01*
X83487500Y-169043685D02*
X83487500Y-172793750D01*
X83287500Y-168843685D02*
G75*
G02*
X83487515Y-169043685I19J-199996D01*
G01*
X80073500Y-173347750D02*
G75*
G02*
X80273500Y-173147762I200019J-31D01*
G01*
X77025500Y-173347750D02*
X77025500Y-174112550D01*
X75222100Y-167251750D02*
X75222100Y-172947750D01*
X75022100Y-167051750D02*
G75*
G02*
X75222150Y-167251750I19J-200031D01*
G01*
X74558500Y-167051750D02*
X75022100Y-167051750D01*
X74358500Y-164457750D02*
X74358500Y-166851750D01*
X75222100Y-161054150D02*
X75222100Y-164057750D01*
X81676900Y-160854150D02*
G75*
G02*
X81876950Y-161054150I19J-200031D01*
G01*
X83287500Y-164243815D02*
X82076900Y-164243815D01*
X83487500Y-160293750D02*
X83487500Y-164043815D01*
X96737500Y-159543750D02*
G75*
G02*
X97487550Y-160293750I19J-750031D01*
G01*
X97687500Y-164243815D02*
G75*
G02*
X97487485Y-164043815I19J200034D01*
G01*
X99098100Y-164043815D02*
G75*
G02*
X98898100Y-164243762I-199981J34D01*
G01*
X105752900Y-164057750D02*
X105752900Y-161054150D01*
X336934150Y-164257750D02*
G75*
G02*
X336734150Y-164057750I-31J199969D01*
G01*
X337397750Y-164257750D02*
G75*
G02*
X337597750Y-164457750I-31J-200031D01*
G01*
X337597750Y-166851750D02*
X337597750Y-164457750D01*
X337597750Y-166851750D02*
G75*
G02*
X337397750Y-167051812I-200031J-31D01*
G01*
X336734150Y-172947750D02*
X336734150Y-167251750D01*
X336734150Y-172947750D02*
G75*
G02*
X336534150Y-173147812I-200031J-31D01*
G01*
X334930750Y-174112550D02*
X334930750Y-173347750D01*
X334930750Y-174112550D02*
G75*
G02*
X334730750Y-174312612I-200031J-31D01*
G01*
X330279350Y-173147750D02*
X331682750Y-173147750D01*
X330279350Y-173147750D02*
G75*
G02*
X330079350Y-172947750I-31J199969D01*
G01*
X329879350Y-168843685D02*
G75*
G02*
X330079315Y-169043685I-31J-199996D01*
G01*
X313058150Y-168843685D02*
X314268750Y-168843685D01*
X312858150Y-172947750D02*
G75*
G02*
X312658150Y-173147812I-200031J-31D01*
G01*
X311054750Y-173347750D02*
G75*
G02*
X311254750Y-173147812I199969J-31D01*
G01*
X311054750Y-174112550D02*
G75*
G02*
X310854750Y-174312612I-200031J-31D01*
G01*
X308206750Y-174312550D02*
X310854750Y-174312550D01*
X305539750Y-167051750D02*
G75*
G02*
X305339750Y-166851750I-31J199969D01*
G01*
X305339750Y-164457750D02*
G75*
G02*
X305539750Y-164257812I199969J-31D01*
G01*
X306003350Y-164257750D02*
X305539750Y-164257750D01*
X312858150Y-164043815D02*
X312858150Y-161054150D01*
X314468750Y-164043815D02*
G75*
G02*
X314268750Y-164243812I-200031J34D01*
G01*
X314468750Y-160293750D02*
X314468750Y-164043815D01*
X314468750Y-160293750D02*
G75*
G02*
X315218750Y-159543812I749969J-31D01*
G01*
X327718750Y-159543750D02*
G75*
G02*
X328468750Y-160293750I-31J-750031D01*
G01*
X328668750Y-164243815D02*
G75*
G02*
X328468685Y-164043815I-31J200034D01*
G01*
X329879350Y-164243815D02*
X328668750Y-164243815D01*
X330079350Y-161054150D02*
X330079350Y-164043815D01*
X348840400Y-145207750D02*
G75*
G02*
X348640450Y-145007750I19J199969D01*
G01*
X349504000Y-147801750D02*
X349504000Y-145407750D01*
X348640400Y-148201750D02*
G75*
G02*
X348840400Y-148001762I200019J-31D01*
G01*
X348640400Y-153897750D02*
X348640400Y-148201750D01*
X346837000Y-154297750D02*
G75*
G02*
X347037000Y-154097762I200019J-31D01*
G01*
X343789000Y-154297750D02*
X343789000Y-155062550D01*
X342185600Y-154097750D02*
G75*
G02*
X341985650Y-153897750I19J199969D01*
G01*
X326375000Y-149993685D02*
X326375000Y-153743750D01*
X324964400Y-149793685D02*
X326175000Y-149793685D01*
X320113000Y-155262550D02*
G75*
G02*
X319913050Y-155062550I19J199969D01*
G01*
X319713000Y-154097750D02*
G75*
G02*
X319913050Y-154297750I19J-200031D01*
G01*
X318309600Y-154097750D02*
X319713000Y-154097750D01*
X318109600Y-148201750D02*
X318109600Y-153897750D01*
X317446000Y-148001750D02*
G75*
G02*
X317246050Y-147801750I19J199969D01*
G01*
X317246000Y-145407750D02*
X317246000Y-147801750D01*
X317909600Y-145207750D02*
X317446000Y-145207750D01*
X318109600Y-142004150D02*
X318109600Y-145007750D01*
X318109600Y-142004150D02*
G75*
G02*
X318309600Y-141804162I200019J-31D01*
G01*
X324564400Y-141804150D02*
X318309600Y-141804150D01*
X324964400Y-145193815D02*
G75*
G02*
X324764385Y-144993815I19J200034D01*
G01*
X326175000Y-145193815D02*
X324964400Y-145193815D01*
X339625000Y-140493750D02*
X327125000Y-140493750D01*
X339625000Y-140493750D02*
G75*
G02*
X340375050Y-141243750I19J-750031D01*
G01*
X340375000Y-144993815D02*
X340375000Y-141243750D01*
X341985600Y-144993815D02*
G75*
G02*
X341785600Y-145193762I-199981J34D01*
G01*
X348440400Y-141804150D02*
X342185600Y-141804150D01*
X196008650Y-178989750D02*
G75*
G02*
X196208650Y-179189750I-31J-200031D01*
G01*
X196408650Y-185085750D02*
G75*
G02*
X196208650Y-184885750I-31J199969D01*
G01*
X197072250Y-187679750D02*
G75*
G02*
X196872250Y-187879812I-200031J-31D01*
G01*
X196208650Y-191083350D02*
G75*
G02*
X196008650Y-191283412I-200031J-31D01*
G01*
X167581250Y-192593750D02*
X180081250Y-192593750D01*
X167581250Y-192593750D02*
G75*
G02*
X166831250Y-191843750I-31J749969D01*
G01*
X166831250Y-188093685D02*
X166831250Y-191843750D01*
X158108650Y-191083350D02*
G75*
G02*
X157908650Y-191283412I-200031J-31D01*
G01*
X151653850Y-191283350D02*
G75*
G02*
X151453850Y-191083350I-31J199969D01*
G01*
X151253850Y-187879750D02*
G75*
G02*
X151453850Y-188079750I-31J-200031D01*
G01*
X150790250Y-187879750D02*
G75*
G02*
X150590250Y-187679750I-31J199969D01*
G01*
X150590250Y-185285750D02*
X150590250Y-187679750D01*
X151253850Y-185085750D02*
X150790250Y-185085750D01*
X151453850Y-184885750D02*
G75*
G02*
X151253850Y-185085812I-200031J-31D01*
G01*
X151453850Y-179189750D02*
X151453850Y-184885750D01*
X157908650Y-178989750D02*
X156505250Y-178989750D01*
X166831250Y-179343750D02*
G75*
G02*
X167581250Y-178593812I749969J-31D01*
G01*
X189553850Y-183093815D02*
G75*
G02*
X189353850Y-183293812I-200031J34D01*
G01*
X189553850Y-179189750D02*
G75*
G02*
X189753850Y-178989812I199969J-31D01*
G01*
X251755250Y-178989750D02*
G75*
G02*
X251555250Y-178789750I-31J199969D01*
G01*
X254222250Y-187679750D02*
G75*
G02*
X254022250Y-187879812I-200031J-31D01*
G01*
X253358650Y-188079750D02*
G75*
G02*
X253558650Y-187879812I199969J-31D01*
G01*
X253358650Y-191083350D02*
X253358650Y-188079750D01*
X246903850Y-191283350D02*
X253158650Y-191283350D01*
X246903850Y-191283350D02*
G75*
G02*
X246703850Y-191083350I-31J199969D01*
G01*
X237981250Y-188093685D02*
G75*
G02*
X238181250Y-187893712I199969J4D01*
G01*
X208803850Y-191283350D02*
X215058650Y-191283350D01*
X207740250Y-185285750D02*
X207740250Y-187679750D01*
X207740250Y-185285750D02*
G75*
G02*
X207940250Y-185085812I199969J-31D01*
G01*
X208603850Y-179189750D02*
X208603850Y-184885750D01*
X210407250Y-178789750D02*
G75*
G02*
X210207250Y-178989812I-200031J-31D01*
G01*
X210407250Y-178024950D02*
X210407250Y-178789750D01*
X210407250Y-178024950D02*
G75*
G02*
X210607250Y-177825012I199969J-31D01*
G01*
X213255250Y-177824950D02*
X210607250Y-177824950D01*
X223781250Y-183293815D02*
X215458650Y-183293815D01*
X237231250Y-178593750D02*
X224731250Y-178593750D01*
X237981250Y-183093815D02*
X237981250Y-179343750D01*
X246703850Y-183093815D02*
G75*
G02*
X246503850Y-183293812I-200031J34D01*
G01*
X246703850Y-179189750D02*
X246703850Y-183093815D01*
X351543750Y-198593750D02*
G75*
G02*
X348543750Y-198593750I-1500000J0D01*
G01*
X348543750Y-198593750D02*
G75*
G02*
X351543750Y-198593750I1500000J0D01*
G01*
X165806250Y-96393750D02*
G75*
G02*
X162806250Y-96393750I-1500000J0D01*
G01*
X162806250Y-96393750D02*
G75*
G02*
X165806250Y-96393750I1500000J0D01*
G01*
X57518750Y-188093750D02*
X52018750Y-188093750D01*
X58268750Y-187343750D02*
G75*
G02*
X57518750Y-188093812I-750031J-31D01*
G01*
X58268750Y-183843750D02*
X58268750Y-187343750D01*
X51268750Y-180999950D02*
X51268750Y-177499950D01*
X58268750Y-180999950D02*
G75*
G02*
X57518750Y-181750012I-750031J-31D01*
G01*
X376093750Y-179343750D02*
X376093750Y-191843750D01*
X362843750Y-178593750D02*
X375343750Y-178593750D01*
X343043750Y-191843750D02*
X343043750Y-179343750D01*
X343793750Y-192593750D02*
G75*
G02*
X343043750Y-191843750I-31J749969D01*
G01*
X356293750Y-178593750D02*
G75*
G02*
X357043750Y-179343750I-31J-750031D01*
G01*
X343793750Y-178593750D02*
X356293750Y-178593750D01*
X337243750Y-192593750D02*
X324743750Y-192593750D01*
X337243750Y-178593750D02*
G75*
G02*
X337993750Y-179343750I-31J-750031D01*
G01*
X293037500Y-191843750D02*
X293037500Y-179343750D01*
X306287500Y-192593750D02*
X293787500Y-192593750D01*
X280843750Y-179343750D02*
X280843750Y-191843750D01*
X267593750Y-178593750D02*
X280093750Y-178593750D01*
X123968750Y-179343750D02*
G75*
G02*
X124718750Y-178593812I749969J-31D01*
G01*
X124718750Y-192593750D02*
G75*
G02*
X123968750Y-191843750I-31J749969D01*
G01*
X137218750Y-192593750D02*
X124718750Y-192593750D01*
X137218750Y-178593750D02*
G75*
G02*
X137968750Y-179343750I-31J-750031D01*
G01*
X124718750Y-178593750D02*
X137218750Y-178593750D01*
X97775000Y-179343750D02*
G75*
G02*
X98525000Y-178593762I750019J-31D01*
G01*
X111775000Y-191843750D02*
G75*
G02*
X111025000Y-192593762I-749981J-31D01*
G01*
X73962500Y-179343750D02*
G75*
G02*
X74712500Y-178593762I750019J-31D01*
G01*
X73962500Y-191843750D02*
X73962500Y-179343750D01*
X87212500Y-192593750D02*
X74712500Y-192593750D01*
X343043750Y-160293750D02*
G75*
G02*
X343793750Y-159543812I749969J-31D01*
G01*
X357043750Y-172793750D02*
G75*
G02*
X356293750Y-173543812I-750031J-31D01*
G01*
X356293750Y-159543750D02*
G75*
G02*
X357043750Y-160293750I-31J-750031D01*
G01*
X343793750Y-159543750D02*
X356293750Y-159543750D01*
X280843750Y-172793750D02*
G75*
G02*
X280093750Y-173543812I-750031J-31D01*
G01*
X247793750Y-160293750D02*
G75*
G02*
X248543750Y-159543812I749969J-31D01*
G01*
X247793750Y-172793750D02*
X247793750Y-160293750D01*
X248543750Y-173543750D02*
G75*
G02*
X247793750Y-172793750I-31J749969D01*
G01*
X261793750Y-172793750D02*
G75*
G02*
X261043750Y-173543812I-750031J-31D01*
G01*
X228743750Y-160293750D02*
G75*
G02*
X229493750Y-159543812I749969J-31D01*
G01*
X228743750Y-172793750D02*
X228743750Y-160293750D01*
X242743750Y-172793750D02*
G75*
G02*
X241993750Y-173543812I-750031J-31D01*
G01*
X229493750Y-159543750D02*
X241993750Y-159543750D01*
X209693750Y-160293750D02*
G75*
G02*
X210443750Y-159543812I749969J-31D01*
G01*
X222943750Y-173543750D02*
X210443750Y-173543750D01*
X223693750Y-160293750D02*
X223693750Y-172793750D01*
X222943750Y-159543750D02*
G75*
G02*
X223693750Y-160293750I-31J-750031D01*
G01*
X191393750Y-159543750D02*
X203893750Y-159543750D01*
X171593750Y-160293750D02*
G75*
G02*
X172343750Y-159543812I749969J-31D01*
G01*
X153293750Y-173543750D02*
G75*
G02*
X152543750Y-172793750I-31J749969D01*
G01*
X165793750Y-173543750D02*
X153293750Y-173543750D01*
X133493750Y-160293750D02*
G75*
G02*
X134243750Y-159543812I749969J-31D01*
G01*
X133493750Y-172793750D02*
X133493750Y-160293750D01*
X134243750Y-173543750D02*
G75*
G02*
X133493750Y-172793750I-31J749969D01*
G01*
X147493750Y-160293750D02*
X147493750Y-172793750D01*
X146743750Y-159543750D02*
G75*
G02*
X147493750Y-160293750I-31J-750031D01*
G01*
X114443750Y-172793750D02*
X114443750Y-160293750D01*
X115193750Y-173543750D02*
G75*
G02*
X114443750Y-172793750I-31J749969D01*
G01*
X127693750Y-173543750D02*
X115193750Y-173543750D01*
X128443750Y-172793750D02*
G75*
G02*
X127693750Y-173543812I-750031J-31D01*
G01*
X295418750Y-153743750D02*
X295418750Y-141243750D01*
X296168750Y-154493750D02*
G75*
G02*
X295418750Y-153743750I-31J749969D01*
G01*
X309418750Y-141243750D02*
X309418750Y-153743750D01*
X276368750Y-153743750D02*
X276368750Y-141243750D01*
X290368750Y-141243750D02*
X290368750Y-153743750D01*
X252268750Y-141243750D02*
X252268750Y-153743750D01*
X219218750Y-141243750D02*
G75*
G02*
X219968750Y-140493812I749969J-31D01*
G01*
X219968750Y-140493750D02*
X232468750Y-140493750D01*
X200168750Y-153743750D02*
X200168750Y-141243750D01*
X214168750Y-153743750D02*
G75*
G02*
X213418750Y-154493812I-750031J-31D01*
G01*
X200918750Y-140493750D02*
X213418750Y-140493750D01*
X194368750Y-154493750D02*
X181868750Y-154493750D01*
X175318750Y-140493750D02*
G75*
G02*
X176068750Y-141243750I-31J-750031D01*
G01*
X143768750Y-154493750D02*
G75*
G02*
X143018750Y-153743750I-31J749969D01*
G01*
X156268750Y-154493750D02*
X143768750Y-154493750D01*
X156268750Y-140493750D02*
G75*
G02*
X157018750Y-141243750I-31J-750031D01*
G01*
X124718750Y-154493750D02*
G75*
G02*
X123968750Y-153743750I-31J749969D01*
G01*
X137968750Y-153743750D02*
G75*
G02*
X137218750Y-154493812I-750031J-31D01*
G01*
X137968750Y-141243750D02*
X137968750Y-153743750D01*
X137218750Y-140493750D02*
G75*
G02*
X137968750Y-141243750I-31J-750031D01*
G01*
X105668750Y-140493750D02*
X118168750Y-140493750D01*
X362093750Y-122193750D02*
G75*
G02*
X362843750Y-121443812I749969J-31D01*
G01*
X376093750Y-122193750D02*
X376093750Y-134693750D01*
X375343750Y-121443750D02*
G75*
G02*
X376093750Y-122193750I-31J-750031D01*
G01*
X333518750Y-122193750D02*
G75*
G02*
X334268750Y-121443812I749969J-31D01*
G01*
X346768750Y-121443750D02*
G75*
G02*
X347518750Y-122193750I-31J-750031D01*
G01*
X309706250Y-122193750D02*
G75*
G02*
X310456250Y-121443812I749969J-31D01*
G01*
X322956250Y-135443750D02*
X310456250Y-135443750D01*
X323706250Y-122193750D02*
X323706250Y-134693750D01*
X322956250Y-121443750D02*
G75*
G02*
X323706250Y-122193750I-31J-750031D01*
G01*
X290656250Y-134693750D02*
X290656250Y-122193750D01*
X291406250Y-135443750D02*
G75*
G02*
X290656250Y-134693750I-31J749969D01*
G01*
X303906250Y-135443750D02*
X291406250Y-135443750D01*
X271606250Y-122193750D02*
G75*
G02*
X272356250Y-121443812I749969J-31D01*
G01*
X285606250Y-134693750D02*
G75*
G02*
X284856250Y-135443812I-750031J-31D01*
G01*
X285606250Y-122193750D02*
X285606250Y-134693750D01*
X272356250Y-121443750D02*
X284856250Y-121443750D01*
X253306250Y-135443750D02*
G75*
G02*
X252556250Y-134693750I-31J749969D01*
G01*
X265806250Y-135443750D02*
X253306250Y-135443750D01*
X253306250Y-121443750D02*
X265806250Y-121443750D01*
X233506250Y-122193750D02*
G75*
G02*
X234256250Y-121443812I749969J-31D01*
G01*
X246756250Y-135443750D02*
X234256250Y-135443750D01*
X247506250Y-122193750D02*
X247506250Y-134693750D01*
X234256250Y-121443750D02*
X246756250Y-121443750D01*
X215206250Y-135443750D02*
G75*
G02*
X214456250Y-134693750I-31J749969D01*
G01*
X227706250Y-135443750D02*
X215206250Y-135443750D01*
X227706250Y-121443750D02*
G75*
G02*
X228456250Y-122193750I-31J-750031D01*
G01*
X209406250Y-134693750D02*
G75*
G02*
X208656250Y-135443812I-750031J-31D01*
G01*
X176356250Y-122193750D02*
G75*
G02*
X177106250Y-121443812I749969J-31D01*
G01*
X177106250Y-135443750D02*
G75*
G02*
X176356250Y-134693750I-31J749969D01*
G01*
X189606250Y-135443750D02*
X177106250Y-135443750D01*
X190356250Y-122193750D02*
X190356250Y-134693750D01*
X177106250Y-121443750D02*
X189606250Y-121443750D01*
X170556250Y-135443750D02*
X158056250Y-135443750D01*
X171306250Y-122193750D02*
X171306250Y-134693750D01*
X170556250Y-121443750D02*
G75*
G02*
X171306250Y-122193750I-31J-750031D01*
G01*
X158056250Y-121443750D02*
X170556250Y-121443750D01*
X152256250Y-122193750D02*
X152256250Y-134693750D01*
X151506250Y-121443750D02*
G75*
G02*
X152256250Y-122193750I-31J-750031D01*
G01*
X139006250Y-121443750D02*
X151506250Y-121443750D01*
X119206250Y-122193750D02*
G75*
G02*
X119956250Y-121443812I749969J-31D01*
G01*
X119956250Y-135443750D02*
G75*
G02*
X119206250Y-134693750I-31J749969D01*
G01*
X133206250Y-134693750D02*
G75*
G02*
X132456250Y-135443812I-750031J-31D01*
G01*
X132456250Y-121443750D02*
G75*
G02*
X133206250Y-122193750I-31J-750031D01*
G01*
X100156250Y-122193750D02*
G75*
G02*
X100906250Y-121443812I749969J-31D01*
G01*
X100156250Y-134693750D02*
X100156250Y-122193750D01*
X100906250Y-135443750D02*
G75*
G02*
X100156250Y-134693750I-31J749969D01*
G01*
X113406250Y-121443750D02*
G75*
G02*
X114156250Y-122193750I-31J-750031D01*
G01*
X76343750Y-134693750D02*
X76343750Y-122193750D01*
X61768750Y-158506250D02*
G75*
G02*
X61018750Y-159256312I-750031J-31D01*
G01*
X61768750Y-146006250D02*
X61768750Y-158506250D01*
X47768750Y-126956250D02*
G75*
G02*
X48518750Y-126206312I749969J-31D01*
G01*
X61768750Y-139456250D02*
G75*
G02*
X61018750Y-140206312I-750031J-31D01*
G01*
X48518750Y-126206250D02*
X61018750Y-126206250D01*
X362843750Y-116393750D02*
G75*
G02*
X362093750Y-115643750I-31J749969D01*
G01*
X376093750Y-103143750D02*
X376093750Y-115643750D01*
X362843750Y-102393750D02*
X375343750Y-102393750D01*
X338281250Y-103143750D02*
G75*
G02*
X339031250Y-102393812I749969J-31D01*
G01*
X352281250Y-115643750D02*
G75*
G02*
X351531250Y-116393812I-750031J-31D01*
G01*
X319231250Y-115643750D02*
X319231250Y-103143750D01*
X332481250Y-116393750D02*
X319981250Y-116393750D01*
X333231250Y-115643750D02*
G75*
G02*
X332481250Y-116393812I-750031J-31D01*
G01*
X300181250Y-103143750D02*
G75*
G02*
X300931250Y-102393812I749969J-31D01*
G01*
X300181250Y-115643750D02*
X300181250Y-103143750D01*
X314181250Y-103143750D02*
X314181250Y-115643750D01*
X300931250Y-102393750D02*
X313431250Y-102393750D01*
X281131250Y-103143750D02*
G75*
G02*
X281881250Y-102393812I749969J-31D01*
G01*
X281131250Y-115643750D02*
X281131250Y-103143750D01*
X294381250Y-116393750D02*
X281881250Y-116393750D01*
X281881250Y-102393750D02*
X294381250Y-102393750D01*
X262081250Y-115643750D02*
X262081250Y-103143750D01*
X262831250Y-116393750D02*
G75*
G02*
X262081250Y-115643750I-31J749969D01*
G01*
X243031250Y-103143750D02*
G75*
G02*
X243781250Y-102393812I749969J-31D01*
G01*
X243031250Y-115643750D02*
X243031250Y-103143750D01*
X243781250Y-116393750D02*
G75*
G02*
X243031250Y-115643750I-31J749969D01*
G01*
X257031250Y-115643750D02*
G75*
G02*
X256281250Y-116393812I-750031J-31D01*
G01*
X243781250Y-102393750D02*
X256281250Y-102393750D01*
X224731250Y-116393750D02*
G75*
G02*
X223981250Y-115643750I-31J749969D01*
G01*
X237231250Y-116393750D02*
X224731250Y-116393750D01*
X237981250Y-115643750D02*
G75*
G02*
X237231250Y-116393812I-750031J-31D01*
G01*
X237981250Y-103143750D02*
X237981250Y-115643750D01*
X204931250Y-103143750D02*
G75*
G02*
X205681250Y-102393812I749969J-31D01*
G01*
X205681250Y-116393750D02*
G75*
G02*
X204931250Y-115643750I-31J749969D01*
G01*
X218181250Y-102393750D02*
G75*
G02*
X218931250Y-103143750I-31J-750031D01*
G01*
X185881250Y-103143750D02*
G75*
G02*
X186631250Y-102393812I749969J-31D01*
G01*
X186631250Y-116393750D02*
G75*
G02*
X185881250Y-115643750I-31J749969D01*
G01*
X199131250Y-102393750D02*
G75*
G02*
X199881250Y-103143750I-31J-750031D01*
G01*
X166831250Y-103143750D02*
G75*
G02*
X167581250Y-102393812I749969J-31D01*
G01*
X166831250Y-115643750D02*
X166831250Y-103143750D01*
X180081250Y-116393750D02*
X167581250Y-116393750D01*
X180831250Y-115643750D02*
G75*
G02*
X180081250Y-116393812I-750031J-31D01*
G01*
X180081250Y-102393750D02*
G75*
G02*
X180831250Y-103143750I-31J-750031D01*
G01*
X147781250Y-115643750D02*
X147781250Y-103143750D01*
X161781250Y-115643750D02*
G75*
G02*
X161031250Y-116393812I-750031J-31D01*
G01*
X142731250Y-103143750D02*
X142731250Y-115643750D01*
X122931250Y-102393750D02*
G75*
G02*
X123681250Y-103143750I-31J-750031D01*
G01*
X90631250Y-103143750D02*
G75*
G02*
X91381250Y-102393812I749969J-31D01*
G01*
X91381250Y-116393750D02*
G75*
G02*
X90631250Y-115643750I-31J749969D01*
G01*
X84831250Y-116393750D02*
X72331250Y-116393750D01*
X85581250Y-115643750D02*
G75*
G02*
X84831250Y-116393812I-750031J-31D01*
G01*
X85581250Y-103143750D02*
X85581250Y-115643750D01*
X72331250Y-102393750D02*
X84831250Y-102393750D01*
X61768750Y-115643750D02*
G75*
G02*
X61018750Y-116393812I-750031J-31D01*
G01*
X48518750Y-102393750D02*
X61018750Y-102393750D01*
X238181250Y-183293815D02*
G75*
G02*
X237981185Y-183093815I-31J200034D01*
G01*
X246703850Y-179189750D02*
G75*
G02*
X246903850Y-178989812I199969J-31D01*
G01*
X326375000Y-141243750D02*
X326375000Y-144993815D01*
X246503850Y-183293815D02*
X238181250Y-183293815D01*
X326375000Y-144993815D02*
G75*
G02*
X326175000Y-145193762I-199981J34D01*
G01*
X208603850Y-179189750D02*
G75*
G02*
X208803850Y-178989812I199969J-31D01*
G01*
X331682750Y-173147750D02*
G75*
G02*
X331882750Y-173347750I-31J-200031D01*
G01*
X342185600Y-154097750D02*
X343589000Y-154097750D01*
X326375000Y-141243750D02*
G75*
G02*
X327125000Y-140493762I750019J-31D01*
G01*
X151453850Y-179189750D02*
G75*
G02*
X151653850Y-178989812I199969J-31D01*
G01*
X103949500Y-174112550D02*
X103949500Y-173347750D01*
X346837000Y-155062550D02*
X346837000Y-154297750D01*
X317246000Y-145407750D02*
G75*
G02*
X317446000Y-145207762I200019J-31D01*
G01*
X180831250Y-188093685D02*
G75*
G02*
X181031250Y-187893712I199969J4D01*
G01*
X343281250Y-96393750D02*
G75*
G02*
X340281250Y-96393750I-1500000J0D01*
G01*
X340281250Y-96393750D02*
G75*
G02*
X343281250Y-96393750I1500000J0D01*
G01*
X376093750Y-191843750D02*
G75*
G02*
X375343750Y-192593812I-750031J-31D01*
G01*
X293787500Y-178593750D02*
X306287500Y-178593750D01*
X184843750Y-159543750D02*
G75*
G02*
X185593750Y-160293750I-31J-750031D01*
G01*
X147493750Y-172793750D02*
G75*
G02*
X146743750Y-173543812I-750031J-31D01*
G01*
X309418750Y-153743750D02*
G75*
G02*
X308668750Y-154493812I-750031J-31D01*
G01*
X289618750Y-154493750D02*
X277118750Y-154493750D01*
X277118750Y-154493750D02*
G75*
G02*
X276368750Y-153743750I-31J749969D01*
G01*
X233218750Y-153743750D02*
G75*
G02*
X232468750Y-154493812I-750031J-31D01*
G01*
X79475000Y-154493750D02*
G75*
G02*
X78725050Y-153743750I19J749969D01*
G01*
X157306250Y-122193750D02*
G75*
G02*
X158056250Y-121443812I749969J-31D01*
G01*
X171306250Y-134693750D02*
G75*
G02*
X170556250Y-135443812I-750031J-31D01*
G01*
X114156250Y-122193750D02*
X114156250Y-134693750D01*
X77093750Y-121443750D02*
X89593750Y-121443750D01*
X123681250Y-115643750D02*
G75*
G02*
X122931250Y-116393812I-750031J-31D01*
G01*
X166543750Y-160293750D02*
X166543750Y-172793750D01*
M02*
